<svg width="21" height="20" viewBox="0 0 21 20" fill="none" xmlns="http://www.w3.org/2000/svg">
<path d="M12.043 17.9141C12.4727 17.4844 12.4297 16.8398 12.043 16.4102L6.84375 11.4688H19.2188C19.7773 11.4688 20.25 11.0391 20.25 10.4375V9.0625C20.25 8.50391 19.7773 8.03125 19.2188 8.03125H6.84375L12.043 3.13281C12.4297 2.70312 12.4727 2.05859 12.043 1.62891L11.0977 0.683594C10.7109 0.296875 10.0234 0.296875 9.63672 0.683594L1.30078 9.0625C0.871094 9.44922 0.871094 10.0938 1.30078 10.4805L9.63672 18.8594C10.0234 19.2461 10.668 19.2461 11.0977 18.8594L12.043 17.9141Z" fill="white"/>
</svg>
