<svg width="360" height="274" viewBox="0 0 360 274" fill="none" xmlns="http://www.w3.org/2000/svg">
<path d="M97.3953 170.135C97.3953 170.135 75.0446 185.941 80.9486 216.102C86.8525 246.263 49.5564 288.324 49.5564 288.324C49.5564 288.324 49.8769 288.324 50.4758 288.324C90.8461 288.126 118 246.651 101.924 209.62C95.9572 195.855 91.795 180.185 97.3953 170.135Z" fill="#F98826"/>
<path d="M97.3953 170.135C97.3953 170.135 82.6354 191.676 90.1123 212.602C97.5893 233.527 79.5063 285.558 49.5691 288.324" stroke="#535461" stroke-opacity="0.7" stroke-miterlimit="10"/>
<path d="M118.143 253.141C118.143 253.141 96.9693 245.942 91.6389 265.113C86.3085 284.284 45.9635 280.13 45.9635 280.13C45.9635 280.13 46.1912 280.354 46.6255 280.754C75.8459 308.014 108.668 305.568 108.845 276.052C108.912 265.083 110.894 254.406 118.143 253.141Z" fill="#F98826"/>
<path opacity="0.2" d="M118.143 253.141C118.143 253.141 96.9693 245.942 91.6389 265.113C86.3085 284.284 45.9635 280.13 45.9635 280.13C45.9635 280.13 46.1912 280.354 46.6255 280.754C75.8459 308.014 108.668 305.568 108.845 276.052C108.912 265.083 110.894 254.406 118.143 253.141Z" fill="#F5F5F5"/>
<path d="M118.143 253.141C118.143 253.141 100.609 253.955 99.3604 269.554C98.1122 285.153 68.4828 299.023 45.9635 280.13" stroke="#535461" stroke-opacity="0.7" stroke-miterlimit="10"/>
<path d="M45.6303 142.572C45.6303 142.572 35.2562 121.276 15.5961 123.46C-4.06405 125.645 16.9624 145.849 16.9624 145.849C16.9624 145.849 40.9915 147.759 45.6303 142.572Z" fill="#F98826"/>
<path opacity="0.1" d="M45.6303 142.572C45.6303 142.572 35.2562 121.276 15.5961 123.46C-4.06405 125.645 16.9624 145.849 16.9624 145.849C16.9624 145.849 40.9915 147.759 45.6303 142.572Z" fill="black"/>
<path d="M-20.9873 139.022C-20.9873 139.022 -20.9873 138.743 -20.9367 138.254C-20.5867 134.842 -17.7908 121.103 4.40387 118.012C4.40387 118.012 21.6054 114.735 24.3339 109V126.476C24.3339 126.476 20.7831 138.764 3.03753 142.859C-14.708 146.954 -20.9873 139.022 -20.9873 139.022Z" fill="#F98826"/>
<path d="M-72.592 192.263C-72.592 192.263 -85.4415 200.182 -76.4169 215.743C-67.3923 231.304 75.9386 215.743 75.9386 215.743C75.9386 215.743 85.2163 196.631 68.5671 189.804C51.918 182.976 -72.592 192.263 -72.592 192.263Z" fill="#784F69"/>
<path d="M37.1665 195.265C37.1665 195.265 48.363 211.918 63.1059 197.175C77.8489 182.432 71.5697 172.602 63.1059 172.328C54.6422 172.054 37.1665 195.265 37.1665 195.265Z" fill="#F98826"/>
<path opacity="0.15" d="M37.1665 195.265C37.1665 195.265 48.363 211.918 63.1059 197.175C77.8489 182.432 71.5697 172.602 63.1059 172.328C54.6422 172.054 37.1665 195.265 37.1665 195.265Z" fill="black"/>
<path d="M66.9309 174.517C66.9309 174.517 69.6594 151.323 34.4592 169.056C-0.740992 186.789 8.24565 196.087 8.24565 196.087C8.24565 196.087 25.7213 209.468 39.9161 198.546C54.1109 187.624 62.8319 184.347 66.9309 174.517Z" fill="#F98826"/>
<path opacity="0.1" d="M66.9309 174.517C66.9309 174.517 69.6594 151.323 34.4592 169.056C-0.740992 186.789 8.24565 196.087 8.24565 196.087C8.24565 196.087 25.7213 209.468 39.9161 198.546C54.1109 187.624 62.8319 184.347 66.9309 174.517Z" fill="black"/>
<path d="M39.8993 167.415C39.8993 167.415 26.5184 158.138 6.04437 167.415C-14.4297 176.693 -38.463 200.182 -38.463 200.182C-38.463 200.182 -7.06239 211.391 9.86507 198.542C26.7925 185.692 39.0812 176.153 39.8993 167.415Z" fill="#F98826"/>
<path opacity="0.07" d="M39.8993 167.415C39.8993 167.415 26.5184 158.138 6.04437 167.415C-14.4297 176.693 -38.463 200.182 -38.463 200.182C-38.463 200.182 -7.06239 211.391 9.86507 198.542C26.7925 185.692 39.0812 176.153 39.8993 167.415Z" fill="black"/>
<path d="M12.3236 166.053C12.3236 166.053 -14.9821 162.232 -27.5407 169.874C-40.0992 177.515 -65.6211 197.863 -65.6211 197.863C-65.6211 197.863 -57.8659 212.745 -35.2031 201.274C-35.1863 201.27 11.7754 172.058 12.3236 166.053Z" fill="#F98826"/>
<path opacity="0.03" d="M12.3236 166.053C12.3236 166.053 -14.9821 162.232 -27.5407 169.874C-40.0992 177.515 -65.6211 197.863 -65.6211 197.863C-65.6211 197.863 -57.8659 212.745 -35.2031 201.274C-35.1863 201.27 11.7754 172.058 12.3236 166.053Z" fill="black"/>
<path d="M20.5132 141.48C20.5132 141.48 9.04692 130.832 -16.3485 140.662C-41.7439 150.492 -50.2034 168.238 -50.2034 168.238L-12.1145 171.105C-12.1145 171.105 9.3168 140.388 20.5132 141.48Z" fill="#F98826"/>
<path opacity="0.07" d="M20.5132 141.48C20.5132 141.48 9.04692 130.832 -16.3485 140.662C-41.7439 150.492 -50.2034 168.238 -50.2034 168.238L-12.1145 171.105C-12.1145 171.105 9.3168 140.388 20.5132 141.48Z" fill="black"/>
<path d="M38.2588 142.842C38.2588 142.842 19.965 136.837 5.78708 145.027C-8.39083 153.216 -13.6116 169.326 -13.6116 169.326L9.05111 168.233C9.05111 168.233 26.7925 140.388 38.2588 142.842Z" fill="#F98826"/>
<path opacity="0.03" d="M38.2588 142.842C38.2588 142.842 19.965 136.837 5.78708 145.027C-8.39083 153.216 -13.6116 169.326 -13.6116 169.326L9.05111 168.233C9.05111 168.233 26.7925 140.388 38.2588 142.842Z" fill="black"/>
<path d="M62.2878 164.961C62.2878 164.961 68.5671 133.016 27.0666 142.846C27.0666 142.846 3.48034 163.599 10.0885 169.33C16.6967 175.061 62.2878 164.961 62.2878 164.961Z" fill="#F98826"/>
<path opacity="0.1" d="M-79.9003 212.011L-57.6761 286.093C-57.5219 286.606 -57.1995 287.051 -56.761 287.358C-50.5577 291.698 -2.82848 322.487 55.6206 287.358C56.1299 287.05 56.5058 286.563 56.6749 285.992L78.8273 211.855C78.9479 211.451 78.9592 211.022 78.8603 210.611C78.7613 210.201 78.5555 209.824 78.2638 209.519C77.9721 209.214 77.6049 208.992 77.1995 208.875C76.7941 208.758 76.3648 208.75 75.9555 208.853L66.332 211.256C66.001 211.34 65.6558 211.351 65.3199 211.29L56.2742 209.603C55.7419 209.504 55.1918 209.589 54.7139 209.844L43.9772 215.57C43.4597 215.845 42.8595 215.92 42.2903 215.781L30.7397 212.909C30.3027 212.8 29.8437 212.816 29.4155 212.956L16.0009 217.346C15.7008 217.444 15.3842 217.482 15.0693 217.458C14.7545 217.433 14.4476 217.346 14.1665 217.202L5.28102 212.656C4.71902 212.368 4.06557 212.313 3.46346 212.505L-7.99442 216.161C-8.28306 216.252 -8.58644 216.288 -8.88844 216.266L-19.9204 215.495C-20.0859 215.483 -20.2499 215.455 -20.4096 215.41L-29.1643 212.909C-29.5336 212.805 -29.9227 212.79 -30.2987 212.867L-42.4271 215.33C-42.8816 215.423 -43.3534 215.382 -43.785 215.212L-55.5929 210.535C-56.0066 210.371 -56.4579 210.326 -56.896 210.404L-66.2959 212.091C-66.6757 212.16 -67.0663 212.135 -67.4345 212.02L-76.9061 209.042C-77.3198 208.915 -77.7603 208.903 -78.1806 209.006C-78.6008 209.11 -78.9851 209.325 -79.2925 209.63C-79.5998 209.935 -79.8187 210.317 -79.9257 210.736C-80.0328 211.156 -80.024 211.596 -79.9003 212.011Z" fill="black"/>
<path d="M-79.9003 212.555L-57.6761 286.637C-57.5219 287.15 -57.1995 287.595 -56.761 287.902C-50.5577 292.242 -2.82848 323.031 55.6206 287.902C56.1299 287.594 56.5058 287.107 56.6749 286.536L78.8273 212.399C78.9479 211.995 78.9592 211.566 78.8603 211.155C78.7613 210.745 78.5555 210.368 78.2638 210.063C77.9721 209.758 77.6049 209.536 77.1995 209.419C76.7941 209.302 76.3648 209.294 75.9555 209.397L66.3405 211.813C66.0094 211.896 65.6643 211.908 65.3284 211.847L56.2827 210.16C55.7504 210.061 55.2002 210.146 54.7224 210.4L43.9856 216.127C43.4681 216.402 42.8679 216.477 42.2988 216.338L30.7523 213.453C30.3154 213.344 29.8564 213.36 29.4282 213.5L16.0136 217.89C15.7135 217.988 15.3968 218.026 15.082 218.002C14.7671 217.977 14.4603 217.89 14.1791 217.746L5.29366 213.192C4.73166 212.903 4.07821 212.849 3.47609 213.04L-7.98177 216.696C-8.27042 216.788 -8.5738 216.824 -8.8758 216.802L-19.9204 216.03C-20.0859 216.019 -20.2499 215.991 -20.4096 215.946L-29.1643 213.445C-29.5336 213.34 -29.9227 213.326 -30.2987 213.403L-42.4271 215.874C-42.8816 215.967 -43.3534 215.926 -43.785 215.756L-55.5929 211.079C-56.0066 210.915 -56.4579 210.87 -56.896 210.949L-66.2959 212.635C-66.6757 212.704 -67.0663 212.679 -67.4345 212.564L-76.9061 209.586C-77.3198 209.459 -77.7603 209.447 -78.1806 209.55C-78.6008 209.654 -78.9851 209.869 -79.2925 210.174C-79.5998 210.479 -79.8187 210.861 -79.9257 211.281C-80.0328 211.7 -80.024 212.14 -79.9003 212.555Z" fill="#4D4981"/>
<path opacity="0.5" d="M54.5157 198.432L52.1879 197.622L50.889 195.535L56.6791 188.282L59.0027 189.087L60.3058 191.175L54.5157 198.432Z" fill="white"/>
<path opacity="0.5" d="M6.18772 158.838L3.86409 158.032L2.561 155.945L8.35108 148.687L10.6789 149.497L11.9778 151.584L6.18772 158.838Z" fill="white"/>
<path opacity="0.5" d="M19.2312 185.515L16.9835 186.51L14.605 185.878L13.8755 176.621L16.1232 175.626L18.5016 176.259L19.2312 185.515Z" fill="white"/>
<path opacity="0.5" d="M45.411 187.362L43.6271 189.058L41.1728 189.256L37.3858 180.779L39.1739 179.084L41.624 178.886L45.411 187.362Z" fill="white"/>
<path opacity="0.5" d="M33.2446 158.315L33.8477 155.928L35.8128 154.452L43.547 159.588L42.9439 161.975L40.9788 163.455L33.2446 158.315Z" fill="white"/>
<path opacity="0.5" d="M25.0256 134.594L25.4852 132.177L27.3619 130.583L35.3828 135.256L34.9231 137.672L33.0465 139.266L25.0256 134.594Z" fill="#FD6F8D"/>
<path opacity="0.5" d="M7.14079 122.402L9.54032 121.854L11.7501 122.938L10.6747 132.16L8.27519 132.704L6.06543 131.621L7.14079 122.402Z" fill="#FD6F8D"/>
<path opacity="0.5" d="M-9.3312 195.172L-9.90051 192.777L-8.84202 190.555L0.389233 191.537L0.958531 193.932L-0.0999527 196.155L-9.3312 195.172Z" fill="#FD6F8D"/>
<path opacity="0.5" d="M52.0908 180.476L50.0709 179.071L49.3835 176.706L56.9194 171.287L58.9394 172.691L59.6268 175.053L52.0908 180.476Z" fill="#FD6F8D"/>
<path opacity="0.1" d="M75.9639 208.861L66.3405 211.265C66.0094 211.348 65.6643 211.36 65.3284 211.299L56.2827 209.612C56.0038 209.562 55.7182 209.562 55.4393 209.612L39.6252 295.514L55.4309 209.616C55.1833 209.66 54.9442 209.742 54.7224 209.86L43.9856 215.587C43.4959 215.848 42.9309 215.93 42.3874 215.819L31.1193 298.711C37.5434 296.578 43.7725 293.897 49.7378 290.698L66.9815 211.1L49.7335 290.673C51.6847 289.633 53.6526 288.519 55.6375 287.333C56.1468 287.025 56.5227 286.537 56.6918 285.967L78.8442 211.83C78.9579 211.427 78.9637 211.001 78.861 210.595C78.7583 210.189 78.5507 209.817 78.259 209.516C77.9674 209.215 77.6018 208.997 77.1991 208.882C76.7963 208.767 76.3703 208.76 75.9639 208.861Z" fill="black"/>
<path d="M42.2819 215.794L30.7397 212.909C30.5178 212.855 30.2891 212.832 30.0607 212.842L21.2512 301.46C24.4843 300.726 27.7793 299.81 31.1361 298.711L42.4042 215.819L42.2819 215.794Z" fill="#4D4981"/>
<g opacity="0.5">
<path opacity="0.5" d="M-0.428337 214.333L-0.702454 214.335L-0.119919 304.541L0.154197 304.539L-0.428337 214.333Z" fill="white"/>
<path opacity="0.5" d="M14.9381 218.203L11.4288 303.717L11.7027 303.728L15.212 218.214L14.9381 218.203Z" fill="white"/>
<path opacity="0.5" d="M29.9496 213.267L21.0273 302.342L21.3001 302.369L30.2224 213.294L29.9496 213.267Z" fill="white"/>
<path opacity="0.5" d="M40.5356 214.52L29.5602 298.102L29.8315 298.138L40.8069 214.556L40.5356 214.52Z" fill="white"/>
<path opacity="0.5" d="M55.3262 209.96L39.4563 296.005L39.7258 296.054L55.5957 210.009L55.3262 209.96Z" fill="white"/>
<path opacity="0.5" d="M66.8276 211.612L49.6302 291.22L49.8981 291.278L67.0955 211.669L66.8276 211.612Z" fill="white"/>
</g>
<path d="M227.366 194.431C227.366 194.431 214.748 173.698 194.901 177.805C175.054 181.913 198.435 200.514 198.435 200.514C198.435 200.514 223.13 200.166 227.366 194.431Z" fill="#F98826"/>
<path opacity="0.1" d="M227.366 194.431C227.366 194.431 214.748 173.698 194.901 177.805C175.054 181.913 198.435 200.514 198.435 200.514C198.435 200.514 223.13 200.166 227.366 194.431Z" fill="black"/>
<path d="M159.069 197.176C159.069 197.176 159.043 196.892 159.047 196.388C159.078 192.875 160.617 178.592 182.963 173.317C182.963 173.317 200.197 168.33 202.432 162.219L204.103 180.046C204.103 180.046 201.655 192.921 183.944 198.794C166.233 204.668 159.069 197.176 159.069 197.176Z" fill="#F98826"/>
<path d="M111.515 256.42C111.515 256.42 99.1644 265.728 109.858 280.739C120.551 295.751 265.278 266.177 265.278 266.177C265.278 266.177 272.915 245.794 255.279 240.42C237.642 235.047 111.515 256.42 111.515 256.42Z" fill="#784F69"/>
<path d="M223.769 248.992C223.769 248.992 236.782 264.91 250.412 248.462C264.043 232.013 256.697 222.586 248.037 223.115C239.377 223.644 223.769 248.992 223.769 248.992Z" fill="#F98826"/>
<path opacity="0.15" d="M223.769 248.992C223.769 248.992 236.782 264.91 250.412 248.462C264.043 232.013 256.697 222.586 248.037 223.115C239.377 223.644 223.769 248.992 223.769 248.992Z" fill="black"/>
<path d="M252.148 224.982C252.148 224.982 252.715 201.061 218.502 222.515C184.288 243.969 194.345 252.596 194.345 252.596C194.345 252.596 213.451 264.575 226.887 252.076C240.323 239.578 248.907 235.402 252.148 224.982Z" fill="#F98826"/>
<path opacity="0.1" d="M252.148 224.982C252.148 224.982 252.715 201.061 218.502 222.515C184.288 243.969 194.345 252.596 194.345 252.596C194.345 252.596 213.451 264.575 226.887 252.076C240.323 239.578 248.907 235.402 252.148 224.982Z" fill="black"/>
<path d="M223.894 220.321C223.894 220.321 209.358 212.136 189.358 223.557C169.359 234.978 147.088 261.237 147.088 261.237C147.088 261.237 180.191 269.67 196.231 254.945C212.271 240.219 223.895 229.313 223.894 220.321Z" fill="#F98826"/>
<path opacity="0.07" d="M223.894 220.321C223.894 220.321 209.358 212.136 189.358 223.557C169.359 234.978 147.088 261.237 147.088 261.237C147.088 261.237 180.191 269.67 196.231 254.945C212.271 240.219 223.895 229.313 223.894 220.321Z" fill="black"/>
<path d="M195.634 221.567C195.634 221.567 167.414 220.28 155.333 229.275C143.252 238.271 119.162 261.467 119.162 261.467C119.162 261.467 128.495 275.907 150.518 262.04C150.534 262.034 195.649 227.746 195.634 221.567Z" fill="#F98826"/>
<path opacity="0.03" d="M195.634 221.567C195.634 221.567 167.414 220.28 155.333 229.275C143.252 238.271 119.162 261.467 119.162 261.467C119.162 261.467 128.495 275.907 150.518 262.04C150.534 262.034 195.649 227.746 195.634 221.567Z" fill="black"/>
<path d="M122.943 231.468C122.943 231.468 100.009 253.58 120.47 262.047C120.47 262.047 159.16 231.169 159.711 228.023C159.711 228.023 139.873 223.138 122.943 231.468Z" fill="#F98826"/>
<path d="M174.004 194.653C174.004 194.653 157.31 193.409 153.114 196.61C148.918 199.811 116.306 211.581 125.205 234.628L134.882 230.085C134.882 230.085 151.844 204.033 174.004 194.653Z" fill="#F98826"/>
<path opacity="0.1" d="M174.004 194.653C174.004 194.653 157.31 193.409 153.114 196.61C148.918 199.811 116.306 211.581 125.205 234.628L134.882 230.085C134.882 230.085 151.844 204.033 174.004 194.653Z" fill="black"/>
<path d="M201.639 195.717C201.639 195.717 188.925 185.951 163.958 198.406C138.991 210.861 132.058 229.772 132.058 229.772L171.187 229.057C171.187 229.057 190.113 195.673 201.639 195.717Z" fill="#F98826"/>
<path opacity="0.07" d="M201.639 195.717C201.639 195.717 188.925 185.951 163.958 198.406C138.991 210.861 132.058 229.772 132.058 229.772L171.187 229.057C171.187 229.057 190.113 195.673 201.639 195.717Z" fill="black"/>
<path d="M219.872 195.411C219.872 195.411 200.636 191.033 186.956 200.743C173.276 210.452 169.49 227.385 169.49 227.385L192.504 224.104C192.504 224.104 207.941 194.003 219.872 195.411Z" fill="#F98826"/>
<path opacity="0.03" d="M219.872 195.411C219.872 195.411 200.636 191.033 186.956 200.743C173.276 210.452 169.49 227.385 169.49 227.385L192.504 224.104C192.504 224.104 207.941 194.003 219.872 195.411Z" fill="black"/>
<path d="M246.499 215.678C246.499 215.678 249.851 182.49 208.455 196.485C208.455 196.485 186.378 219.909 193.667 225.124C200.956 230.338 246.499 215.678 246.499 215.678Z" fill="#F98826"/>
<path opacity="0.1" d="M105.948 277.265L135.7 350.712C135.906 351.221 136.278 351.644 136.754 351.916C143.497 355.749 195.129 382.596 251.396 341.174C251.886 340.811 252.223 340.278 252.341 339.679L267.853 261.934C267.937 261.51 267.908 261.071 267.768 260.662C267.627 260.253 267.382 259.889 267.055 259.605C266.728 259.322 266.332 259.13 265.908 259.05C265.483 258.969 265.044 259.002 264.636 259.146L255.049 262.518C254.719 262.634 254.368 262.679 254.02 262.649L244.631 261.793C244.079 261.743 243.525 261.882 243.062 262.187L232.657 269.055C232.155 269.385 231.55 269.519 230.956 269.431L218.899 267.606C218.443 267.536 217.976 267.596 217.552 267.78L204.288 273.54C203.991 273.669 203.672 273.738 203.348 273.743C203.025 273.748 202.703 273.689 202.403 273.569L192.904 269.781C192.303 269.54 191.631 269.547 191.035 269.8L179.696 274.625C179.411 274.746 179.105 274.811 178.795 274.818L167.467 275.085C167.297 275.09 167.127 275.077 166.96 275.046L157.79 273.332C157.403 273.26 157.005 273.282 156.629 273.397L144.492 277.069C144.037 277.207 143.552 277.21 143.095 277.078L130.603 273.436C130.165 273.308 129.7 273.305 129.261 273.427L119.833 276.046C119.452 276.152 119.052 276.164 118.665 276.082L108.718 273.95C108.284 273.86 107.834 273.889 107.415 274.035C106.996 274.181 106.625 274.437 106.34 274.777C106.056 275.118 105.869 275.529 105.8 275.967C105.731 276.405 105.782 276.853 105.948 277.265Z" fill="black"/>
<path d="M106 277.82L135.752 351.267C135.958 351.776 136.33 352.199 136.806 352.471C143.549 356.304 195.181 383.151 251.448 341.729C251.938 341.366 252.275 340.833 252.393 340.234L267.905 262.489C267.989 262.065 267.96 261.626 267.82 261.217C267.679 260.808 267.434 260.444 267.107 260.16C266.78 259.877 266.384 259.685 265.96 259.605C265.535 259.524 265.096 259.557 264.688 259.701L255.111 263.085C254.781 263.201 254.43 263.246 254.082 263.216L244.693 262.36C244.14 262.31 243.587 262.449 243.124 262.754L232.719 269.622C232.217 269.952 231.612 270.086 231.018 269.999L218.964 268.16C218.508 268.09 218.041 268.15 217.617 268.334L204.353 274.094C204.056 274.223 203.737 274.292 203.413 274.297C203.089 274.302 202.768 274.243 202.468 274.123L192.968 270.326C192.367 270.086 191.695 270.092 191.099 270.345L179.761 275.17C179.475 275.291 179.169 275.356 178.859 275.363L167.518 275.632C167.348 275.636 167.178 275.623 167.011 275.592L157.841 273.878C157.454 273.806 157.056 273.829 156.68 273.943L144.544 277.624C144.089 277.762 143.604 277.765 143.147 277.633L130.655 273.991C130.217 273.863 129.752 273.86 129.313 273.982L119.885 276.601C119.504 276.707 119.104 276.719 118.717 276.637L108.77 274.505C108.336 274.415 107.886 274.444 107.467 274.59C107.048 274.736 106.677 274.992 106.392 275.332C106.108 275.673 105.921 276.084 105.852 276.522C105.783 276.96 105.834 277.408 106 277.82Z" fill="#4D4981"/>
<path opacity="0.5" d="M128.345 248.547L125.897 247.943L124.368 245.938L129.586 237.985L132.033 238.589L133.562 240.593L128.345 248.547Z" fill="white"/>
<path opacity="0.5" d="M241.769 250.565L239.317 249.961L237.793 247.956L243.006 240.003L245.453 240.603L246.982 242.608L241.769 250.565Z" fill="white"/>
<path opacity="0.5" d="M188.685 214.793L186.237 214.194L184.709 212.189L189.921 204.232L192.374 204.835L193.898 206.841L188.685 214.793Z" fill="white"/>
<path opacity="0.5" d="M204.541 240.761L202.343 241.991L199.856 241.573L198.227 232.2L200.425 230.97L202.912 231.388L204.541 240.761Z" fill="white"/>
<path opacity="0.5" d="M163.737 221.201L162.337 223.299L159.929 224.049L154.234 216.433L155.639 214.335L158.046 213.585L163.737 221.201Z" fill="white"/>
<path opacity="0.5" d="M163.094 244.301L161.689 246.399L159.286 247.149L153.59 239.533L154.991 237.436L157.398 236.685L163.094 244.301Z" fill="white"/>
<path opacity="0.5" d="M231.423 240.143L229.766 242.042L227.281 242.479L222.608 234.194L224.27 232.294L226.75 231.858L231.423 240.143Z" fill="white"/>
<path opacity="0.5" d="M216.236 211.674L216.623 209.181L218.487 207.488L226.867 211.988L226.48 214.481L224.617 216.179L216.236 211.674Z" fill="white"/>
<path opacity="0.5" d="M132.707 223.132L130.26 222.529L128.731 220.524L133.948 212.571L136.396 213.17L137.924 215.175L132.707 223.132Z" fill="#FD6F8D"/>
<path opacity="0.5" d="M161.251 206.424L160.441 204.039L161.313 201.67L170.824 201.79L171.633 204.179L170.762 206.548L161.251 206.424Z" fill="#FD6F8D"/>
<path opacity="0.5" d="M205.584 188.261L205.822 185.752L207.584 183.947L216.213 187.946L215.975 190.455L214.213 192.261L205.584 188.261Z" fill="#FD6F8D"/>
<path opacity="0.5" d="M186.174 177.534L188.57 176.745L190.928 177.639L190.712 187.15L188.316 187.935L185.959 187.04L186.174 177.534Z" fill="#FD6F8D"/>
<path opacity="0.5" d="M176.327 253.342L175.517 250.953L176.384 248.585L185.895 248.705L186.705 251.094L185.838 253.462L176.327 253.342Z" fill="#FD6F8D"/>
<path opacity="0.5" d="M141.674 258.39L140 256.503L139.877 253.989L148.684 250.39L150.362 252.277L150.481 254.796L141.674 258.39Z" fill="#FD6F8D"/>
<path opacity="0.5" d="M237.579 232.479L235.385 231.24L234.457 228.892L241.627 222.644L243.822 223.883L244.749 226.226L237.579 232.479Z" fill="#FD6F8D"/>
<path opacity="0.5" d="M172.588 240.534L170.393 239.295L169.462 236.952L176.631 230.699L178.826 231.939L179.757 234.282L172.588 240.534Z" fill="#FD6F8D"/>
<path opacity="0.1" d="M129.278 273.425L119.851 276.045C119.47 276.151 119.069 276.163 118.682 276.08L118.518 276.044L143.549 355.284L118.518 276.044L108.736 273.948C108.302 273.857 107.852 273.884 107.433 274.028C107.014 274.172 106.642 274.426 106.356 274.765C106.071 275.103 105.882 275.513 105.81 275.95C105.739 276.387 105.787 276.835 105.95 277.247L135.702 350.695C135.909 351.203 136.28 351.627 136.757 351.898C138.87 353.102 145.4 356.565 155.099 359.475L129.974 273.299C129.737 273.307 129.503 273.35 129.278 273.425Z" fill="black"/>
<path opacity="0.1" d="M264.646 259.153L255.059 262.525C254.729 262.642 254.378 262.687 254.029 262.657L244.64 261.8C244.351 261.776 244.06 261.803 243.78 261.881L235.859 351.023L243.772 261.886C243.524 261.954 243.288 262.061 243.073 262.203L232.667 269.072C232.192 269.384 231.624 269.522 231.059 269.461L227.487 355.097C233.837 352.307 239.935 348.977 245.714 345.143L255.697 262.296L245.708 345.118C247.598 343.87 249.5 342.547 251.411 341.147C251.901 340.783 252.238 340.25 252.356 339.652L267.868 261.907C267.945 261.485 267.91 261.05 267.767 260.645C267.623 260.241 267.376 259.881 267.05 259.602C266.723 259.323 266.33 259.135 265.908 259.056C265.486 258.978 265.051 259.011 264.646 259.153Z" fill="black"/>
<path d="M230.949 269.445L218.899 267.606C218.667 267.571 218.432 267.57 218.2 267.602L217.683 358.845C220.911 357.787 224.185 356.537 227.504 355.095L231.076 269.459L230.949 269.445Z" fill="#4D4981"/>
<g opacity="0.5">
<path opacity="0.5" d="M130.122 273.772L129.853 273.851L155.001 360.115L155.271 360.036L130.122 273.772Z" fill="white"/>
<path opacity="0.5" d="M157.391 273.745L157.115 273.796L173.659 363.912L173.935 363.861L157.391 273.745Z" fill="white"/>
<path opacity="0.5" d="M187.24 272.037L186.961 272.065L196.177 364.03L196.456 364.002L187.24 272.037Z" fill="white"/>
<path opacity="0.5" d="M218.127 268.046L217.539 359.765L217.82 359.767L218.408 268.048L218.127 268.046Z" fill="white"/>
<path opacity="0.5" d="M229.046 268.313L225.838 354.625L226.119 354.635L229.326 268.323L229.046 268.313Z" fill="white"/>
<path opacity="0.5" d="M243.698 262.247L235.733 351.539L236.013 351.564L243.978 262.272L243.698 262.247Z" fill="white"/>
<path opacity="0.5" d="M255.589 262.833L245.654 345.686L245.933 345.72L255.867 262.866L255.589 262.833Z" fill="white"/>
</g>
<path d="M322.88 156.402C322.88 156.402 307.221 145.602 294.334 154.889C281.447 164.175 304.125 170.006 304.125 170.006C304.125 170.006 321.683 161.86 322.88 156.402Z" fill="#F98826"/>
<path opacity="0.1" d="M322.88 156.402C322.88 156.402 307.221 145.602 294.334 154.889C281.447 164.175 304.125 170.006 304.125 170.006C304.125 170.006 321.683 161.86 322.88 156.402Z" fill="black"/>
<path d="M274.891 180.208C274.891 180.208 274.781 180.013 274.623 179.651C273.522 177.127 270.055 166.415 284.357 155.495C284.357 155.495 295.094 146.415 294.738 141.328L301.635 153.549C301.635 153.549 304.001 163.544 293.207 173.411C282.413 183.277 274.891 180.208 274.891 180.208Z" fill="#F98826"/>
<path d="M259.812 237.806C259.812 237.806 253.952 248.416 266.404 255.737C278.856 263.058 372.952 195.612 372.952 195.612C372.952 195.612 371.898 178.585 357.56 180.381C343.222 182.176 259.812 237.806 259.812 237.806Z" fill="#784F69"/>
<path d="M337.756 196.592C337.756 196.592 352.158 203.82 356.65 187.691C361.142 171.563 352.872 167.166 346.844 170.315C340.817 173.463 337.756 196.592 337.756 196.592Z" fill="#F98826"/>
<path opacity="0.15" d="M337.756 196.592C337.756 196.592 352.158 203.82 356.65 187.691C361.142 171.563 352.872 167.166 346.844 170.315C340.817 173.463 337.756 196.592 337.756 196.592Z" fill="black"/>
<path d="M350.383 170.336C350.383 170.336 343.138 153.039 325.519 179.331C307.9 205.623 317.855 208.58 317.855 208.58C317.855 208.58 335.357 211.041 340.973 197.801C346.59 184.561 351.396 178.828 350.383 170.336Z" fill="#F98826"/>
<path opacity="0.1" d="M350.383 170.336C350.383 170.336 343.138 153.039 325.519 179.331C307.9 205.623 317.855 208.58 317.855 208.58C317.855 208.58 335.357 211.041 340.973 197.801C346.59 184.561 351.396 178.828 350.383 170.336Z" fill="black"/>
<path d="M328.676 176.037C328.676 176.037 315.657 174.829 305 189.397C294.343 203.965 286.806 229.876 286.806 229.876C286.806 229.876 313.189 225.324 319.956 209.657C326.723 193.991 331.552 182.471 328.676 176.037Z" fill="#F98826"/>
<path opacity="0.07" d="M328.676 176.037C328.676 176.037 315.657 174.829 305 189.397C294.343 203.965 286.806 229.876 286.806 229.876C286.806 229.876 313.189 225.324 319.956 209.657C326.723 193.991 331.552 182.471 328.676 176.037Z" fill="black"/>
<path d="M308.854 185.967C308.854 185.967 288.25 194.07 282.483 204.37C276.716 214.67 266.898 238.972 266.898 238.972C266.898 238.972 278.194 246.319 289.516 229.354C289.526 229.344 310.841 190.383 308.854 185.967Z" fill="#F98826"/>
<path opacity="0.03" d="M308.854 185.967C308.854 185.967 288.25 194.07 282.483 204.37C276.716 214.67 266.898 238.972 266.898 238.972C266.898 238.972 278.194 246.319 289.516 229.354C289.526 229.344 310.841 190.383 308.854 185.967Z" fill="black"/>
<path d="M260.009 216.298C260.009 216.298 250.671 239.453 268.019 238.969C268.019 238.969 285.827 204.501 285.216 202.074C285.216 202.074 269.459 204.923 260.009 216.298Z" fill="#F98826"/>
<path d="M284.77 173.626C284.77 173.626 272.428 178.075 270.449 181.707C268.47 185.34 248.9 204.191 262.638 217.836L268.109 211.49C268.109 211.49 271.914 187.425 284.77 173.626Z" fill="#F98826"/>
<path opacity="0.1" d="M284.77 173.626C284.77 173.626 272.428 178.075 270.449 181.707C268.47 185.34 248.9 204.191 262.638 217.836L268.109 211.49C268.109 211.49 271.914 187.425 284.77 173.626Z" fill="black"/>
<path d="M304.884 165.55C304.884 165.55 292.663 162.628 278.782 179.525C264.902 196.421 265.989 212.17 265.989 212.17L293.757 199.144C293.757 199.144 296.623 169.205 304.884 165.55Z" fill="#F98826"/>
<path opacity="0.07" d="M304.884 165.55C304.884 165.55 292.663 162.628 278.782 179.525C264.902 196.421 265.989 212.17 265.989 212.17L293.757 199.144C293.757 199.144 296.623 169.205 304.884 165.55Z" fill="black"/>
<path d="M317.832 159.5C317.832 159.5 302.668 162.519 295.985 173.842C289.302 185.164 292.008 198.49 292.008 198.49L307.426 188.783C307.426 188.783 308.844 162.308 317.832 159.5Z" fill="#F98826"/>
<path opacity="0.03" d="M317.832 159.5C317.832 159.5 302.668 162.519 295.985 173.842C289.302 185.164 292.008 198.49 292.008 198.49L307.426 188.783C307.426 188.783 308.844 162.308 317.832 159.5Z" fill="black"/>
<path d="M343.365 165.485C343.365 165.485 335.15 140.667 310.006 163.919C310.006 163.919 301.701 187.74 308.584 189.14C315.467 190.54 343.365 165.485 343.365 165.485Z" fill="#F98826"/>
<path opacity="0.1" d="M262.495 254.501L307.272 297.539C307.582 297.837 307.984 298.021 308.412 298.063C314.462 298.649 359.991 301.346 387.004 253.713C387.239 253.297 387.309 252.808 387.202 252.342L373.438 191.753C373.362 191.423 373.201 191.118 372.97 190.87C372.739 190.622 372.446 190.44 372.122 190.342C371.797 190.244 371.453 190.233 371.123 190.311C370.793 190.389 370.49 190.553 370.244 190.787L364.463 196.265C364.264 196.454 364.027 196.599 363.768 196.688L356.777 199.078C356.365 199.219 356.014 199.496 355.78 199.862L350.532 208.104C350.278 208.501 349.888 208.79 349.435 208.918L340.224 211.467C339.875 211.563 339.561 211.756 339.316 212.022L331.667 220.386C331.496 220.574 331.29 220.725 331.06 220.832C330.83 220.939 330.581 221 330.328 221.01L322.32 221.337C321.813 221.357 321.335 221.577 320.989 221.948L314.419 229.027C314.253 229.205 314.055 229.35 313.835 229.453L305.816 233.267C305.696 233.325 305.57 233.37 305.44 233.401L298.331 235.107C298.031 235.18 297.754 235.323 297.521 235.526L290.011 242.034C289.73 242.279 289.384 242.436 289.015 242.487L278.912 243.877C278.558 243.925 278.224 244.072 277.949 244.299L272.041 249.189C271.802 249.386 271.519 249.523 271.216 249.588L263.417 251.244C263.078 251.318 262.765 251.483 262.512 251.721C262.259 251.959 262.075 252.262 261.98 252.596C261.886 252.931 261.883 253.284 261.974 253.62C262.065 253.955 262.245 254.26 262.495 254.501Z" fill="black"/>
<path d="M262.71 254.882L307.487 297.92C307.797 298.217 308.198 298.402 308.626 298.443C314.677 299.03 360.206 301.726 387.219 254.094C387.453 253.677 387.524 253.188 387.417 252.722L373.652 192.134C373.577 191.803 373.416 191.499 373.184 191.251C372.953 191.003 372.661 190.821 372.336 190.723C372.012 190.624 371.668 190.614 371.338 190.692C371.008 190.77 370.705 190.934 370.459 191.167L364.688 196.651C364.49 196.84 364.253 196.985 363.994 197.074L357.002 199.464C356.591 199.605 356.24 199.882 356.006 200.248L350.757 208.49C350.504 208.887 350.114 209.176 349.661 209.304L340.448 211.843C340.099 211.939 339.784 212.131 339.54 212.398L331.891 220.762C331.72 220.949 331.514 221.101 331.284 221.208C331.054 221.315 330.805 221.375 330.552 221.385L322.54 221.707C322.033 221.727 321.555 221.946 321.209 222.318L314.639 229.397C314.473 229.574 314.275 229.719 314.056 229.823L306.027 233.642C305.907 233.7 305.781 233.744 305.652 233.776L298.542 235.482C298.243 235.554 297.965 235.698 297.732 235.9L290.226 242.415C289.945 242.659 289.599 242.817 289.23 242.868L279.126 244.257C278.772 244.306 278.439 244.452 278.163 244.68L272.255 249.569C272.017 249.767 271.734 249.904 271.431 249.968L263.632 251.624C263.292 251.698 262.979 251.863 262.726 252.102C262.473 252.34 262.29 252.642 262.195 252.977C262.1 253.311 262.098 253.665 262.189 254C262.279 254.336 262.459 254.641 262.71 254.882Z" fill="#4D4981"/>
<path opacity="0.5" d="M269.336 226.79L267.391 227.141L265.656 226.195L266.846 218.836L268.791 218.486L270.526 219.431L269.336 226.79Z" fill="white"/>
<path opacity="0.5" d="M351.138 191.96L349.191 192.313L347.459 191.365L348.646 184.008L350.588 183.654L352.324 184.6L351.138 191.96Z" fill="white"/>
<path opacity="0.5" d="M301.716 183.342L299.773 183.696L298.038 182.75L299.223 175.39L301.17 175.037L302.902 175.984L301.716 183.342Z" fill="white"/>
<path opacity="0.5" d="M321.365 196.851L320.186 198.434L318.273 198.93L314.11 192.745L315.289 191.162L317.202 190.666L321.365 196.851Z" fill="white"/>
<path opacity="0.5" d="M285.915 195.906L285.583 197.854L284.101 199.161L277.59 195.533L277.924 193.583L279.407 192.276L285.915 195.906Z" fill="white"/>
<path opacity="0.5" d="M292.842 212.639L292.508 214.59L291.028 215.895L284.517 212.267L284.848 210.319L286.331 209.011L292.842 212.639Z" fill="white"/>
<path opacity="0.5" d="M340.403 187.812L339.824 189.701L338.186 190.808L332.192 186.375L332.774 184.484L334.409 183.378L340.403 187.812Z" fill="white"/>
<path opacity="0.5" d="M320.431 172.299L319.911 170.392L320.703 168.584L328.139 169.124L328.659 171.031L327.869 172.842L320.431 172.299Z" fill="white"/>
<path opacity="0.5" d="M264.33 207.211L262.385 207.562L260.65 206.616L261.84 199.257L263.783 198.903L265.518 199.849L264.33 207.211Z" fill="#FD6F8D"/>
<path opacity="0.5" d="M279.409 186.127L278.067 184.68L277.934 182.706L284.777 179.75L286.121 181.201L286.254 183.174L279.409 186.127Z" fill="#FD6F8D"/>
<path opacity="0.5" d="M305.322 158.953L304.69 157.082L305.373 155.227L312.827 155.329L313.459 157.2L312.775 159.056L305.322 158.953Z" fill="#FD6F8D"/>
<path opacity="0.5" d="M288.003 157.485L289.465 156.155L291.438 156.041L294.326 162.915L292.862 164.242L290.889 164.356L288.003 157.485Z" fill="#FD6F8D"/>
<path opacity="0.5" d="M305.201 214.876L303.858 213.426L303.721 211.454L310.565 208.498L311.908 209.949L312.045 211.921L305.201 214.876Z" fill="#FD6F8D"/>
<path opacity="0.5" d="M282.021 229.57L280.22 228.756L279.328 226.996L284.479 221.605L286.283 222.418L287.174 224.182L282.021 229.57Z" fill="#FD6F8D"/>
<path opacity="0.5" d="M342.356 180.359L340.39 180.174L338.975 178.791L342.107 172.028L344.074 172.213L345.486 173.593L342.356 180.359Z" fill="#FD6F8D"/>
<path opacity="0.5" d="M298.43 206.908L296.463 206.723L295.048 205.345L298.178 198.578L300.145 198.763L301.56 200.142L298.43 206.908Z" fill="#FD6F8D"/>
<path opacity="0.1" d="M277.961 244.293L272.052 249.182C271.814 249.38 271.531 249.517 271.228 249.581L271.099 249.607L314.351 298.3L271.099 249.607L263.429 251.237C263.09 251.31 262.776 251.473 262.523 251.71C262.269 251.947 262.084 252.248 261.988 252.582C261.892 252.915 261.888 253.269 261.976 253.604C262.065 253.94 262.243 254.245 262.491 254.488L307.269 297.526C307.579 297.823 307.98 298.008 308.408 298.049C310.305 298.235 316.085 298.624 323.955 297.605L278.418 243.98C278.251 244.062 278.097 244.167 277.961 244.293Z" fill="black"/>
<path opacity="0.1" d="M370.254 190.789L364.472 196.268C364.273 196.457 364.037 196.601 363.778 196.691L356.786 199.081C356.571 199.156 356.371 199.269 356.196 199.414L379.037 265.729L356.192 199.42C356.036 199.548 355.901 199.701 355.793 199.871L350.544 208.113C350.305 208.488 349.942 208.768 349.518 208.906L374.35 271.322C378.001 267.295 381.299 262.962 384.208 258.371L364.855 195.9L384.195 258.355C385.149 256.857 386.086 255.302 387.006 253.689C387.241 253.272 387.311 252.783 387.204 252.317L373.439 191.729C373.36 191.402 373.196 191.102 372.964 190.858C372.732 190.615 372.44 190.437 372.117 190.342C371.794 190.246 371.453 190.238 371.125 190.316C370.798 190.395 370.498 190.558 370.254 190.789Z" fill="black"/>
<path d="M349.434 208.93L340.224 211.467C340.047 211.517 339.878 211.591 339.723 211.688L368.534 277.139C370.505 275.35 372.448 273.408 374.361 271.315L349.53 208.899L349.434 208.93Z" fill="#4D4981"/>
<g opacity="0.5">
<path opacity="0.5" d="M271.394 249.911L271.23 250.057L314.475 298.738L314.64 298.592L271.394 249.911Z" fill="white"/>
<path opacity="0.5" d="M289.898 242.699L289.724 242.834L331.317 296.793L331.491 296.659L289.898 242.699Z" fill="white"/>
<path opacity="0.5" d="M278.675 244.271L278.508 244.414L324.089 298.094L324.257 297.951L278.675 244.271Z" fill="white"/>
<path opacity="0.5" d="M298.178 235.531L297.997 235.656L338.654 294.844L338.835 294.719L298.178 235.531Z" fill="white"/>
<path opacity="0.5" d="M309.807 231.849L309.619 231.963L345.95 292.152L346.138 292.038L309.807 231.849Z" fill="white"/>
<path opacity="0.5" d="M318.989 224.763L318.798 224.872L354.804 287.727L354.995 287.618L318.989 224.763Z" fill="white"/>
<path opacity="0.5" d="M331.263 221.405L362.555 282.593L362.751 282.493L331.459 221.305L331.263 221.405Z" fill="white"/>
<path opacity="0.5" d="M339.813 212.029L368.725 277.843L368.926 277.755L340.014 211.94L339.813 212.029Z" fill="white"/>
<path opacity="0.5" d="M347.71 208.728L373.019 271.511L373.223 271.429L347.914 208.646L347.71 208.728Z" fill="white"/>
<path opacity="0.5" d="M356.254 199.702L379.112 266.139L379.32 266.068L356.462 199.63L356.254 199.702Z" fill="white"/>
</g>
<path d="M58.9233 114.952C58.9233 114.952 43.158 108.15 28.9392 121.166C14.7204 134.182 -19.9854 127.957 -19.9854 127.957C-19.9854 127.957 -19.8807 128.129 -19.685 128.449C-6.38804 149.999 24.69 150.985 39.2633 130.279C44.683 122.586 51.7131 115.237 58.9233 114.952Z" fill="#F98826"/>
<path d="M58.9233 114.952C58.9233 114.952 42.5677 114.088 33.8074 124.929C25.0472 135.769 -8.71825 143.088 -19.9813 127.964" stroke="#535461" stroke-opacity="0.7" stroke-miterlimit="10"/>
<path d="M21.2621 153.182C21.2621 153.182 18.1976 139.494 6.1919 142.904C-5.81383 146.314 -16.7725 123.356 -16.7725 123.356C-16.7725 123.356 -16.8177 123.551 -16.8903 123.915C-21.9372 148.466 -9.90328 165.239 5.95705 155.69C11.8517 152.142 18.2161 149.715 21.2621 153.182Z" fill="#F98826"/>
<path opacity="0.2" d="M21.2621 153.182C21.2621 153.182 18.1976 139.494 6.1919 142.904C-5.81383 146.314 -16.7725 123.356 -16.7725 123.356C-16.7725 123.356 -16.8177 123.551 -16.8903 123.915C-21.9372 148.466 -9.90328 165.239 5.95705 155.69C11.8517 152.142 18.2161 149.715 21.2621 153.182Z" fill="#F5F5F5"/>
<path d="M21.2621 153.182C21.2621 153.182 15.0969 144.06 6.33741 148.489C-2.42212 152.918 -19.5294 141.586 -16.7725 123.356" stroke="#535461" stroke-opacity="0.7" stroke-miterlimit="10"/>
<path d="M56.7664 78.2315C56.7664 78.2315 64.7787 65.7187 57.1853 55.9066C49.5918 46.0944 45.645 63.9535 45.645 63.9535C45.645 63.9535 52.4736 77.4427 56.7664 78.2315Z" fill="#F98826"/>
<path opacity="0.1" d="M56.7664 78.2315C56.7664 78.2315 64.7787 65.7187 57.1853 55.9066C49.5918 46.0944 45.645 63.9535 45.645 63.9535C45.645 63.9535 52.4736 77.4427 56.7664 78.2315Z" fill="black"/>
<path d="M36.9004 41.4045C36.9004 41.4045 37.0495 41.3136 37.3279 41.1808C39.2688 40.2535 47.5384 37.2611 56.4454 48.134C56.4454 48.134 63.8202 56.273 67.7824 55.8598L58.426 61.57C58.426 61.57 50.6865 63.6841 42.6959 55.5212C34.7052 47.3583 36.9004 41.4045 36.9004 41.4045Z" fill="#F98826"/>
<path d="M-8.46613 31.1719C-8.46613 31.1719 -16.9048 26.8801 -22.2874 36.7964C-27.67 46.7126 27.4942 118.367 27.4942 118.367C27.4942 118.367 40.758 117.089 38.9734 105.944C37.1888 94.7998 -8.46613 31.1719 -8.46613 31.1719Z" fill="#784F69"/>
<path d="M25.7895 90.9172C25.7895 90.9172 20.5318 102.353 33.2423 105.429C45.9529 108.505 49.1641 101.931 46.5454 97.3105C43.9266 92.6895 25.7895 90.9172 25.7895 90.9172Z" fill="#F98826"/>
<path opacity="0.15" d="M25.7895 90.9172C25.7895 90.9172 20.5318 102.353 33.2423 105.429C45.9529 108.505 49.1641 101.931 46.5454 97.3105C43.9266 92.6895 25.7895 90.9172 25.7895 90.9172Z" fill="black"/>
<path d="M46.6233 100.073C46.6233 100.073 59.9329 93.9557 38.9372 80.9039C17.9416 67.852 15.8994 75.7018 15.8994 75.7018C15.8994 75.7018 14.4455 89.4303 24.9313 93.4613C35.4172 97.4923 40.021 101.091 46.6233 100.073Z" fill="#F98826"/>
<path opacity="0.1" d="M46.6233 100.073C46.6233 100.073 59.9329 93.9557 38.9372 80.9039C17.9416 67.852 15.8994 75.7018 15.8994 75.7018C15.8994 75.7018 14.4455 89.4303 24.9313 93.4613C35.4172 97.4923 40.021 101.091 46.6233 100.073Z" fill="black"/>
<path d="M41.593 83.2804C41.593 83.2804 42.1881 73.085 30.5311 65.1547C18.8741 57.2244 -1.55477 52.0322 -1.55477 52.0322C-1.55477 52.0322 2.70396 72.5064 15.1145 77.3707C27.5251 82.2351 36.6475 85.6975 41.593 83.2804Z" fill="#F98826"/>
<path opacity="0.07" d="M41.593 83.2804C41.593 83.2804 42.1881 73.085 30.5311 65.1547C18.8741 57.2244 -1.55477 52.0322 -1.55477 52.0322C-1.55477 52.0322 2.70396 72.5064 15.1145 77.3707C27.5251 82.2351 36.6475 85.6975 41.593 83.2804Z" fill="black"/>
<path d="M33.3121 68.0715C33.3121 68.0715 26.4356 52.2037 18.241 47.9768C10.0463 43.7498 -9.18681 36.734 -9.18681 36.734C-9.18681 36.734 -14.6206 45.7488 -1.07443 54.1343C-1.06666 54.142 29.9178 69.7402 33.3121 68.0715Z" fill="#F98826"/>
<path opacity="0.03" d="M33.3121 68.0715C33.3121 68.0715 26.4356 52.2037 18.241 47.9768C10.0463 43.7498 -9.18681 36.734 -9.18681 36.734C-9.18681 36.734 -14.6206 45.7488 -1.07443 54.1343C-1.06666 54.142 29.9178 69.7402 33.3121 68.0715Z" fill="black"/>
<path d="M8.32941 30.751C8.32941 30.751 -9.99613 24.0799 -9.15434 37.6097C-9.15434 37.6097 18.228 50.5907 20.1065 50.0485C20.1065 50.0485 17.4614 37.8238 8.32941 30.751Z" fill="#F98826"/>
<path d="M42.3024 48.941C42.3024 48.941 38.4996 39.4246 35.6112 37.977C32.7229 36.5294 17.4841 21.7553 7.19928 32.8444L12.2991 36.9459C12.2991 36.9459 31.1871 39.2733 42.3024 48.941Z" fill="#F98826"/>
<path opacity="0.1" d="M42.3024 48.941C42.3024 48.941 38.4996 39.4246 35.6112 37.977C32.7229 36.5294 17.4841 21.7553 7.19928 32.8444L12.2991 36.9459C12.2991 36.9459 31.1871 39.2733 42.3024 48.941Z" fill="black"/>
<path d="M49.1443 64.427C49.1443 64.427 51.0987 54.8088 37.5379 44.4241C23.977 34.0395 11.712 35.3086 11.712 35.3086L22.6221 56.6382C22.6221 56.6382 46.0706 58.0756 49.1443 64.427Z" fill="#F98826"/>
<path opacity="0.07" d="M49.1443 64.427C49.1443 64.427 51.0987 54.8088 37.5379 44.4241C23.977 34.0395 11.712 35.3086 11.712 35.3086L22.6221 56.6382C22.6221 56.6382 46.0706 58.0756 49.1443 64.427Z" fill="black"/>
<path d="M54.2133 74.373C54.2133 74.373 51.451 62.6164 42.4337 57.7016C33.4165 52.7867 23.0858 55.2552 23.0858 55.2552L31.0755 67.0318C31.0755 67.0318 51.7808 67.432 54.2133 74.373Z" fill="#F98826"/>
<path opacity="0.03" d="M54.2133 74.373C54.2133 74.373 51.451 62.6164 42.4337 57.7016C33.4165 52.7867 23.0858 55.2552 23.0858 55.2552L31.0755 67.0318C31.0755 67.0318 51.7808 67.432 54.2133 74.373Z" fill="black"/>
<path d="M50.2225 94.4652C50.2225 94.4652 69.3771 87.3893 50.554 68.3821C50.554 68.3821 31.7366 62.5349 30.8274 67.9455C29.9183 73.3561 50.2225 94.4652 50.2225 94.4652Z" fill="#F98826"/>
<path opacity="0.1" d="M-21.4274 33.7119L-53.8288 69.8166C-54.0528 70.0666 -54.1861 70.3848 -54.2072 70.7199C-54.5035 75.459 -55.3925 111.073 -17.4869 130.888C-17.1554 131.06 -16.7718 131.102 -16.4109 131.006L30.5198 118.643C30.7757 118.575 31.0091 118.441 31.1964 118.254C31.3837 118.067 31.5182 117.834 31.5861 117.578C31.6541 117.322 31.6532 117.053 31.5834 116.798C31.5137 116.542 31.3776 116.31 31.189 116.124L26.7576 111.757C26.6048 111.607 26.4858 111.426 26.4088 111.226L24.3563 105.832C24.2353 105.515 24.0101 105.248 23.7178 105.075L17.1435 101.198C16.8274 101.011 16.5911 100.714 16.4794 100.364L14.2428 93.2415C14.1587 92.9717 14.0001 92.7312 13.7853 92.5477L7.05178 86.8C6.90103 86.6715 6.77722 86.5144 6.68752 86.3378C6.59782 86.1612 6.54399 85.9685 6.52914 85.771L6.05979 79.5284C6.03076 79.1331 5.84647 78.7654 5.54719 78.5056L-0.154151 73.5658C-0.297416 73.4412 -0.4157 73.2904 -0.502715 73.1216L-3.69418 66.963C-3.74235 66.8707 -3.78079 66.7737 -3.80887 66.6735L-5.33054 61.1692C-5.39503 60.9372 -5.51443 60.7242 -5.67863 60.5481L-10.9601 54.8593C-11.1585 54.6464 -11.2907 54.3804 -11.3406 54.0937L-12.6948 46.2437C-12.7422 45.9686 -12.8654 45.7122 -13.0506 45.5033L-17.0251 41.0218C-17.1858 40.8408 -17.3003 40.6236 -17.3588 40.3888L-18.8596 34.3449C-18.9267 34.0818 -19.0639 33.8419 -19.2566 33.6507C-19.4493 33.4595 -19.6903 33.3242 -19.9539 33.2592C-20.2175 33.1943 -20.4938 33.2021 -20.7533 33.2818C-21.0128 33.3615 -21.2458 33.5102 -21.4274 33.7119Z" fill="black"/>
<path d="M-21.7187 33.8897L-54.1201 69.9943C-54.3441 70.2444 -54.4774 70.5626 -54.4984 70.8976C-54.7948 75.6368 -55.6838 111.251 -17.7782 131.066C-17.4467 131.238 -17.063 131.28 -16.7022 131.184L30.2285 118.821C30.4844 118.753 30.7179 118.619 30.9052 118.432C31.0925 118.245 31.2269 118.012 31.2949 117.756C31.3629 117.5 31.3619 117.231 31.2921 116.975C31.2224 116.72 31.0863 116.488 30.8977 116.302L26.4623 111.944C26.3095 111.794 26.1905 111.613 26.1135 111.413L24.061 106.019C23.94 105.701 23.7149 105.435 23.4225 105.262L16.8482 101.385C16.5321 101.197 16.2958 100.9 16.1841 100.55L13.9557 93.426C13.8716 93.1563 13.713 92.9158 13.4982 92.7322L6.76465 86.9845C6.6139 86.856 6.49009 86.6989 6.40038 86.5223C6.31068 86.3457 6.25685 86.153 6.24201 85.9555L5.77716 79.7101C5.74813 79.3149 5.56385 78.9472 5.26457 78.6874L-0.436782 73.7476C-0.580047 73.6229 -0.698331 73.4722 -0.785346 73.3034L-3.98094 67.138C-4.02911 67.0457 -4.06754 66.9487 -4.09562 66.8485L-5.61731 61.3442C-5.68179 61.1122 -5.80119 60.8992 -5.96539 60.7231L-11.2514 55.037C-11.4498 54.8242 -11.582 54.5581 -11.6318 54.2714L-12.9861 46.4214C-13.0335 46.1463 -13.1567 45.8899 -13.3419 45.6811L-17.3164 41.1996C-17.4771 41.0186 -17.5916 40.8014 -17.6501 40.5665L-19.1509 34.5226C-19.2179 34.2596 -19.3551 34.0197 -19.5479 33.8285C-19.7406 33.6373 -19.9816 33.502 -20.2452 33.437C-20.5088 33.372 -20.785 33.3798 -21.0445 33.4595C-21.3041 33.5392 -21.5371 33.6879 -21.7187 33.8897Z" fill="#4D4981"/>
<path opacity="0.5" d="M0.387777 38.3122L0.0620442 36.8036L0.753882 35.4238L6.5306 36.156L6.85633 37.6647L6.16449 39.0444L0.387777 38.3122Z" fill="white"/>
<path opacity="0.5" d="M29.7626 101.241L29.4355 99.7298L30.1288 98.3523L35.9041 99.0822L36.2321 100.589L35.5402 101.969L29.7626 101.241Z" fill="white"/>
<path opacity="0.5" d="M35.1703 62.4288L34.8423 60.9215L35.5341 59.5418L41.3117 60.2703L41.6388 61.7812L40.9456 63.1587L35.1703 62.4288Z" fill="white"/>
<path opacity="0.5" d="M25.1492 78.1289L23.882 77.2507L23.4435 75.7706L28.161 72.3555L29.4283 73.2337L29.8668 74.7138L25.1492 78.1289Z" fill="white"/>
<path opacity="0.5" d="M24.9406 50.4295L23.4108 50.2228L22.3508 49.1003L25.0091 43.9206L26.5403 44.1295L27.6003 45.252L24.9406 50.4295Z" fill="white"/>
<path opacity="0.5" d="M12.0624 56.2841L10.5311 56.0751L9.47251 54.9549L12.1308 49.7752L13.6607 49.9819L14.7207 51.1044L12.0624 56.2841Z" fill="white"/>
<path opacity="0.5" d="M32.7145 92.749L31.224 92.3478L30.3159 91.0986L33.6167 86.3014L35.1086 86.7048L36.0153 87.9518L32.7145 92.749Z" fill="white"/>
<path opacity="0.5" d="M44.291 76.744L45.766 76.287L47.1983 76.8569L46.9754 82.676L45.5004 83.133L44.0658 82.5645L44.291 76.744Z" fill="white"/>
<path opacity="0.5" d="M15.5386 33.8812L15.2129 32.3726L15.9047 30.9929L21.6814 31.7251L22.0094 33.2323L21.3176 34.6121L15.5386 33.8812Z" fill="#FD6F8D"/>
<path opacity="0.5" d="M32.4004 45.0898L33.4946 44.0037L35.0317 43.8465L37.5219 49.1099L36.4255 50.1974L34.8884 50.3545L32.4004 45.0898Z" fill="#FD6F8D"/>
<path opacity="0.5" d="M54.3057 64.5928L55.7496 64.0493L57.2162 64.5332L57.3354 70.3543L55.8915 70.8978L54.4248 70.4139L54.3057 64.5928Z" fill="#FD6F8D"/>
<path opacity="0.5" d="M54.9892 51.0338L56.0668 52.1393L56.2086 53.6766L50.9194 56.1143L49.8441 55.0074L49.7023 53.4702L54.9892 51.0338Z" fill="#FD6F8D"/>
<path opacity="0.5" d="M10.6462 65.9922L11.7426 64.9047L13.2784 64.7453L15.7686 70.0087L14.6721 71.0962L13.1364 71.2556L10.6462 65.9922Z" fill="#FD6F8D"/>
<path opacity="0.5" d="M-1.4437 48.2892L-0.855654 46.8613L0.49422 46.118L4.84025 49.9948L4.25358 51.425L2.90007 52.1673L-1.4437 48.2892Z" fill="#FD6F8D"/>
<path opacity="0.5" d="M38.5841 94.0752L38.6759 92.5348L39.718 91.3938L45.0816 93.6579L44.9898 95.1982L43.95 96.3379L38.5841 94.0752Z" fill="#FD6F8D"/>
<path opacity="0.5" d="M16.6858 60.4935L16.7776 58.9532L17.816 57.8112L23.1819 60.0739L23.0901 61.6143L22.0517 62.7562L16.6858 60.4935Z" fill="#FD6F8D"/>
<path opacity="0.1" d="M31.1872 116.132L26.7558 111.765C26.603 111.615 26.4841 111.434 26.4071 111.234L24.3545 105.84C24.2902 105.674 24.1969 105.521 24.079 105.388L-27.08 124.989L24.074 105.385C23.9696 105.267 23.8473 105.166 23.7115 105.085L17.1372 101.208C16.8378 101.031 16.6093 100.755 16.4908 100.428L-31.5707 121.48C-28.3297 124.223 -24.8592 126.682 -21.1973 128.83L27.0533 112.054L-21.1851 128.82C-19.9907 129.524 -18.7516 130.214 -17.4678 130.889C-17.1364 131.061 -16.7527 131.103 -16.3918 131.007L30.5388 118.644C30.7918 118.573 31.0217 118.437 31.2056 118.249C31.3894 118.061 31.5208 117.829 31.5864 117.574C31.6521 117.32 31.6498 117.053 31.5797 116.8C31.5096 116.546 31.3743 116.316 31.1872 116.132Z" fill="black"/>
<path d="M16.4699 100.364L14.2428 93.2415C14.1997 93.1047 14.1372 92.9749 14.0571 92.8559L-36.2671 117.095C-34.8179 118.586 -33.2505 120.051 -31.5652 121.489L16.4963 100.437L16.4699 100.364Z" fill="#4D4981"/>
<g opacity="0.5">
<path opacity="0.5" d="M3.29661 77.0195L3.2061 76.8733L-44.8995 106.66L-44.809 106.806L3.29661 77.0195Z" fill="white"/>
<path opacity="0.5" d="M6.24559 86.5111L-40.6849 112.574L-40.6015 112.724L6.32906 86.6614L6.24559 86.5111Z" fill="white"/>
<path opacity="0.5" d="M13.7935 92.9352L-36.8121 117.263L-36.7377 117.418L13.868 93.0902L13.7935 92.9352Z" fill="white"/>
<path opacity="0.5" d="M16.5813 99.0124L-31.7543 120.446L-31.6847 120.603L16.6509 99.1693L16.5813 99.0124Z" fill="white"/>
<path opacity="0.5" d="M23.8558 105.441L-27.3979 125.059L-27.3364 125.22L23.9172 105.602L23.8558 105.441Z" fill="white"/>
<path opacity="0.5" d="M26.7293 112.139L-21.512 128.943L-21.4554 129.105L26.7858 112.301L26.7293 112.139Z" fill="white"/>
</g>
<path d="M384.985 41.4476L418.68 112.723L460.466 201.106L386.229 238.501L332.16 137.524L302.863 82.8141L384.985 41.4476Z" fill="#E6E6E6"/>
<path d="M329.988 22.2014L319.476 27.4963L389.634 166.774L400.145 161.479L329.988 22.2014Z" fill="#F98826"/>
<path d="M406.445 97.1322L454.851 198.178L387.185 232.263L325.812 116.224C331.046 111.441 337.209 107.787 343.917 105.49C350.625 103.192 357.734 102.301 364.801 102.872C379.475 103.864 393.989 101.065 406.445 97.1322Z" fill="#3F3D56"/>
<path d="M359.215 135.043L349.569 139.902L354.428 149.547L364.073 144.689L359.215 135.043Z" fill="#E6E6E6"/>
<path d="M355.856 112.025L346.211 116.883L351.07 126.529L360.715 121.67L355.856 112.025Z" fill="#E6E6E6"/>
<path d="M338.442 99.4861C339.531 98.9378 339.969 97.6109 339.42 96.5224C338.872 95.4339 337.545 94.9959 336.457 95.5442C335.368 96.0925 334.93 97.4194 335.479 98.508C336.027 99.5965 337.354 100.034 338.442 99.4861Z" fill="#3F3D56"/>
</svg>
