<svg width="27" height="27" viewBox="0 0 14 13" fill="none" xmlns="http://www.w3.org/2000/svg">
<path d="M13.1719 2.47814C12.9624 1.99319 12.6604 1.55374 12.2828 1.18439C11.9049 0.813927 11.4593 0.519528 10.9703 0.317199C10.4632 0.106563 9.91939 -0.00125279 9.37031 1.09826e-05C8.6 1.09826e-05 7.84844 0.210948 7.19531 0.609386C7.03906 0.704698 6.89062 0.809386 6.75 0.923449C6.60938 0.809386 6.46094 0.704698 6.30469 0.609386C5.65156 0.210948 4.9 1.09826e-05 4.12969 1.09826e-05C3.575 1.09826e-05 3.0375 0.106261 2.52969 0.317199C2.03906 0.520324 1.59687 0.812511 1.21719 1.18439C0.839057 1.55333 0.536997 1.99288 0.328125 2.47814C0.110938 2.98282 0 3.51876 0 4.07032C0 4.59064 0.10625 5.13282 0.317188 5.68439C0.49375 6.14532 0.746875 6.62345 1.07031 7.10626C1.58281 7.87032 2.2875 8.6672 3.1625 9.47501C4.6125 10.8141 6.04844 11.7391 6.10938 11.7766L6.47969 12.0141C6.64375 12.1188 6.85469 12.1188 7.01875 12.0141L7.38906 11.7766C7.45 11.7375 8.88437 10.8141 10.3359 9.47501C11.2109 8.6672 11.9156 7.87032 12.4281 7.10626C12.7516 6.62345 13.0062 6.14532 13.1812 5.68439C13.3922 5.13282 13.4984 4.59064 13.4984 4.07032C13.5 3.51876 13.3891 2.98282 13.1719 2.47814V2.47814Z" fill="#2FC18C"/>
</svg>
