<svg width="683.06924" height="692.72819" xmlns="http://www.w3.org/2000/svg">
 <defs>
  <linearGradient y2="0" x2="0.5" y1="1" x1="0.5" id="ef5d85de-35d2-4357-9719-f86a6844cb01">
   <stop stop-opacity="0.25" stop-color="gray" offset="0"/>
   <stop stop-opacity="0.12" stop-color="gray" offset="0.53514"/>
   <stop stop-opacity="0.1" stop-color="gray" offset="1"/>
  </linearGradient>
 </defs>
 <title>Chef</title>
 <g>
  <title>Layer 1</title>
  <path id="svg_2" opacity="0.1" fill="#f7e4e1" d="m238.82202,22.96422c20.64135,-18.394 53.04148,-22.1428 82.53346,-20.67756c92.63364,4.60228 176.25357,49.32412 248.584,99.9096c26.18453,18.31259 51.965,38.04815 68.96182,63.26626c34.6,51.336 24.33663,122.45291 -23.77551,164.74464c-16.36911,14.38883 -36.213,25.41943 -56.58481,35.19758c-36.22189,17.386 -75.30482,31.34322 -116.41616,35.31563c-29.317,2.83276 -58.99459,0.52985 -88.14,-3.42284c-81.4302,-11.04354 -161.35963,-35.46322 -228.3522,-77.24323c-29.3826,-18.32449 -57.07736,-41.106 -69.18838,-70.7503s-4.36013,-67.20957 25.64255,-84.75625c12.40881,-7.25713 27.24506,-10.53475 41.77044,-13.61235c21.38049,-4.53006 43.104,-8.9958 62.39823,-18.20536c19.92844,-9.51227 43.52576,-27.90745 39.58,-48.962c-4.23377,-22.59095 -7.63063,-42.43135 12.98656,-60.80382z"/>
  <g stroke="null" id="svg_426">
   <path stroke="null" id="svg_381" fill="#3f3d56" d="m278.02003,426.4633a43.25986,43.25986 0 0 0 -12.76825,-8.82149l0,-91.0718a4.02639,4.02639 0 0 0 -4.02639,-4.0264l-22.54538,0a4.02639,4.02639 0 0 0 -4.0264,4.0264l0,89.32484a40.87216,40.87216 0 0 0 -28.00511,38.78101l0,195.36151a17.90253,17.90253 0 0 0 17.90253,17.90253l48.29322,0a17.81954,17.81954 0 0 0 17.81954,-17.81954l0,-193.14187a43.01984,43.01984 0 0 0 -12.64377,-30.5152z"/>
   <rect stroke="null" transform="matrix(0.58344 0 0 0.58344 -1029.02 -916.22)" id="svg_382" fill="#f79785" height="190.22222" width="144" y="2398.76327" x="2117.89965"/>
   <path stroke="null" id="svg_383" fill="#f79785" d="m267.06693,328.76698l-1.81515,0l0,-2.19696a4.02639,4.02639 0 0 0 -4.02639,-4.0264l-22.54538,0a4.02639,4.02639 0 0 0 -4.0264,4.0264l0,2.19696l-1.81515,0l0,9.33504l1.81515,0l0,47.7124l30.59817,0l0,-47.7124l1.81515,0l0,-9.33504z"/>
   <polygon stroke="null" id="svg_384" fill="#3f3d56" points="359.8009442090988,606.9703979492188 423.9792889356613,576.631591796875 430.9805096387863,568.4634399414062 433.8977459669113,571.9641723632812 426.31309020519257,578.9653930664062 367.96909606456757,616.3055419921875 359.8009442090988,606.9703979492188 "/>
   <circle stroke="null" transform="matrix(0.58344 0 0 0.58344 -1029.02 -916.22)" id="svg_385" fill="#f79785" r="33" cy="2674.70771" cx="2436.39965"/>
   <circle stroke="null" transform="matrix(0.58344 0 0 0.58344 -1029.02 -916.22)" id="svg_386" opacity="0.1" r="33" cy="2674.70771" cx="2436.39965"/>
   <circle stroke="null" transform="matrix(0.58344 0 0 0.58344 -1029.02 -916.22)" id="svg_387" fill="#f79785" r="33" cy="2696.70771" cx="2349.39965"/>
   <circle stroke="null" transform="matrix(0.58344 0 0 0.58344 -1029.02 -916.22)" id="svg_388" opacity="0.1" r="33" cy="2696.70771" cx="2349.39965"/>
   <circle stroke="null" transform="matrix(0.58344 0 0 0.58344 -1029.02 -916.22)" id="svg_389" fill="#f79785" r="33" cy="2671.70771" cx="2280.39965"/>
   <circle stroke="null" transform="matrix(0.58344 0 0 0.58344 -1029.02 -916.22)" id="svg_390" fill="#f79785" r="33" cy="2650.20771" cx="2291.89965"/>
   <circle stroke="null" transform="matrix(0.58344 0 0 0.58344 -1029.02 -916.22)" id="svg_391" fill="#f79785" r="27" cy="2621.20771" cx="2285.89965"/>
   <circle stroke="null" transform="matrix(0.58344 0 0 0.58344 -1029.02 -916.22)" id="svg_392" fill="#f79785" r="27" cy="2671.20771" cx="2307.89965"/>
   <circle stroke="null" transform="matrix(0.58344 0 0 0.58344 -1029.02 -916.22)" id="svg_393" opacity="0.1" r="27" cy="2671.20771" cx="2307.89965"/>
   <circle stroke="null" transform="matrix(0.58344 0 0 0.58344 -1029.02 -916.22)" id="svg_394" fill="#f79785" r="24" cy="2610.20771" cx="2326.89965"/>
   <circle stroke="null" transform="matrix(0.58344 0 0 0.58344 -1029.02 -916.22)" id="svg_395" opacity="0.1" r="24" cy="2610.20771" cx="2326.89965"/>
   <circle stroke="null" transform="matrix(0.58344 0 0 0.58344 -1029.02 -916.22)" id="svg_396" fill="#f79785" r="24" cy="2710.20771" cx="2192.89965"/>
   <circle stroke="null" transform="matrix(0.58344 0 0 0.58344 -1029.02 -916.22)" id="svg_397" fill="#f79785" r="24" cy="2715.20771" cx="2228.89965"/>
   <circle stroke="null" transform="matrix(0.58344 0 0 0.58344 -1029.02 -916.22)" id="svg_398" fill="#f79785" r="24" cy="2693.20771" cx="2228.89965"/>
   <circle stroke="null" transform="matrix(0.58344 0 0 0.58344 -1029.02 -916.22)" id="svg_399" opacity="0.1" r="24" cy="2693.20771" cx="2228.89965"/>
   <circle stroke="null" transform="matrix(0.58344 0 0 0.58344 -1029.02 -916.22)" id="svg_400" fill="#f79785" r="24" cy="2674.20771" cx="2192.89965"/>
   <circle stroke="null" transform="matrix(0.58344 0 0 0.58344 -1029.02 -916.22)" id="svg_401" fill="#f79785" r="24" cy="2638.20771" cx="2248.89965"/>
   <circle stroke="null" transform="matrix(0.58344 0 0 0.58344 -1029.02 -916.22)" id="svg_402" opacity="0.1" r="24" cy="2638.20771" cx="2248.89965"/>
   <path stroke="null" id="svg_403" fill="#f79785" d="m311.95937,639.64309a19.33848,19.33848 0 0 0 -3.72627,0.36369a15.75746,15.75746 0 0 0 -23.4363,-9.43944a14.00314,14.00314 0 1 0 -7.21778,16.68807a15.67936,15.67936 0 0 0 2.88073,6.29747a15.75292,15.75292 0 0 0 21.48385,21.78929a19.25433,19.25433 0 1 0 10.01576,-35.69908z"/>
   <circle stroke="null" transform="matrix(0.58344 0 0 0.58344 -1029.02 -916.22)" id="svg_404" fill="#f79785" r="24" cy="2629.70771" cx="2271.39965"/>
   <path stroke="null" id="svg_405" fill="#f79785" d="m411.72756,598.80231a19.16311,19.16311 0 0 0 -10.72099,3.26006a19.24122,19.24122 0 0 0 -16.70068,-9.67789c-0.49114,0 -0.97629,0.02446 -1.45831,0.06061a19.25462,19.25462 0 1 0 -32.38745,-19.49367a19.25281,19.25281 0 0 0 -36.45871,8.63942c0,0.54064 0.02792,1.0745 0.07165,1.60388a15.75229,15.75229 0 1 0 0.7011,31.10474a19.25253,19.25253 0 1 0 27.71168,26.60152a19.26913,19.26913 0 0 0 15.20889,11.97017a19.25398,19.25398 0 1 0 20.54973,-11.87008a19.21806,19.21806 0 0 0 1.05661,-10.77052a19.26465,19.26465 0 0 0 15.72581,-2.5991a19.25249,19.25249 0 1 0 16.70069,-28.82914zm-88.53569,11.04084a15.6962,15.6962 0 0 0 4.46924,-9.82707a19.24608,19.24608 0 0 0 5.59382,0.82826c0.26893,0 0.5356,-0.00934 0.80194,-0.0203a19.21129,19.21129 0 0 0 0.21537,9.62814a19.28079,19.28079 0 0 0 -11.08037,-0.60904z"/>
  </g>
  <ellipse id="svg_1" opacity="0.1" fill="#f79785" ry="11.54736" rx="324" cy="676.39486" cx="325"/>
  <path id="svg_4" fill="url(#ef5d85de-35d2-4357-9719-f86a6844cb01)" d="m451.93894,260.89401c-1.411,-2.731 -8.8689,-19.70229 -8.8689,-19.70229l-12.49705,-32.382s-8.86884,-13.655 -8.86884,-16.19095s-16.1252,-12.67968 -16.1252,-12.67968s-13.10173,-3.9014 -14.10958,-4.29159s-16.52832,-5.52446 -16.52832,-5.52446s-6.11152,-8.03693 -6.98217,-5.93793l-0.00076,0.00527c-0.03179,-0.053 -0.06442,-0.09907 -0.096,-0.15356a20.75042,20.75042 0 0 1 -2.33,-7.51415c-0.03319,-0.23368 -0.06163,-0.48042 -0.09128,-0.724a29.91071,29.91071 0 0 0 13.12839,-24.62757a29.51071,29.51071 0 0 0 -0.258,-3.82816a2.684,2.684 0 0 1 0.34667,-0.18255c0.25084,-0.10894 0.18725,-0.19752 0.003,-0.29c0.06316,-0.0331 0.12618,-0.06829 0.18972,-0.09526c0.33375,-0.145 0.11091,-0.25477 -0.21214,-0.38522l0.01938,-0.00975c0.45474,-0.19758 -0.12028,-0.32846 -0.58218,-0.53738c-0.02483,-0.135 -0.04808,-0.27046 -0.07475,-0.40484a2.72261,2.72261 0 0 0 0.18516,-0.8038c0.041,0.02036 0.07841,0.04236 0.12174,0.06131a3.41427,3.41427 0 0 0 -0.0083,-1.52588a2.68373,2.68373 0 0 1 -0.10489,0.2997a2.54714,2.54714 0 0 0 -1.17337,-2.30926c-0.02312,-0.02023 -0.04864,-0.04187 -0.07227,-0.06234l0.855,-8.75135c12.60461,-0.59568 14.81591,-22.04012 11.94122,-23.23147s0,-3.77262 0,-8.9352s-9.50879,-10.92078 -9.50879,-10.92078s-3.9804,1.98564 -10.17211,-7.94234s-28.96849,-11.51646 -30.51641,-8.9352s-11.72008,5.95682 -24.98808,9.72943s-10.83557,19.45886 -8.62427,22.83436a19.26588,19.26588 0 0 1 3.09589,9.33231c0,1.98558 4.20153,10.325 4.20153,10.325c-1.32513,2.8898 2.04731,18.72054 3.0461,23.21989c-0.01571,0.1383 -0.03237,0.27611 -0.04618,0.415c-0.00848,0.0136 -0.0197,0.02513 -0.02793,0.03892a2.11907,2.11907 0 0 0 -0.129,0.22627a2.58938,2.58938 0 0 0 -0.20377,1.49241a3.11719,3.11719 0 0 0 0.22379,1.63083a29.75816,29.75816 0 0 0 10.55248,22.2022c0.01565,0.27071 0.03111,0.54326 0.04593,0.822c0.18553,3.67515 0.2903,8.02137 0.09685,12.18031c-0.01,0.21278 -0.02591,0.42114 -0.0375,0.63288a4.75934,4.75934 0 0 0 -3.373,2.65991c-1.24969,2.4033 -8.50607,6.10971 -8.50607,6.10971s-12.69861,0.58519 -13.90795,2.92609s-19.55187,10.14371 -19.55187,10.14371s-9.67507,5.65711 -8.26417,12.09448c0.73725,3.36372 -1.33241,8.58945 -3.47676,12.8149a60.8571,60.8571 0 0 0 -13.91473,-3.46959l10.2758,9.8307c-0.2153,0.33606 -0.34217,0.52622 -0.34217,0.52622l-5.84542,20.67761s-2.01563,7.21769 -4.03127,8.97333s1.81408,17.75152 1.81408,17.75152s-2.21726,11.31422 -4.03133,14.24031s2.82192,10.14371 2.82192,10.14371l9.272,21.06775l24.59092,6.2423s1.63868,0.34672 4.28674,0.91383q-0.12486,0.75522 -0.25547,1.505c-1.18514,6.71053 -2.74129,12.88258 -4.63594,14.5524c-4.636,4.09653 -4.43445,22.43325 -4.43445,22.43325l0.20156,25.9446s1.61252,31.99177 0.80623,33.16222c-0.5089,0.73875 0.51238,1.94353 3.207,3.02619c-0.07709,0.48153 -0.15266,0.97005 -0.22386,1.46825c-0.75783,5.306 -1.0964,11.361 0.64509,14.0374a10.66458,10.66458 0 0 1 1.20934,4.68173c0,2.536 3.82978,7.80288 3.82978,7.80288s-3.02349,21.653 2.01563,29.06568s9.272,20.87274 6.8532,23.99389c0,0 -4.23283,9.16839 -2.21719,13.26487s0,6.43736 -2.62037,7.41275s-2.39455,8.97332 -2.39455,8.97332l4.81336,38.039s2.62031,7.80288 0.40312,10.53391s-2.2172,16.386 1.2094,21.06774s-4.83756,13.26486 -4.83756,13.26486s-5.03912,7.21769 3.02348,9.55858c0,0 1.61253,0.39013 -1.411,3.51128s-3.62816,7.02256 -1.61252,8.38807a9.22492,9.22492 0 0 0 1.3074,0.6495c-0.07481,0.46235 -0.15583,0.9413 -0.25116,1.4495c-0.77411,4.073 -2.23334,9.379 -4.886,11.94619a85.15983,85.15983 0 0 0 -13.19845,17.58766c-2.76548,5.24357 -3.97489,10.15156 -0.91106,12.4534c7.25632,5.46205 16.52833,7.21769 21.97056,5.07186s13.10173,-8.7782 13.10173,-8.7782l1.81407,-7.60781s-1.20934,-4.68173 4.83757,-6.43737s11.69082,-7.99794 11.69082,-7.99794l0,-10.11231a42.85335,42.85335 0 0 0 4.23283,-2.76235s2.82192,-9.94871 0,-13.26492s-3.82972,-4.48667 -0.20156,-6.63244s4.12,-6.82749 1.45936,-10.924c-2.66877,-4.09653 -6.90159,-10.14371 -3.27344,-18.72691s4.95855,-34.91786 4.95855,-34.91786s-1.69316,-17.94665 0,-22.04312s-1.93506,-12.28954 -1.93506,-12.28954s1.2094,-10.14378 3.4266,-14.8255s4.03133,-29.45582 4.03133,-29.45582s4.03127,-10.5339 4.03127,-17.36139s-6.24853,-23.21358 3.02348,-27.50518c0,0 4.03128,3.51128 2.41875,17.55647c0,0 4.636,16.38607 4.636,21.45793s3.4266,23.40863 3.4266,23.40863s0.40318,5.85218 1.81408,7.998s0,7.99794 0,7.99794s5.24074,4.87679 3.82977,7.99794s0.24191,10.15935 0.24191,10.15935l-1.24976,43.68049s-3.62815,18.72691 4.83757,30.04113c0,0 -3.02349,16.58108 -4.83757,17.75152s6.65165,11.31416 6.65165,11.31416s-2.34648,6.57138 2.41881,6.89352l0,10.858a23.198,23.198 0 0 0 6.65164,7.41275c4.43445,3.12115 2.62031,13.85012 2.62031,13.85012s5.64385,13.65505 20.55965,10.729s16.9315,-4.2916 16.12521,-9.16839c-0.29024,-1.779 -0.93519,-4.95483 -1.86247,-8.55978c-1.60448,-6.26566 -4.06351,-13.8267 -7.00636,-17.55646c-4.636,-5.87553 -8.46578,-18.16507 -8.46578,-18.16507s-1.81408,-4.09654 0,-5.462s1.00785,-3.90141 1.00785,-3.90141s1.76568,-5.07185 0.17736,-8.193s3.04768,-9.55858 3.04768,-9.55858l-1.411,-30.04107l1.411,-43.69606s-6.24853,-7.21769 -3.62816,-11.50929s-3.02348,-10.33877 -3.02348,-10.33877s-0.60467,-0.19513 1.00785,-5.07192a12.15575,12.15575 0 0 0 -0.40318,-8.7782s-3.4266,-12.09448 2.62037,-21.26287c0,0 2.62037,-12.09442 3.4266,-18.33672c0.55628,-4.33843 4.03938,-20.545 6.11151,-30.02556q0.17568,-0.80367 0.33686,-1.53887c2.98478,0.16306 5.24239,0.35292 5.24239,0.35292s-4.636,-32.1869 0,-38.81933s-3.62816,-57.35118 -3.62816,-57.35118s-1.97528,-8.864 -3.19273,-17.9076c-0.06968,-0.51525 -0.1329,-1.03007 -0.19706,-1.54488a97.70834,97.70834 0 0 1 11.25084,-0.24975c9.67512,0.58519 19.14869,-3.12115 19.35025,-6.82756s5.44223,-18.33672 6.24853,-21.65293s1.41098,-14.6306 0.00002,-17.36156z"/>
  <path id="svg_5" fill="#4c495a" d="m334.32562,637.21001l0,18.06259s-5.4382,6.21509 -11.26485,7.96308s-4.66131,6.40931 -4.66131,6.40931l-1.748,7.57464s-7.38041,6.60353 -12.62439,8.74s-14.17817,0.38845 -21.17014,-5.04976c-2.9522,-2.29182 -1.78687,-7.17841 0.87789,-12.39911a84.5679,84.5679 0 0 1 12.71761,-17.511c2.556,-2.556 3.9621,-7.8388 4.708,-11.89412c0.55156,-3.03765 0.73022,-5.39159 0.73022,-5.39159l32.43497,3.49596z"/>
  <path id="svg_6" opacity="0.1" d="m334.32562,650.68896l0,4.58364s-5.4382,6.21509 -11.26485,7.96308s-4.66131,6.40931 -4.66131,6.40931l-1.748,7.57464s-7.38041,6.60353 -12.62439,8.74s-14.17817,0.38845 -21.17014,-5.04976c-2.9522,-2.29182 -1.78687,-7.17841 0.87789,-12.39911c-0.12433,5.48481 1.49943,11.64551 9.41585,11.428a40.10393,40.10393 0 0 0 23.50079,-8.54575s-0.19422,-12.81861 8.74,-15.73193a27.21311,27.21311 0 0 0 8.93416,-4.97212z"/>
  <path id="svg_7" fill="#4c495a" d="m405.41062,683.43471c-14.37239,2.91333 -19.81059,-10.68218 -19.81059,-10.68218s1.748,-10.68218 -2.52488,-13.78972a22.92017,22.92017 0 0 1 -6.40931,-7.38042l0,-17.86837l17.47993,-12.43017l9.46242,8.3748l0.6371,0.55939s3.69021,12.23595 8.1573,18.08587c2.83565,3.71354 5.2051,11.24156 6.75109,17.47993c0.89354,3.58921 1.515,6.75114 1.79466,8.52247c0.77691,4.85553 -1.1653,6.21508 -15.53772,9.1284z"/>
  <path id="svg_8" opacity="0.1" d="m405.41062,683.43471c-14.37239,2.91333 -19.81059,-10.68218 -19.81059,-10.68218s1.748,-10.68218 -2.52488,-13.78972a22.92017,22.92017 0 0 1 -6.40931,-7.38042l0,-6.92207c2.77354,2.92887 8.002,8.60013 9.12841,11.00073c1.55377,3.30176 1.748,15.34349 8.93419,17.47993s21.17014,4.07865 22.33547,-1.35955a30.3,30.3 0 0 1 2.08977,-5.99759c0.89354,3.58921 1.515,6.75114 1.79466,8.52247c0.77691,4.85553 -1.1653,6.21508 -15.53772,9.1284z"/>
  <path id="svg_9" opacity="0.1" d="m301.89062,633.71402l32.435,3.496l0,9.54791c-3.65911,2.16749 -8.90308,4.46709 -11.84751,2.10537c-4.35054,-3.48048 -17.28571,-7.901 -21.3177,-9.75768c0.55154,-3.03766 0.73021,-5.3916 0.73021,-5.3916z"/>
  <path id="svg_10" opacity="0.1" d="m404.24532,631.77181c-4.46709,-1.55377 -12.43017,5.244 -22.91813,9.51685a10.91744,10.91744 0 0 1 -4.66132,1.041l0,-8.61564l17.47993,-12.43017l9.46242,8.3748a11.81351,11.81351 0 0 0 0.6371,2.11316z"/>
  <path id="svg_11" fill="#5f5d7e" d="m415.70439,417.93399s-0.61377,2.85893 -1.49156,7.00747c-1.99665,9.43919 -5.35285,25.57512 -5.88886,29.8946c-0.77689,6.21509 -3.30176,18.25682 -3.30176,18.25682c-5.82665,9.12841 -2.52488,21.17014 -2.52488,21.17014a12.46759,12.46759 0 0 1 0.38844,8.74c-1.55377,4.85554 -0.97111,5.04976 -0.97111,5.04976s5.4382,6.02087 2.91332,10.29374s3.496,11.45906 3.496,11.45906l-1.35955,43.50561l1.35955,29.9101s-4.46709,6.40931 -2.93665,9.51685s-0.17089,8.15731 -0.17089,8.15731s0.77688,2.52487 -0.97111,3.88442s0,5.43821 0,5.43821c-4.46709,-1.55378 -12.43017,5.244 -22.91813,9.51685s-6.992,-5.82665 -6.992,-5.82665s-8.1573,-10.09951 -6.40931,-11.26484s4.66131,-17.67415 4.66131,-17.67415c-8.1573,-11.26485 -4.66131,-29.91011 -4.66131,-29.91011l1.20421,-43.4901s-1.59265,-7.00748 -0.2331,-10.115s-3.69021,-7.96308 -3.69021,-7.96308s1.35955,-5.82664 0,-7.96308s-1.748,-7.96308 -1.748,-7.96308s-3.30176,-18.25681 -3.30176,-23.30657s-4.46709,-21.36436 -4.46709,-21.36436c1.55377,-13.984 -2.33066,-17.47993 -2.33066,-17.47993c-8.93419,4.27287 -2.91332,20.58747 -2.91332,27.38522s-3.88443,17.28571 -3.88443,17.28571s-1.748,24.66613 -3.88443,29.32744s-3.30177,14.76083 -3.30177,14.76083s3.496,8.1573 1.86455,12.236s0,21.947 0,21.947s-1.28188,26.21989 -4.77787,34.76564s0.58267,14.56661 3.1542,18.64526c2.56367,4.07865 2.08978,8.74 -1.4062,10.8764s-2.52488,3.30176 0.19422,6.60353s0,13.20706 0,13.20706s-11.07063,8.74 -15.92616,4.85553s-20.39325,-8.93418 -22.33547,-10.29373s-1.35955,-5.244 1.55377,-8.35153s1.35955,-3.496 1.35955,-3.496c-7.76886,-2.33066 -2.91332,-9.51685 -2.91332,-9.51685s7.96308,-8.54575 4.66132,-13.20706s-3.30177,-18.25682 -1.16533,-20.97592s-0.38845,-10.488 -0.38845,-10.488l-4.638,-37.87318s-0.21755,-7.96308 2.30733,-8.93419s4.46709,-3.30176 2.52488,-7.38041s2.13643,-13.20706 2.13643,-13.20706c2.33066,-3.10755 -1.748,-16.50883 -6.60353,-23.88924s-1.94221,-28.939 -1.94221,-28.939s-3.69021,-5.244 -3.69021,-7.76886a10.88282,10.88282 0 0 0 -1.16533,-4.66131c-1.678,-2.66471 -1.35177,-8.69336 -0.62155,-13.97617c0.707,-5.11192 1.78688,-9.52463 1.78688,-9.52463l122.35956,3.10753z"/>
  <path id="svg_12" fill="#fdc2cc" d="m377.63698,197.88109l-38.26163,8.93419s-18.83948,-15.92616 -14.17816,-24.47191c1.60043,-2.93665 2.30733,-7.94757 2.54821,-13.24589c0.18644,-4.14082 0.08544,-8.46808 -0.09332,-12.12723c-0.2718,-5.29059 -0.7069,-9.1983 -0.7069,-9.1983s39.23274,-22.14124 37.87318,0a56.55407,56.55407 0 0 0 0.25644,11.06285a21.15008,21.15008 0 0 0 2.24511,7.48141c2.09756,3.73682 4.68465,3.79121 4.68465,3.79121l5.63242,27.77367z"/>
  <path id="svg_13" opacity="0.1" d="m365.0748,158.83479a30.09176,30.09176 0 0 1 -37.42272,-1.86455c-0.2718,-5.29059 -0.7069,-9.1983 -0.7069,-9.1983s39.23274,-22.14124 37.87318,0a56.55407,56.55407 0 0 0 0.25644,11.06285z"/>
  <circle id="svg_14" fill="#fdc2cc" r="30.10433" cy="133.59378" cx="347.53265"/>
  <path id="svg_15" opacity="0.1" d="m377.63698,197.88109l-38.26163,8.93419s-18.83948,-15.92616 -14.17816,-24.47191c1.60043,-2.93665 2.30733,-7.94757 2.54821,-13.24589a19.51946,19.51946 0 0 0 6.96864,11.69212c8.74,5.82664 7.38041,13.01284 7.38041,13.01284l15.73194,-0.58267c-0.9711,-6.4093 4.85554,-9.90529 6.79775,-10.68218s0.97111,-4.27287 0.97111,-4.27287l1.72466,-11.94851c2.09756,3.73682 4.68465,3.79121 4.68465,3.79121l5.63242,27.77367z"/>
  <path id="svg_16" opacity="0.1" d="m415.70439,417.93399s-0.61377,2.85893 -1.49156,7.00747c-4.22631,-0.22528 -9.81217,-0.38844 -12.29817,0.17872c-4.27287,0.97111 -21.36436,1.35955 -21.36436,1.35955l-42.34027,1.49936l0,-1.30516a124.83888,124.83888 0 0 0 -14.56661,0.97111c-7.1862,0.97111 -18.451,-0.38844 -25.63724,-1.55377a27.60533,27.60533 0 0 1 -6.44819,-1.74022c0.707,-5.11192 1.78688,-9.52463 1.78688,-9.52463l122.35952,3.10757z"/>
  <path id="svg_17" fill="#f79785" d="m412.40262,294.60336c-0.61377,3.62805 -0.16311,9.64113 0.61377,15.57655c1.17311,9.00413 3.07644,17.82954 3.07644,17.82954s7.96308,50.49758 3.496,57.10111s0,38.65007 0,38.65007s-13.40128,-1.16533 -17.67415,-0.19422s-21.36436,1.35955 -21.36436,1.35955l-42.34027,1.49938l0,-1.30516a124.83888,124.83888 0 0 0 -14.56661,0.97111c-7.1862,0.9711 -18.451,-0.38845 -25.63724,-1.55377s-10.09951,-3.496 -9.32262,-4.66132s-0.77689,-33.01765 -0.77689,-33.01765l-0.19422,-25.83145s-0.19422,-18.25682 4.27287,-22.33547c1.82566,-1.66254 3.32509,-7.80769 4.46709,-14.48894c1.63922,-9.67223 2.52488,-20.47092 2.52488,-20.47092l-29.52169,-79.04813l-0.58266,-1.55377s8.54574,-13.20706 7.18619,-19.61637s7.96308,-12.04173 7.96308,-12.04173s17.67415,-7.76886 18.83948,-10.09952s13.40128,-2.91332 13.40128,-2.91332s6.992,-3.6902 8.19618,-6.083a4.59368,4.59368 0 0 1 3.25511,-2.64916a19.56032,19.56032 0 0 0 6.99975,11.83974c8.74,5.82664 7.38041,13.01283 7.38041,13.01283l15.73194,-0.58266c-0.9711,-6.40931 4.85554,-9.90529 6.79775,-10.68218s0.97111,-4.27287 0.97111,-4.27287l1.818,-12.57779c0.83891,-2.08982 6.72776,5.91209 6.72776,5.91209s14.95506,5.11193 15.92616,5.50037s13.59551,4.27287 13.59551,4.27287s15.53771,10.09952 15.53771,12.6244s8.54575,16.12038 8.54575,16.12038s-0.101,0.54383 -0.28745,1.53821c-1.97323,10.70548 -13.6343,73.81968 -15.05606,82.1712z"/>
  <path id="svg_18" fill="#fdc2cc" d="m350.25176,263.13949s-33.60032,-8.93419 -36.90208,-11.07063s-22.72391,10.29374 0.97111,27.191c0,0 28.97437,6.02086 36.72554,0s-0.79457,-16.12037 -0.79457,-16.12037z"/>
  <path id="svg_19" opacity="0.1" d="m422.89062,209.92281l4.07865,0.19422l12.04173,32.24076s7.18619,16.89727 8.54574,19.61637s0.77689,13.98394 0,17.28571s-5.82664,17.86837 -6.02086,21.55858s-9.32263,7.38041 -18.64526,6.79775s-31.07543,2.33066 -31.07543,2.33066s-23.23131,-2.42817 -37.48474,4.85553c0,0 -9.12841,-18.83948 -8.1573,-53.99356c0,0 16.12038,-0.97111 20.199,0.58266s23.88924,6.02087 26.41411,3.69021s13.984,4.27287 13.984,4.27287a9.84326,9.84326 0 0 0 0,-8.1573c-1.94222,-4.66131 -5.244,-19.22792 -0.97111,-23.88924s17.09147,-27.38522 17.09147,-27.38522z"/>
  <path id="svg_20" opacity="0.1" d="m413.01639,310.17991c-9.64118,0.65261 -20.42436,2.0976 -20.42436,2.0976s-23.2289,-2.43165 -37.48474,4.85554c0,0 -9.12841,-18.83948 -8.1573,-53.99356c0,0 16.12038,-0.97111 20.199,0.58266s23.88924,6.02087 26.41412,3.69021s13.98394,4.27287 13.98394,4.27287a9.84322,9.84322 0 0 0 0,-8.1573c-1.94221,-4.66131 -5.244,-19.22792 -0.9711,-23.88924s17.09149,-27.38522 17.09149,-27.38522l3.7912,0.17866c-1.97322,10.70551 -13.63429,73.81971 -15.056,82.17123c-0.61379,3.62805 -0.16313,9.64113 0.61375,15.57655z"/>
  <path id="svg_21" fill="#f79785" d="m423.66747,210.69969l4.07865,0.19423l12.04173,32.24076s7.18619,16.89726 8.54574,19.61636s0.77689,13.98395 0,17.28571s-5.82664,17.86838 -6.02086,21.55858s-9.32263,7.38042 -18.64526,6.79776s-31.07544,2.33065 -31.07544,2.33065s-23.2313,-2.42817 -37.48474,4.85554c0,0 -9.12841,-18.83948 -8.1573,-53.99356c0,0 16.12038,-0.97111 20.199,0.58266s23.88924,6.02086 26.41412,3.69021s13.98394,4.27287 13.98394,4.27287a9.84322,9.84322 0 0 0 0,-8.1573c-1.94221,-4.66132 -5.244,-19.22793 -0.9711,-23.88924s17.09152,-27.38523 17.09152,-27.38523z"/>
  <rect id="svg_22" transform="rotate(-148.235 676.831 863.77)" fill="#dfe6f5" height="51.30021" width="5.70002" y="1203.48768" x="1227.50663"/>
  <ellipse id="svg_23" transform="rotate(-58.2349 -166.572 541.709)" fill="#dfe6f5" ry="11.51405" rx="16.41607" cy="874.80144" cx="406.93807"/>
  <ellipse id="svg_24" transform="rotate(-58.2349 -166.572 541.709)" opacity="0.1" ry="8.26475" rx="11.78341" cy="874.80144" cx="406.93807"/>
  <rect id="svg_25" transform="rotate(-148.235 625.781 910.307)" fill="#53526b" height="31.92013" width="5.70002" y="1290.24629" x="1157.55197"/>
  <path id="svg_26" fill="#fdc2cc" d="m340.34646,306.25665l11.84751,-3.30176s58.46066,1.55377 38.84429,-22.52969c0,0 -10.29374,-9.9053 -31.85232,-1.94222s-27.57944,8.93419 -27.57944,8.93419l8.73996,18.83948z"/>
  <circle id="svg_27" opacity="0.1" r="2.33066" cy="202.34818" cx="331.60649"/>
  <circle id="svg_28" opacity="0.1" r="2.33066" cy="200.98863" cx="371.61611"/>
  <circle id="svg_29" fill="#fff" r="2.33066" cy="201.57129" cx="331.60649"/>
  <circle id="svg_30" opacity="0.1" r="2.33066" cy="234.58894" cx="334.90826"/>
  <circle id="svg_31" opacity="0.1" r="2.33066" cy="232.25828" cx="372.78144"/>
  <circle id="svg_32" fill="#fff" r="2.33066" cy="233.81205" cx="334.90826"/>
  <circle id="svg_33" opacity="0.1" r="2.33066" cy="344.72573" cx="371.81034"/>
  <circle id="svg_34" opacity="0.1" r="2.33066" cy="344.72573" cx="341.13682"/>
  <circle id="svg_35" fill="#fff" r="2.33066" cy="343.94885" cx="371.81034"/>
  <circle id="svg_36" opacity="0.1" r="2.33066" cy="383.75101" cx="343.46748"/>
  <circle id="svg_37" opacity="0.1" r="2.33066" cy="381.42036" cx="372.78144"/>
  <circle id="svg_38" fill="#fff" r="2.33066" cy="382.97413" cx="343.46748"/>
  <circle id="svg_39" fill="#fff" r="2.33066" cy="343.94885" cx="341.13682"/>
  <circle id="svg_40" fill="#fff" r="2.33066" cy="380.64347" cx="372.78144"/>
  <circle id="svg_41" fill="#fff" r="2.33066" cy="200.21174" cx="371.61611"/>
  <circle id="svg_42" fill="#fff" r="2.33066" cy="231.48139" cx="372.78144"/>
  <path id="svg_43" opacity="0.1" d="m376.27743,313.24862s0.38844,53.21668 1.55377,62.73353c0,0 0.42303,-60.22479 -1.55377,-62.73353z"/>
  <path id="svg_44" opacity="0.1" d="m386.18272,337.91475c-0.80079,0 15.92616,62.34508 16.703,66.81218s-12.04168,-66.81218 -16.703,-66.81218z"/>
  <path id="svg_45" opacity="0.1" d="m399.38978,327.81523c0,0.58267 9.32263,33.79453 13.984,35.54253s-13.984,-35.54253 -13.984,-35.54253z"/>
  <path id="svg_46" opacity="0.1" d="m436.09762,263.13949s-19.81059,0.883 -20.39325,3.74327s20.39325,-3.74327 20.39325,-3.74327z"/>
  <path id="svg_47" opacity="0.1" d="m401.13778,516.40426s-14.17817,6.02087 -12.04173,6.40931s12.04173,-6.40931 12.04173,-6.40931z"/>
  <path id="svg_48" opacity="0.1" d="m371.81034,507.47009c-0.55217,-1.24238 9.51685,5.04975 9.51685,5.82664s-8.73997,-4.07864 -9.51685,-5.82664z"/>
  <path id="svg_49" opacity="0.1" d="m385.0174,527.86333s11.07062,-0.55859 11.8475,3.70224s-11.8475,-3.70224 -11.8475,-3.70224z"/>
  <path id="svg_50" opacity="0.1" d="m305.38662,527.83922s12.04173,-2.35476 13.01284,0s-13.01284,0 -13.01284,0z"/>
  <path id="svg_51" opacity="0.1" d="m309.85369,601.08482s0.78964,9.90529 -2.13006,12.236s2.13006,-12.236 2.13006,-12.236z"/>
  <path id="svg_52" opacity="0.1" d="m308.38294,622.06073c3.80141,0.38845 23.80622,-3.10754 23.612,0s-23.612,0 -23.612,0z"/>
  <path id="svg_53" opacity="0.1" d="m400.16667,610.019s-6.82282,-1.04863 -5.1594,3.55434l5.1594,-3.55434z"/>
  <path id="svg_54" opacity="0.1" d="m273.34006,222.35298l-3.69021,0l-5.63242,20.58748s-1.94221,7.18619 -3.88443,8.93418s1.748,17.67416 1.748,17.67416s-2.13643,11.26484 -3.88442,14.17816s2.7191,10.09952 2.7191,10.09952l8.93418,20.97591l23.695,6.21509s41.75761,9.12841 43.69983,10.488s3.6902,-0.58267 5.04975,-13.20706s5.04976,-37.0963 7.96308,-38.26163c0,0 -23.30657,2.52488 -25.24878,2.13644s-11.26485,0.19422 -11.26485,0.19422s-12.236,-0.77688 -14.17816,0.38844s2.52487,-5.64117 2.52487,-5.64117a18.73107,18.73107 0 0 0 0,-9.5081c-1.35954,-5.24402 -2.13642,-64.67578 -28.55054,-45.25364z"/>
  <path id="svg_55" opacity="0.1" d="m349.28062,282.36741c-2.91332,1.16533 -6.60353,25.63723 -7.96308,38.26163s-3.10754,14.56661 -5.04976,13.20706c-1.5771,-1.10322 -29.41288,-7.33381 -39.8154,-9.63341c1.63922,-9.67223 2.52488,-20.47092 2.52488,-20.47092l-29.52164,-79.04813l3.10754,0c26.41412,-19.42215 27.191,40.00962 28.55056,45.2536a18.73557,18.73557 0 0 1 0,9.50907s-4.4671,6.80553 -2.52488,5.6402s14.17817,-0.38844 14.17817,-0.38844s9.32263,-0.58267 11.26484,-0.19422s25.24877,-2.13644 25.24877,-2.13644z"/>
  <path id="svg_56" fill="#f79785" d="m272.56317,223.12987l-3.6902,0l-5.63243,20.58747s-1.94221,7.1862 -3.88442,8.93419s1.748,17.67415 1.748,17.67415s-2.13644,11.26485 -3.88443,14.17817s2.7191,10.09951 2.7191,10.09951l8.93419,20.97592l23.695,6.21509s41.75762,9.1284 43.69983,10.488s3.69021,-0.58266 5.04976,-13.207s5.04976,-37.0963 7.96308,-38.26163c0,0 -23.30658,2.52488 -25.24879,2.13644s-11.26484,0.19422 -11.26484,0.19422s-12.236,-0.77689 -14.17817,0.38844s2.52488,-5.64117 2.52488,-5.64117a18.73107,18.73107 0 0 0 0,-9.5081c-1.35955,-5.24408 -2.13644,-64.67585 -28.55056,-45.2537z"/>
  <path id="svg_57" opacity="0.1" d="m285.18762,293.43803s-10.68218,20.199 -12.6244,17.86838s12.6244,-17.86838 12.6244,-17.86838z"/>
  <path id="svg_58" opacity="0.1" d="m274.11695,281.93581s-9.9053,8.20046 -5.244,10.3369s5.244,-10.3369 5.244,-10.3369z"/>
  <path id="svg_59" opacity="0.1" d="m283.43962,271.87945c0.77688,0.19422 14.37238,2.89446 14.5666,4.06922s-14.5666,-4.06922 -14.5666,-4.06922z"/>
  <path id="svg_60" opacity="0.1" d="m377.72243,129.60057a2.0024,2.0024 0 0 0 -1.32845,2.08205c-0.79244,0.69922 -1.90342,-0.12428 -2.54821,-1.01772c-0.65255,-0.88566 -1.39056,-1.98105 -2.37722,-1.85677a8.53381,8.53381 0 0 0 -1.35955,0.56716c-1.55377,0.49717 -2.86676,-1.32849 -3.73686,-2.92887q-2.27234,-4.20683 -4.54477,-8.40591c-3.03765,1.76354 -6.62686,-0.08545 -9.64118,-1.91116s-6.60353,-3.68243 -9.64886,-1.91888c-4.46709,2.57926 -4.6303,11.17939 -9.26051,13.30028c-1.49166,0.68366 -3.2241,0.536 -4.607,1.4761c-1.36733,0.93223 -2.10533,2.72683 -2.71911,4.44376a4.70682,4.70682 0 0 1 -1.52266,2.50933a3.34505,3.34505 0 0 1 -1.56933,0.38071a6.73247,6.73247 0 0 1 -4.03976,-0.56715a3.41411,3.41411 0 0 1 -1.39844,-4.03982a2.11367,2.11367 0 0 1 0.12433,-0.22528a14.13716,14.13716 0 0 0 1.33622,-1.91889c0.46612,-1.23526 -0.202,-2.67248 -0.05434,-4.00875c0.24079,-2.28405 2.65689,-3.48821 3.06866,-5.73342c0.1709,-0.87789 -0.00777,-1.81789 0.15534,-2.70355a2.45774,2.45774 0 0 1 0.09332,-0.34183l-1.42176,0.97888c1.59265,-1.85677 2.39287,-4.436 3.5582,-6.689a20.59983,20.59983 0 0 1 12.57,-10.23163c5.06531,-1.476 10.418,-1.0721 15.52994,0.17872a51.1399,51.1399 0 0 1 13.82082,5.69454a13.7148,13.7148 0 0 1 4.02422,3.27071a25.19186,25.19186 0 0 1 2.38509,4.40493c1.50712,3.12309 5.62465,6.01308 2.34621,6.44814c-2.72687,0.36516 -0.24088,2.27632 1.18866,3.56592a3.70821,3.70821 0 0 1 0.82345,0.90117a3.22569,3.22569 0 0 1 -0.171,3.11532c-0.55156,0.69925 1.68597,0.83908 0.92455,1.18091z"/>
  <path id="svg_61" fill="#865a61" d="m377.72243,128.82369a2.00239,2.00239 0 0 0 -1.32845,2.08205c-0.79244,0.69921 -1.90342,-0.12429 -2.54821,-1.01772c-0.65255,-0.88566 -1.39056,-1.98105 -2.37722,-1.85677a8.53289,8.53289 0 0 0 -1.35955,0.56716c-1.55377,0.49717 -2.86676,-1.32849 -3.73686,-2.92888q-2.27234,-4.20681 -4.54477,-8.40591c-3.03765,1.76355 -6.62686,-0.08544 -9.64118,-1.91115s-6.60353,-3.68244 -9.64886,-1.91889c-4.46709,2.57927 -4.6303,11.1794 -9.26051,13.30028c-1.49166,0.68367 -3.2241,0.53606 -4.607,1.4761c-1.36733,0.93223 -2.10533,2.72683 -2.71911,4.44377a4.70683,4.70683 0 0 1 -1.52266,2.50932a3.34506,3.34506 0 0 1 -1.56933,0.38072a6.73255,6.73255 0 0 1 -4.03976,-0.56716a3.4141,3.4141 0 0 1 -1.39844,-4.03982a2.11367,2.11367 0 0 1 0.12433,-0.22528a14.13706,14.13706 0 0 0 1.33622,-1.91888c0.46612,-1.23527 -0.202,-2.67249 -0.05434,-4.00876c0.24079,-2.284 2.65689,-3.48821 3.06866,-5.73342c0.1709,-0.87788 -0.00777,-1.81789 0.15534,-2.70355a2.45812,2.45812 0 0 1 0.09332,-0.34183l-1.42176,0.97888c1.59265,-1.85676 2.39287,-4.436 3.5582,-6.689a20.59981,20.59981 0 0 1 12.57,-10.23162c5.06531,-1.47606 10.418,-1.07211 15.52994,0.17871a51.14022,51.14022 0 0 1 13.82082,5.69454a13.7148,13.7148 0 0 1 4.02422,3.27071a25.19186,25.19186 0 0 1 2.38509,4.40493c1.50712,3.1231 5.62465,6.01309 2.34621,6.44814c-2.72687,0.36516 -0.24088,2.27632 1.18866,3.56593a3.70784,3.70784 0 0 1 0.82345,0.90117a3.22569,3.22569 0 0 1 -0.171,3.11532c-0.55156,0.69924 1.68597,0.83908 0.92455,1.18091z"/>
  <path id="svg_62" opacity="0.1" d="m376.14542,123.62632l-0.31087,3.27071s-32.5981,-41.31479 -57.95557,5.3372c0,0 -0.12442,-0.56716 -0.3341,-1.52272a14.13706,14.13706 0 0 0 1.33622,-1.91888c0.46612,-1.23527 -0.202,-2.67249 -0.05434,-4.00876c0.24079,-2.284 2.65689,-3.48821 3.06866,-5.73342c0.1709,-0.87788 -0.00777,-1.81789 0.15534,-2.70355a2.45812,2.45812 0 0 1 0.09332,-0.34183l-1.42176,0.97888c1.59265,-1.85676 2.39287,-4.436 3.5582,-6.689a20.59981,20.59981 0 0 1 12.57,-10.23162c5.06531,-1.47606 10.418,-1.07211 15.52994,0.17871a51.14022,51.14022 0 0 1 13.82082,5.69454a13.7148,13.7148 0 0 1 4.02422,3.27071a25.19186,25.19186 0 0 1 2.38509,4.40493c1.50712,3.1231 5.62465,6.01309 2.34621,6.44814c-2.72691,0.36519 -0.24092,2.27635 1.18862,3.56596z"/>
  <g id="svg_63" opacity="0.1">
   <path id="svg_64" d="m376.94926,128.40055a1.57413,1.57413 0 0 0 -0.36957,1.34466c-0.79244,0.69921 -1.90343,-0.12428 -2.54821,-1.01772c-0.65256,-0.88566 -1.39056,-1.98105 -2.37722,-1.85677a8.53343,8.53343 0 0 0 -1.35955,0.56716c-1.55378,0.49717 -2.86676,-1.32849 -3.73687,-2.92887q-2.27234,-4.20683 -4.54476,-8.40591c-3.03765,1.76354 -6.62686,-0.08545 -9.64118,-1.91116s-6.60353,-3.68243 -9.64886,-1.91889c-4.4671,2.57927 -4.63031,11.1794 -9.26052,13.30029c-1.49165,0.68366 -3.22409,0.536 -4.607,1.4761c-1.36733,0.93222 -2.10533,2.72683 -2.7191,4.44376a4.70691,4.70691 0 0 1 -1.52267,2.50933a3.345,3.345 0 0 1 -1.56932,0.38071a6.73257,6.73257 0 0 1 -4.03977,-0.56716a3.63373,3.63373 0 0 1 -1.51394,-2.13567a3.49314,3.49314 0 0 0 1.51394,3.68944a6.7325,6.7325 0 0 0 4.03977,0.56716a3.345,3.345 0 0 0 1.56932,-0.38071a4.70691,4.70691 0 0 0 1.52267,-2.50933c0.61377,-1.71693 1.35177,-3.51154 2.7191,-4.44376c1.38288,-0.94005 3.11532,-0.79244 4.607,-1.4761c4.63021,-2.12089 4.79342,-10.721 9.26052,-13.30028c3.04533,-1.76355 6.63454,0.09322 9.64886,1.91888s6.60353,3.6747 9.64118,1.91116q2.27233,4.19516 4.54476,8.40591c0.87011,1.60038 2.18309,3.426 3.73687,2.92887a8.53343,8.53343 0 0 1 1.35955,-0.56716c0.98666,-0.12428 1.72466,0.97111 2.37722,1.85677c0.64478,0.89344 1.75577,1.71694 2.54821,1.01772a2.00239,2.00239 0 0 1 1.32844,-2.08205c0.60571,-0.27184 -0.68251,-0.41694 -0.95887,-0.81638z"/>
   <path id="svg_65" d="m374.40892,120.6388a2.81313,2.81313 0 0 1 0.73355,-0.18516c1.44547,-0.19181 1.45154,-0.86167 0.87911,-1.81746a2.27194,2.27194 0 0 1 -0.87911,0.26369c-1.55985,0.20887 -1.41171,0.92402 -0.73355,1.73893z"/>
   <path id="svg_66" d="m377.38512,127.14631a3.50987,3.50987 0 0 0 -0.008,-1.5192a2.2409,2.2409 0 0 1 -0.39356,0.85517c-0.24332,0.30845 0.05626,0.50793 0.40156,0.66403z"/>
   <path id="svg_67" d="m319.05742,124.9084c-0.0165,0.08881 -0.03528,0.17654 -0.045,0.26872a8.91195,8.91195 0 0 0 0.15173,2.08835a7.34919,7.34919 0 0 0 -0.10673,-2.35707z"/>
   <path id="svg_68" d="m322.21143,115.42996a11.268,11.268 0 0 1 -1.30341,1.94724l1.25391,-0.86333a8.68832,8.68832 0 0 1 0.0495,-1.08391z"/>
  </g>
  <path id="svg_69" fill="#f79785" d="m317.87731,131.45734s-4.68769,-20.95555 -3.19615,-24.31635c0,0 -4.04846,-8.30314 -4.04846,-10.28008a19.63138,19.63138 0 0 0 -2.98308,-9.29162c-2.13077,-3.36079 -4.47462,-18.97861 8.31,-22.7348s22.58616,-7.117 24.0777,-9.687s23.43846,-0.98847 29.40462,8.89623s9.80154,7.90776 9.80154,7.90776s9.16231,5.73312 9.16231,10.87316s-2.77,7.71006 0,8.89623s0.63923,22.5371 -11.50616,23.13018l-1.06538,11.26856s-32.60078,-41.31803 -57.95694,5.33773z"/>
  <path id="svg_70" opacity="0.1" d="m319.27343,68.91803s-2.81621,16.50883 2.33066,22.04414l-2.33066,-22.04414z"/>
  <path id="svg_71" opacity="0.1" d="m332.48049,65.13071s-7.18619,17.67416 -5.4382,21.073l5.4382,-21.073z"/>
  <path id="svg_72" opacity="0.1" d="m338.69562,59.49829s-4.85554,23.01524 -2.52488,24.86035l2.52488,-24.86035z"/>
  <path id="svg_73" opacity="0.1" d="m347.0471,65.71338s-6.02086,14.76083 -3.59309,16.80015l3.59309,-16.80015z"/>
  <path id="svg_74" opacity="0.1" d="m358.40906,67.46137s-7.08909,12.04173 -5.63243,14.17817l5.63243,-14.17817z"/>
  <path id="svg_75" opacity="0.1" d="m372.97567,79.21177s-7.57464,2.03933 -6.02087,4.46709l6.02087,-4.46709z"/>
  <path id="svg_76" opacity="0.1" d="m380.16186,91.73909s-6.79775,3.30177 -5.53531,5.04976l5.53531,-5.04976z"/>
  <path id="svg_77" opacity="0.1" d="m314.68116,107.14099s43.41853,-17.63619 62.21847,7.71006c-0.00001,0.00004 -22.81958,-19.40202 -62.21847,-7.71006z"/>
  <polygon id="svg_78" fill="#53526b" points="298.991 252.052 305.041 245.932 322.146 262.84 316.096 268.961 300.365 253.411 298.991 252.052"/>
  <path id="svg_79" fill="#dfe6f5" d="m259.30129,212.81809s26.47922,2.25328 51.124,29.99265l-10.27179,10.391l-40.85221,-40.38365z"/>
  <path id="svg_80" fill="#fdc2cc" d="m338.72437,262.41685s-25.45044,-9.27767 -27.95135,-11.49625s-17.21215,10.68949 0.73556,28.23639c0,0 21.94654,6.25234 27.81764,0s-0.60185,-16.74014 -0.60185,-16.74014z"/>

 </g>
</svg>