<?xml version="1.0" encoding="UTF-8"?>
<svg xmlns="http://www.w3.org/2000/svg" xmlns:xlink="http://www.w3.org/1999/xlink" width="40px" height="40px" viewBox="0 0 75 74.999997" version="1.2">
<defs>
<clipPath id="clip1">
  <path d="M 9.402344 1.066406 L 64 1.066406 L 64 73.816406 L 9.402344 73.816406 Z M 9.402344 1.066406 "/>
</clipPath>
</defs>
<g id="surface1">
<path style=" stroke:none;fill-rule:nonzero;fill:rgb(100%,100%,100%);fill-opacity:1;" d="M 39.050781 28.617188 L 43.964844 28.617188 C 44.507812 28.617188 44.949219 28.179688 44.949219 27.636719 C 44.949219 27.09375 44.507812 26.65625 43.964844 26.65625 L 39.050781 26.65625 C 38.507812 26.65625 38.066406 27.09375 38.066406 27.636719 C 38.066406 28.179688 38.507812 28.617188 39.050781 28.617188 Z M 39.050781 28.617188 "/>
<g clip-path="url(#clip1)" clip-rule="nonzero">
<path style=" stroke:none;fill-rule:nonzero;fill:rgb(100%,100%,100%);fill-opacity:1;" d="M 60.386719 11.257812 C 57.828125 8.699219 54.167969 7.234375 50.355469 7.234375 C 46.539062 7.234375 42.882812 8.699219 40.320312 11.257812 C 39.941406 11.632812 39.9375 12.246094 40.308594 12.632812 L 44.414062 16.851562 L 24.886719 16.851562 L 23.300781 8.820312 C 23.246094 8.542969 23.078125 8.304688 22.832031 8.160156 L 11.035156 1.296875 C 10.566406 1.027344 9.964844 1.183594 9.691406 1.652344 C 9.417969 2.121094 9.574219 2.71875 10.046875 2.992188 L 21.457031 9.628906 L 22.882812 16.851562 L 20.371094 16.851562 C 20.105469 16.851562 19.847656 16.960938 19.664062 17.152344 C 19.476562 17.347656 19.378906 17.605469 19.390625 17.871094 L 21.355469 67.835938 C 21.355469 70.261719 22.550781 72.019531 24.816406 72.914062 C 26.96875 73.761719 29.738281 73.75 32.152344 73.722656 L 42.980469 73.71875 L 44.988281 73.730469 C 47.722656 73.730469 52.8125 73.730469 52.8125 67.875 L 54.429688 26.714844 L 56.046875 28.328125 L 58.015625 30.289062 C 58.199219 30.476562 58.449219 30.578125 58.710938 30.578125 C 58.972656 30.578125 59.222656 30.476562 59.40625 30.289062 C 65.125 24.585938 65.546875 16.402344 60.386719 11.257812 Z M 54.777344 18.238281 L 57.683594 15.339844 C 58.726562 16.667969 59.253906 18.195312 59.285156 19.792969 L 54.777344 19.792969 Z M 53.386719 16.851562 L 50.847656 16.851562 L 50.847656 11.921875 C 52.855469 12.03125 54.777344 12.746094 56.296875 13.953125 Z M 48.878906 16.851562 L 47.15625 16.851562 L 44.390625 13.960938 C 45.679688 12.917969 47.222656 12.253906 48.878906 12.007812 Z M 46.734375 18.8125 L 52.773438 18.8125 L 52.464844 26.65625 L 47.898438 26.65625 C 47.355469 26.65625 46.914062 27.09375 46.914062 27.636719 C 46.914062 28.179688 47.355469 28.617188 47.898438 28.617188 L 52.386719 28.617188 L 50.875 67.125 C 49.320312 67.609375 44.699219 68.816406 37.082031 68.816406 C 36.394531 68.816406 35.738281 68.804688 35.097656 68.785156 C 35.09375 68.730469 35.109375 68.683594 35.097656 68.625 L 27.207031 28.617188 L 35.117188 28.617188 C 35.660156 28.617188 36.101562 28.179688 36.101562 27.636719 C 36.101562 27.09375 35.660156 26.65625 35.117188 26.65625 L 26.820312 26.65625 L 25.273438 18.8125 Z M 23.292969 67.125 L 21.777344 28.617188 L 25.203125 28.617188 L 33.109375 68.695312 C 27.84375 68.382812 24.550781 67.519531 23.292969 67.125 Z M 23.269531 18.8125 L 24.816406 26.65625 L 21.703125 26.65625 L 21.394531 18.8125 Z M 44.988281 71.769531 L 33.152344 71.757812 L 32.136719 71.761719 C 30.003906 71.785156 27.375 71.8125 25.539062 71.089844 C 24.515625 70.683594 23.875 70.09375 23.558594 69.25 C 25.761719 69.851562 30.257812 70.777344 37.082031 70.777344 C 44.011719 70.777344 48.53125 69.824219 50.695312 69.222656 C 50.1875 71.347656 48.328125 71.769531 44.988281 71.769531 Z M 54.777344 24.289062 L 54.777344 21.753906 L 59.085938 21.753906 C 58.730469 23.28125 57.941406 24.8125 56.71875 26.226562 Z M 58.6875 28.1875 L 58.105469 27.609375 C 62.136719 23.027344 62.320312 17.105469 58.421875 13.214844 C 56.332031 11.128906 53.375 9.933594 50.3125 9.933594 C 47.585938 9.933594 45.023438 10.867188 42.996094 12.574219 L 42.425781 11.988281 C 44.5625 10.203125 47.398438 9.195312 50.355469 9.195312 C 53.652344 9.195312 56.800781 10.449219 59 12.640625 C 63.15625 16.789062 62.972656 23.328125 58.6875 28.1875 Z M 58.6875 28.1875 "/>
</g>
<path style=" stroke:none;fill-rule:nonzero;fill:rgb(100%,100%,100%);fill-opacity:1;" d="M 42 48.226562 L 43.964844 48.226562 L 43.964844 50.1875 L 42 50.1875 Z M 42 48.226562 "/>
<path style=" stroke:none;fill-rule:nonzero;fill:rgb(100%,100%,100%);fill-opacity:1;" d="M 36.101562 51.167969 L 38.066406 51.167969 L 38.066406 53.128906 L 36.101562 53.128906 Z M 36.101562 51.167969 "/>
<path style=" stroke:none;fill-rule:nonzero;fill:rgb(100%,100%,100%);fill-opacity:1;" d="M 32.167969 47.246094 L 34.132812 47.246094 L 34.132812 49.207031 L 32.167969 49.207031 Z M 32.167969 47.246094 "/>
<path style=" stroke:none;fill-rule:nonzero;fill:rgb(100%,100%,100%);fill-opacity:1;" d="M 36.101562 38.421875 L 38.066406 38.421875 L 38.066406 40.382812 L 36.101562 40.382812 Z M 36.101562 38.421875 "/>
<path style=" stroke:none;fill-rule:nonzero;fill:rgb(100%,100%,100%);fill-opacity:1;" d="M 44.949219 34.5 L 46.914062 34.5 L 46.914062 36.460938 L 44.949219 36.460938 Z M 44.949219 34.5 "/>
<path style=" stroke:none;fill-rule:nonzero;fill:rgb(100%,100%,100%);fill-opacity:1;" d="M 30.203125 36.460938 L 32.167969 36.460938 L 32.167969 38.421875 L 30.203125 38.421875 Z M 30.203125 36.460938 "/>
<path style=" stroke:none;fill-rule:nonzero;fill:rgb(100%,100%,100%);fill-opacity:1;" d="M 26.269531 53.128906 L 28.234375 53.128906 L 28.234375 55.089844 L 26.269531 55.089844 Z M 26.269531 53.128906 "/>
<path style=" stroke:none;fill-rule:nonzero;fill:rgb(100%,100%,100%);fill-opacity:1;" d="M 44.949219 45.285156 L 46.914062 45.285156 L 46.914062 47.246094 L 44.949219 47.246094 Z M 44.949219 45.285156 "/>
<path style=" stroke:none;fill-rule:nonzero;fill:rgb(100%,100%,100%);fill-opacity:1;" d="M 41.015625 41.363281 L 42.980469 41.363281 L 42.980469 43.324219 L 41.015625 43.324219 Z M 41.015625 41.363281 "/>
<path style=" stroke:none;fill-rule:nonzero;fill:rgb(100%,100%,100%);fill-opacity:1;" d="M 38.066406 45.285156 L 40.03125 45.285156 L 40.03125 47.246094 L 38.066406 47.246094 Z M 38.066406 45.285156 "/>
</g>
</svg>
