<svg width="30" height="26" viewBox="0 0 30 26" fill="none" xmlns="http://www.w3.org/2000/svg">
<path d="M15.4531 22.7812H12.7188V16.6777L20.9219 8.47461C21.7031 7.69336 21.166 6.375 20.0918 6.375H2.17188C1.09766 6.375 0.560547 7.69336 1.3418 8.47461L9.59375 16.6777V22.7812H6.85938C5.73633 22.7812 4.90625 23.6602 4.90625 24.7344C4.90625 24.9785 5.05273 25.125 5.29688 25.125H17.0156C17.2109 25.125 17.4062 24.9785 17.4062 24.7344C17.4062 23.6602 16.5273 22.7812 15.4531 22.7812ZM22.0938 0.125C19.0176 0.125 16.4297 2.12695 15.4531 4.8125H18.041C18.8711 3.44531 20.3359 2.46875 22.0938 2.46875C24.6328 2.46875 26.7812 4.61719 26.7812 7.15625C26.7812 9.74414 24.6328 11.8438 22.0938 11.8438C21.3613 11.8438 20.7266 11.6973 20.1406 11.4531L18.4316 13.1621C19.5059 13.7969 20.7266 14.1875 22.0938 14.1875C25.9512 14.1875 29.125 11.0625 29.125 7.15625C29.125 3.29883 25.9512 0.125 22.0938 0.125Z" fill="white"/>
</svg>
