<svg width="27" height="38" viewBox="0 0 27 38" fill="none" xmlns="http://www.w3.org/2000/svg">
<path d="M0.89 26.75H2.71C3.44333 26.75 4.06333 26.86 4.57 27.08C5.07667 27.3 5.48667 27.59 5.8 27.95C6.12 28.3033 6.35 28.7033 6.49 29.15C6.63667 29.59 6.71 30.03 6.71 30.47C6.71 31.01 6.61333 31.5 6.42 31.94C6.22667 32.3733 5.96333 32.7433 5.63 33.05C5.29667 33.3567 4.91 33.5933 4.47 33.76C4.03 33.92 3.56333 34 3.07 34H0.89V26.75ZM2.91 32.96C3.29667 32.96 3.65333 32.9033 3.98 32.79C4.31333 32.6767 4.6 32.5133 4.84 32.3C5.08667 32.08 5.27667 31.8133 5.41 31.5C5.55 31.18 5.62 30.8133 5.62 30.4C5.62 29.96 5.54333 29.5767 5.39 29.25C5.23667 28.9233 5.03667 28.6533 4.79 28.44C4.54333 28.22 4.26333 28.06 3.95 27.96C3.64333 27.8533 3.33 27.8 3.01 27.8H1.98V32.96H2.91ZM9.87266 30.81C9.68599 30.81 9.50599 30.8367 9.33266 30.89C9.15932 30.9367 9.00266 31.01 8.86266 31.11C8.72932 31.21 8.62266 31.3367 8.54266 31.49C8.46266 31.6367 8.42266 31.8067 8.42266 32V34H7.57266V29.82H8.32266C8.33599 30.0267 8.34599 30.2167 8.35266 30.39C8.36599 30.5567 8.37932 30.7233 8.39266 30.89C8.47932 30.71 8.59266 30.5467 8.73266 30.4C8.87266 30.2533 9.02266 30.13 9.18266 30.03C9.34266 29.93 9.49932 29.8533 9.65266 29.8C9.80599 29.74 9.94266 29.71 10.0627 29.71L9.87266 30.81ZM10.5681 28.22C10.5681 28.06 10.6248 27.9267 10.7381 27.82C10.8581 27.7133 10.9848 27.66 11.1181 27.66C11.2515 27.66 11.3748 27.7133 11.4881 27.82C11.6015 27.9267 11.6581 28.06 11.6581 28.22C11.6581 28.38 11.6015 28.5133 11.4881 28.62C11.3748 28.72 11.2515 28.77 11.1181 28.77C10.9848 28.77 10.8581 28.72 10.7381 28.62C10.6248 28.5133 10.5681 28.38 10.5681 28.22ZM11.5281 34H10.6781V29.82H11.5281V34ZM12.7289 29.82H13.4789C13.4922 30.0267 13.5022 30.2167 13.5089 30.39C13.5222 30.5567 13.5356 30.7233 13.5489 30.89C13.7022 30.53 13.9189 30.2433 14.1989 30.03C14.4856 29.8167 14.8356 29.71 15.2489 29.71C15.6689 29.71 16.0056 29.8267 16.2589 30.06C16.5122 30.2933 16.6456 30.5933 16.6589 30.96V34H15.7989V31.35C15.7856 31.1367 15.7122 30.9567 15.5789 30.81C15.4456 30.6567 15.2356 30.5733 14.9489 30.56C14.7489 30.56 14.5656 30.5967 14.3989 30.67C14.2322 30.7367 14.0889 30.83 13.9689 30.95C13.8489 31.07 13.7522 31.2133 13.6789 31.38C13.6122 31.5467 13.5789 31.73 13.5789 31.93V34H12.7289V29.82ZM20.7868 29.71L21.2968 30.22C21.0435 30.4533 20.8001 30.68 20.5668 30.9C20.3401 31.12 20.1001 31.35 19.8468 31.59C20.1468 31.99 20.4401 32.3933 20.7268 32.8C21.0135 33.2 21.3035 33.6 21.5968 34H20.6168C20.3901 33.6867 20.1601 33.38 19.9268 33.08C19.7001 32.7733 19.4735 32.4633 19.2468 32.15L18.6668 32.68V34H17.8168V26.23H18.6668V31.68C19.0401 31.34 19.3968 31.0133 19.7368 30.7C20.0768 30.38 20.4268 30.05 20.7868 29.71ZM24.5706 30.19L24.1206 30.79C24.114 30.7833 24.0906 30.7667 24.0506 30.74C24.0106 30.7133 23.9573 30.6867 23.8906 30.66C23.8306 30.6333 23.7573 30.61 23.6706 30.59C23.5906 30.5633 23.5073 30.55 23.4206 30.55C23.3073 30.55 23.194 30.5767 23.0806 30.63C22.974 30.6833 22.9206 30.7833 22.9206 30.93C22.9206 31.0567 22.964 31.16 23.0506 31.24C23.144 31.32 23.2573 31.3933 23.3906 31.46C23.524 31.52 23.6673 31.5833 23.8206 31.65C23.9806 31.7167 24.1273 31.8 24.2606 31.9C24.394 31.9933 24.504 32.1133 24.5906 32.26C24.684 32.4 24.7306 32.58 24.7306 32.8C24.7306 33.1733 24.6006 33.4833 24.3406 33.73C24.0873 33.97 23.7373 34.09 23.2906 34.09C23.0306 34.09 22.774 34.0467 22.5206 33.96C22.274 33.8667 22.074 33.7333 21.9206 33.56C21.9673 33.5133 22.0173 33.4533 22.0706 33.38C22.1306 33.3067 22.1873 33.2367 22.2406 33.17C22.3006 33.1033 22.3473 33.05 22.3806 33.01C22.4206 32.9633 22.444 32.94 22.4506 32.94C22.4506 32.9467 22.474 32.9667 22.5206 33C22.574 33.0333 22.6406 33.07 22.7206 33.11C22.8006 33.1433 22.8906 33.1767 22.9906 33.21C23.0906 33.2367 23.1906 33.25 23.2906 33.25C23.4506 33.25 23.5873 33.21 23.7006 33.13C23.814 33.05 23.8706 32.9433 23.8706 32.81C23.8706 32.69 23.824 32.5967 23.7306 32.53C23.644 32.4567 23.534 32.39 23.4006 32.33C23.2673 32.27 23.1206 32.21 22.9606 32.15C22.8006 32.0833 22.654 32 22.5206 31.9C22.3873 31.8 22.274 31.6767 22.1806 31.53C22.094 31.3767 22.0506 31.18 22.0506 30.94C22.0506 30.7133 22.0906 30.5233 22.1706 30.37C22.2573 30.2167 22.364 30.0933 22.4906 30C22.624 29.9 22.7706 29.83 22.9306 29.79C23.0906 29.7433 23.244 29.72 23.3906 29.72C23.584 29.72 23.7906 29.76 24.0106 29.84C24.2306 29.92 24.4173 30.0367 24.5706 30.19Z" fill="white"/>
<path d="M15.8625 19.625H13.675V14.7422L20.2375 8.17969C20.8625 7.55469 20.4328 6.5 19.5734 6.5H5.23749C4.37811 6.5 3.94843 7.55469 4.57343 8.17969L11.175 14.7422V19.625H8.98749C8.08905 19.625 7.42499 20.3281 7.42499 21.1875C7.42499 21.3828 7.54218 21.5 7.73749 21.5H17.1125C17.2687 21.5 17.425 21.3828 17.425 21.1875C17.425 20.3281 16.7219 19.625 15.8625 19.625ZM21.175 1.5C18.7141 1.5 16.6437 3.10156 15.8625 5.25H17.9328C18.5969 4.15625 19.7687 3.375 21.175 3.375C23.2062 3.375 24.925 5.09375 24.925 7.125C24.925 9.19531 23.2062 10.875 21.175 10.875C20.5891 10.875 20.0812 10.7578 19.6125 10.5625L18.2453 11.9297C19.1047 12.4375 20.0812 12.75 21.175 12.75C24.2609 12.75 26.8 10.25 26.8 7.125C26.8 4.03906 24.2609 1.5 21.175 1.5Z" fill="white"/>
</svg>
