<svg width="11" height="14" viewBox="0 0 11 14" fill="none" xmlns="http://www.w3.org/2000/svg">
<path d="M10.587 0.988666C10.7134 0.961291 10.8242 0.886033 10.8963 0.778687C10.9683 0.671341 10.996 0.540254 10.9735 0.412938C10.951 0.285622 10.88 0.171976 10.7755 0.0958526C10.671 0.0197293 10.5411 -0.0129527 10.413 0.00466594L6.163 0.754666C6.06569 0.771883 5.97567 0.817548 5.9043 0.885892C5.83293 0.954237 5.78341 1.0422 5.762 1.13867L5.572 1.99667H0.5C0.367392 1.99667 0.240215 2.04934 0.146447 2.14311C0.0526785 2.23688 0 2.36406 0 2.49667V5.49667C0 6.0271 0.210714 6.53581 0.585786 6.91088C0.960859 7.28595 1.46957 7.49667 2 7.49667C1.99985 8.20608 2.25111 8.8926 2.70917 9.43432C3.16722 9.97604 3.80243 10.3379 4.502 10.4557C4.50078 10.4693 4.50012 10.483 4.5 10.4967V12.9967H2.5C2.36739 12.9967 2.24021 13.0493 2.14645 13.1431C2.05268 13.2369 2 13.3641 2 13.4967C2 13.6293 2.05268 13.7565 2.14645 13.8502C2.24021 13.944 2.36739 13.9967 2.5 13.9967H7.5C7.63261 13.9967 7.75979 13.944 7.85355 13.8502C7.94732 13.7565 8 13.6293 8 13.4967C8 13.3641 7.94732 13.2369 7.85355 13.1431C7.75979 13.0493 7.63261 12.9967 7.5 12.9967H5.5V10.4967C5.49988 10.483 5.49922 10.4693 5.498 10.4557C6.19757 10.3379 6.83278 9.97604 7.29083 9.43432C7.74889 8.8926 8.00015 8.20608 8 7.49667C8.53043 7.49667 9.03914 7.28595 9.41421 6.91088C9.78929 6.53581 10 6.0271 10 5.49667V2.49667C10 2.36406 9.94732 2.23688 9.85355 2.14311C9.75979 2.04934 9.63261 1.99667 9.5 1.99667H6.596L6.666 1.68067L10.587 0.988666V0.988666ZM5.349 2.99667L5.127 3.99667H1V2.99667H5.349ZM1 4.99667H4.905L4.262 7.88867C4.23591 8.01707 4.26126 8.15058 4.3326 8.26047C4.40394 8.37037 4.51557 8.44788 4.64347 8.47631C4.77137 8.50475 4.90532 8.48185 5.01651 8.41253C5.12769 8.34321 5.20723 8.23302 5.238 8.10567L5.93 4.99667H9V5.49667C9 5.76188 8.89464 6.01624 8.70711 6.20377C8.51957 6.39131 8.26522 6.49667 8 6.49667H7.5C7.36739 6.49667 7.24021 6.54934 7.14645 6.64311C7.05268 6.73688 7 6.86406 7 6.99667V7.49667C7 8.0271 6.78929 8.53581 6.41421 8.91088C6.03914 9.28595 5.53043 9.49667 5 9.49667C4.46957 9.49667 3.96086 9.28595 3.58579 8.91088C3.21071 8.53581 3 8.0271 3 7.49667V6.99667C3 6.86406 2.94732 6.73688 2.85355 6.64311C2.75979 6.54934 2.63261 6.49667 2.5 6.49667H2C1.73478 6.49667 1.48043 6.39131 1.29289 6.20377C1.10536 6.01624 1 5.76188 1 5.49667V4.99667ZM9 3.99667H6.151L6.373 2.99667H9V3.99667Z" fill="#797D80"/>
</svg>
