<svg width="31" height="38" viewBox="0 0 31 38" fill="none" xmlns="http://www.w3.org/2000/svg">
<path d="M0.89 34V26.75H5.65V27.74H1.99V29.86H5.25V30.87H1.99V32.99H5.79V34H0.89ZM7.81188 31.79C7.57854 31.4567 7.33521 31.1267 7.08188 30.8C6.83521 30.4733 6.59854 30.1467 6.37188 29.82H7.42188C7.50188 29.9533 7.57854 30.0733 7.65188 30.18C7.73188 30.2867 7.80854 30.39 7.88188 30.49C7.96188 30.59 8.03854 30.6933 8.11188 30.8C8.19188 30.9 8.27521 31.0133 8.36188 31.14C8.52854 30.8933 8.68521 30.6767 8.83188 30.49C8.97854 30.2967 9.13854 30.0733 9.31188 29.82H10.2619C10.1419 30.0067 10.0252 30.18 9.91188 30.34C9.79854 30.4933 9.68521 30.65 9.57188 30.81C9.45854 30.9633 9.34188 31.1233 9.22188 31.29C9.10854 31.45 8.98854 31.63 8.86188 31.83C8.98188 31.99 9.10854 32.1633 9.24188 32.35C9.38188 32.5367 9.52188 32.7267 9.66188 32.92C9.80188 33.1067 9.93854 33.2933 10.0719 33.48C10.2052 33.6667 10.3285 33.84 10.4419 34H9.35188C9.16521 33.74 8.98188 33.5 8.80188 33.28C8.62188 33.06 8.43854 32.8233 8.25188 32.57C8.07854 32.8233 7.90854 33.06 7.74188 33.28C7.57521 33.5 7.40521 33.74 7.23188 34H6.28188C6.53521 33.62 6.79188 33.25 7.05188 32.89C7.31188 32.5233 7.56521 32.1567 7.81188 31.79ZM14.6478 31.9C14.6478 31.7067 14.6178 31.53 14.5578 31.37C14.4978 31.2033 14.4111 31.06 14.2978 30.94C14.1845 30.82 14.0478 30.7267 13.8878 30.66C13.7278 30.5867 13.5478 30.55 13.3478 30.55C13.1478 30.55 12.9611 30.5867 12.7878 30.66C12.6211 30.7267 12.4778 30.82 12.3578 30.94C12.2378 31.06 12.1411 31.2033 12.0678 31.37C12.0011 31.53 11.9678 31.7067 11.9678 31.9C11.9678 32.0933 12.0011 32.2733 12.0678 32.44C12.1411 32.6067 12.2378 32.75 12.3578 32.87C12.4778 32.99 12.6211 33.0867 12.7878 33.16C12.9611 33.2267 13.1478 33.26 13.3478 33.26C13.5478 33.26 13.7278 33.2267 13.8878 33.16C14.0478 33.0867 14.1845 32.99 14.2978 32.87C14.4111 32.7433 14.4978 32.6 14.5578 32.44C14.6178 32.2733 14.6478 32.0933 14.6478 31.9ZM15.5778 31.92C15.5778 32.2333 15.5245 32.5233 15.4178 32.79C15.3111 33.0567 15.1611 33.2867 14.9678 33.48C14.7745 33.6733 14.5411 33.8267 14.2678 33.94C14.0011 34.0467 13.7078 34.1 13.3878 34.1C13.2211 34.1 13.0611 34.08 12.9078 34.04C12.7611 34.0067 12.6245 33.96 12.4978 33.9C12.3711 33.8333 12.2611 33.7633 12.1678 33.69C12.0745 33.61 12.0045 33.53 11.9578 33.45C11.9578 33.4833 11.9578 33.52 11.9578 33.56C11.9645 33.5933 11.9678 33.6267 11.9678 33.66V36.01H11.1078V29.82H11.9378C11.9378 29.9 11.9411 30 11.9478 30.12C11.9611 30.2333 11.9678 30.3367 11.9678 30.43C12.0211 30.35 12.0911 30.27 12.1778 30.19C12.2711 30.1033 12.3778 30.0267 12.4978 29.96C12.6245 29.8867 12.7645 29.8267 12.9178 29.78C13.0711 29.7333 13.2411 29.71 13.4278 29.71C13.7478 29.71 14.0378 29.7633 14.2978 29.87C14.5645 29.97 14.7911 30.1167 14.9778 30.31C15.1711 30.4967 15.3178 30.7267 15.4178 31C15.5245 31.2733 15.5778 31.58 15.5778 31.92ZM17.3682 34H16.5182V26.23H17.3682V34ZM18.2885 31.9C18.2885 31.6 18.3452 31.3167 18.4585 31.05C18.5785 30.7833 18.7385 30.5533 18.9385 30.36C19.1385 30.16 19.3718 30.0033 19.6385 29.89C19.9118 29.77 20.2052 29.71 20.5185 29.71C20.8318 29.71 21.1218 29.77 21.3885 29.89C21.6618 30.0033 21.8952 30.16 22.0885 30.36C22.2885 30.5533 22.4418 30.7833 22.5485 31.05C22.6618 31.3167 22.7185 31.6 22.7185 31.9C22.7185 32.2 22.6618 32.4833 22.5485 32.75C22.4418 33.0167 22.2885 33.25 22.0885 33.45C21.8952 33.65 21.6618 33.81 21.3885 33.93C21.1218 34.0433 20.8285 34.1 20.5085 34.1C20.2018 34.1 19.9118 34.0467 19.6385 33.94C19.3718 33.8333 19.1385 33.6833 18.9385 33.49C18.7385 33.2967 18.5785 33.0667 18.4585 32.8C18.3452 32.5267 18.2885 32.2267 18.2885 31.9ZM19.1385 31.91C19.1385 32.0967 19.1718 32.2733 19.2385 32.44C19.3118 32.6 19.4085 32.7433 19.5285 32.87C19.6552 32.99 19.7985 33.0867 19.9585 33.16C20.1252 33.2267 20.3018 33.26 20.4885 33.26C20.6752 33.26 20.8518 33.2267 21.0185 33.16C21.1852 33.0867 21.3285 32.99 21.4485 32.87C21.5752 32.7433 21.6752 32.6 21.7485 32.44C21.8218 32.2733 21.8585 32.0967 21.8585 31.91C21.8585 31.7233 21.8218 31.5467 21.7485 31.38C21.6752 31.2133 21.5752 31.07 21.4485 30.95C21.3285 30.8233 21.1852 30.7267 21.0185 30.66C20.8518 30.5867 20.6752 30.55 20.4885 30.55C20.3018 30.55 20.1252 30.5867 19.9585 30.66C19.7985 30.7267 19.6552 30.8233 19.5285 30.95C19.4085 31.07 19.3118 31.2133 19.2385 31.38C19.1718 31.5467 19.1385 31.7233 19.1385 31.91ZM25.9273 30.81C25.7407 30.81 25.5607 30.8367 25.3873 30.89C25.214 30.9367 25.0573 31.01 24.9173 31.11C24.784 31.21 24.6773 31.3367 24.5973 31.49C24.5173 31.6367 24.4773 31.8067 24.4773 32V34H23.6273V29.82H24.3773C24.3907 30.0267 24.4007 30.2167 24.4073 30.39C24.4207 30.5567 24.434 30.7233 24.4473 30.89C24.534 30.71 24.6473 30.5467 24.7873 30.4C24.9273 30.2533 25.0773 30.13 25.2373 30.03C25.3973 29.93 25.554 29.8533 25.7073 29.8C25.8607 29.74 25.9973 29.71 26.1173 29.71L25.9273 30.81ZM30.1947 33.51C29.9947 33.69 29.7514 33.8333 29.4647 33.94C29.178 34.0467 28.8847 34.1 28.5847 34.1C28.278 34.1 27.988 34.0433 27.7147 33.93C27.448 33.81 27.2147 33.6533 27.0147 33.46C26.8147 33.26 26.6547 33.0267 26.5347 32.76C26.4214 32.4933 26.3647 32.21 26.3647 31.91C26.3647 31.61 26.4214 31.3267 26.5347 31.06C26.6547 30.7933 26.8147 30.56 27.0147 30.36C27.2147 30.16 27.4447 30.0033 27.7047 29.89C27.9714 29.77 28.2547 29.71 28.5547 29.71C29.028 29.71 29.438 29.8533 29.7847 30.14C30.138 30.42 30.3914 30.79 30.5447 31.25C30.338 31.3233 30.1014 31.4133 29.8347 31.52C29.568 31.6267 29.2914 31.74 29.0047 31.86C28.718 31.9733 28.4314 32.0867 28.1447 32.2C27.858 32.3133 27.5914 32.4167 27.3447 32.51C27.458 32.7367 27.6214 32.92 27.8347 33.06C28.0547 33.1933 28.298 33.26 28.5647 33.26C28.7447 33.26 28.9247 33.2267 29.1047 33.16C29.2914 33.0933 29.4414 33.0033 29.5547 32.89L30.1947 33.51ZM29.4747 31.05C29.3947 30.8833 29.268 30.76 29.0947 30.68C28.9214 30.5933 28.7447 30.55 28.5647 30.55C28.3714 30.55 28.1914 30.5867 28.0247 30.66C27.8647 30.7333 27.7247 30.8333 27.6047 30.96C27.4847 31.08 27.388 31.22 27.3147 31.38C27.248 31.54 27.2147 31.7033 27.2147 31.87C27.2147 31.9033 27.2147 31.9267 27.2147 31.94C27.2214 31.9533 27.2247 31.9633 27.2247 31.97C27.398 31.9033 27.5847 31.83 27.7847 31.75C27.9914 31.6633 28.1947 31.58 28.3947 31.5C28.5947 31.4133 28.788 31.3333 28.9747 31.26C29.1614 31.18 29.328 31.11 29.4747 31.05Z" fill="white"/>
<path d="M15.2391 10.6406C14.7313 11.1094 14.7313 11.9297 15.2391 12.3984C15.7078 12.9062 16.5281 12.9062 16.9969 12.3984C17.5047 11.9297 17.5047 11.1094 16.9969 10.6406C16.5281 10.1328 15.7078 10.1328 15.2391 10.6406ZM16.1375 1.8125C10.7859 1.8125 6.45001 6.1875 6.45001 11.5C6.45001 16.8516 10.7859 21.1875 16.1375 21.1875C21.45 21.1875 25.825 16.8516 25.825 11.5C25.825 6.1875 21.45 1.8125 16.1375 1.8125ZM21.0594 7.63281L18.4813 13.2578C18.325 13.5312 18.1297 13.7266 17.8563 13.8828L12.2313 16.4609C11.5672 16.7344 10.9031 16.0703 11.1766 15.4062L13.7547 9.78125C13.9109 9.50781 14.1063 9.3125 14.3797 9.15625L20.0047 6.57812C20.6688 6.30469 21.3328 6.96875 21.0594 7.63281Z" fill="white"/>
</svg>
