<?xml version="1.0" encoding="UTF-8"?>
<svg xmlns="http://www.w3.org/2000/svg" xmlns:xlink="http://www.w3.org/1999/xlink" width="40px" height="40px" viewBox="0 0 75 74.999997" version="1.2">
<defs>
<clipPath id="clip1">
  <path d="M 1.273438 1.199219 L 74.023438 1.199219 L 74.023438 73.949219 L 1.273438 73.949219 Z M 1.273438 1.199219 "/>
</clipPath>
</defs>
<g id="surface1">
<g clip-path="url(#clip1)" clip-rule="nonzero">
<path style=" stroke:none;fill-rule:nonzero;fill:rgb(100%,100%,100%);fill-opacity:1;" d="M 37.648438 1.199219 C 17.59375 1.199219 1.273438 17.519531 1.273438 37.574219 C 1.273438 57.632812 17.59375 73.949219 37.648438 73.949219 C 57.707031 73.949219 74.023438 57.632812 74.023438 37.574219 C 74.023438 17.519531 57.707031 1.199219 37.648438 1.199219 Z M 37.648438 71.523438 C 18.929688 71.523438 3.699219 56.292969 3.699219 37.574219 C 3.699219 18.855469 18.929688 3.625 37.648438 3.625 C 56.371094 3.625 71.601562 18.855469 71.601562 37.574219 C 71.601562 56.292969 56.371094 71.523438 37.648438 71.523438 Z M 37.648438 71.523438 "/>
</g>
<path style=" stroke:none;fill-rule:nonzero;fill:rgb(100%,100%,100%);fill-opacity:1;" d="M 37.648438 6.46875 C 20.496094 6.46875 6.542969 20.421875 6.542969 37.574219 C 6.542969 54.726562 20.496094 68.683594 37.648438 68.683594 C 54.804688 68.683594 68.757812 54.726562 68.757812 37.574219 C 68.757812 20.421875 54.804688 6.46875 37.648438 6.46875 Z M 37.648438 66.257812 C 21.832031 66.257812 8.96875 53.390625 8.96875 37.574219 C 8.96875 21.757812 21.832031 8.890625 37.648438 8.890625 C 53.464844 8.890625 66.332031 21.757812 66.332031 37.574219 C 66.332031 53.390625 53.464844 66.257812 37.648438 66.257812 Z M 37.648438 66.257812 "/>
<path style=" stroke:none;fill-rule:nonzero;fill:rgb(100%,100%,100%);fill-opacity:1;" d="M 63.070312 36.363281 L 56.785156 36.363281 C 56.113281 36.363281 55.570312 36.90625 55.570312 37.574219 C 55.570312 38.246094 56.113281 38.785156 56.785156 38.785156 L 63.070312 38.785156 C 63.742188 38.785156 64.285156 38.246094 64.285156 37.574219 C 64.285156 36.90625 63.742188 36.363281 63.070312 36.363281 Z M 63.070312 36.363281 "/>
<path style=" stroke:none;fill-rule:nonzero;fill:rgb(100%,100%,100%);fill-opacity:1;" d="M 37.648438 19.652344 C 38.320312 19.652344 38.863281 19.109375 38.863281 18.441406 L 38.863281 12.152344 C 38.863281 11.484375 38.320312 10.941406 37.648438 10.941406 C 36.980469 10.941406 36.4375 11.484375 36.4375 12.152344 L 36.4375 18.441406 C 36.4375 19.109375 36.980469 19.652344 37.648438 19.652344 Z M 37.648438 19.652344 "/>
<path style=" stroke:none;fill-rule:nonzero;fill:rgb(100%,100%,100%);fill-opacity:1;" d="M 37.648438 55.496094 C 36.980469 55.496094 36.4375 56.039062 36.4375 56.707031 L 36.4375 62.996094 C 36.4375 63.667969 36.980469 64.210938 37.648438 64.210938 C 38.320312 64.210938 38.863281 63.667969 38.863281 62.996094 L 38.863281 56.707031 C 38.863281 56.039062 38.320312 55.496094 37.648438 55.496094 Z M 37.648438 55.496094 "/>
<path style=" stroke:none;fill-rule:nonzero;fill:rgb(100%,100%,100%);fill-opacity:1;" d="M 56.441406 20.484375 C 56.8125 20.003906 56.769531 19.316406 56.335938 18.886719 C 55.90625 18.457031 55.222656 18.414062 54.738281 18.785156 L 34.617188 34.324219 C 34.613281 34.328125 34.605469 34.335938 34.601562 34.339844 C 34.566406 34.371094 34.535156 34.402344 34.503906 34.433594 C 34.472656 34.464844 34.445312 34.492188 34.417969 34.523438 C 34.414062 34.53125 34.40625 34.535156 34.398438 34.542969 L 18.859375 54.664062 C 18.488281 55.144531 18.53125 55.832031 18.964844 56.261719 C 19.199219 56.496094 19.507812 56.617188 19.820312 56.617188 C 20.082031 56.617188 20.34375 56.535156 20.5625 56.363281 L 40.683594 40.824219 C 40.6875 40.820312 40.691406 40.8125 40.699219 40.808594 C 40.734375 40.78125 40.765625 40.746094 40.796875 40.714844 C 40.828125 40.683594 40.855469 40.65625 40.882812 40.625 C 40.886719 40.617188 40.894531 40.613281 40.902344 40.605469 Z M 48.75 26.472656 L 39.824219 38.035156 L 37.191406 35.402344 Z M 26.546875 48.675781 L 35.476562 37.117188 L 38.109375 39.746094 Z M 26.546875 48.675781 "/>
<path style=" stroke:none;fill-rule:nonzero;fill:rgb(100%,100%,100%);fill-opacity:1;" d="M 19.730469 37.574219 C 19.730469 36.90625 19.1875 36.363281 18.515625 36.363281 L 12.226562 36.363281 C 11.558594 36.363281 11.015625 36.90625 11.015625 37.574219 C 11.015625 38.246094 11.558594 38.785156 12.226562 38.785156 L 18.515625 38.785156 C 19.1875 38.785156 19.730469 38.246094 19.730469 37.574219 Z M 19.730469 37.574219 "/>
</g>
</svg>
