<svg width="25" height="25" viewBox="0 0 25 25" fill="none" xmlns="http://www.w3.org/2000/svg">
<path d="M10.9863 11.5508C10.3516 12.1367 10.3516 13.1621 10.9863 13.748C11.5723 14.3828 12.5977 14.3828 13.1836 13.748C13.8184 13.1621 13.8184 12.1367 13.1836 11.5508C12.5977 10.916 11.5723 10.916 10.9863 11.5508ZM12.1094 0.515625C5.41992 0.515625 0 5.98438 0 12.625C0 19.3145 5.41992 24.7344 12.1094 24.7344C18.75 24.7344 24.2188 19.3145 24.2188 12.625C24.2188 5.98438 18.75 0.515625 12.1094 0.515625ZM18.2617 7.79102L15.0391 14.8223C14.8438 15.1641 14.5996 15.4082 14.2578 15.6035L7.22656 18.8262C6.39648 19.168 5.56641 18.3379 5.9082 17.5078L9.13086 10.4766C9.32617 10.1348 9.57031 9.89062 9.91211 9.69531L16.9434 6.47266C17.7734 6.13086 18.6035 6.96094 18.2617 7.79102Z" fill="white"/>
</svg>
