<svg width="36" height="38" viewBox="0 0 36 38" fill="none" xmlns="http://www.w3.org/2000/svg">
<path d="M0.89 34V26.75H5.23V27.76H1.98V29.95H4.82V30.97H1.98V34H0.89ZM5.31 31.95C5.31 31.6433 5.36667 31.3567 5.48 31.09C5.6 30.8167 5.76 30.58 5.96 30.38C6.16 30.1733 6.39 30.01 6.65 29.89C6.91667 29.77 7.2 29.71 7.5 29.71C7.7 29.71 7.88333 29.7367 8.05 29.79C8.21667 29.8367 8.36 29.8967 8.48 29.97C8.6 30.0433 8.69667 30.12 8.77 30.2C8.84333 30.28 8.89333 30.35 8.92 30.41L8.96 29.82H9.78V34H8.92V33.47C8.88667 33.5233 8.83333 33.5867 8.76 33.66C8.68667 33.7333 8.59 33.8033 8.47 33.87C8.35667 33.93 8.22 33.9833 8.06 34.03C7.9 34.0767 7.71667 34.1 7.51 34.1C7.19 34.1 6.89333 34.0433 6.62 33.93C6.35333 33.81 6.12333 33.6533 5.93 33.46C5.73667 33.26 5.58333 33.03 5.47 32.77C5.36333 32.51 5.31 32.2367 5.31 31.95ZM6.17 31.9C6.17 32.0933 6.20333 32.2733 6.27 32.44C6.34333 32.6067 6.44 32.75 6.56 32.87C6.68 32.99 6.82333 33.0867 6.99 33.16C7.15667 33.2267 7.34 33.26 7.54 33.26C7.74 33.26 7.92333 33.2267 8.09 33.16C8.26333 33.0867 8.41 32.99 8.53 32.87C8.65667 32.7433 8.75333 32.6 8.82 32.44C8.88667 32.2733 8.92 32.0933 8.92 31.9C8.92 31.7067 8.88667 31.53 8.82 31.37C8.75333 31.2033 8.65667 31.06 8.53 30.94C8.41 30.82 8.26333 30.7267 8.09 30.66C7.92333 30.5867 7.74 30.55 7.54 30.55C7.34 30.55 7.15667 30.5867 6.99 30.66C6.82333 30.7267 6.68 30.82 6.56 30.94C6.44 31.06 6.34333 31.2033 6.27 31.37C6.20333 31.53 6.17 31.7067 6.17 31.9ZM12.6109 34.25C12.2175 33.5033 11.8475 32.7667 11.5009 32.04C11.1609 31.3067 10.8009 30.5667 10.4209 29.82H11.3509C11.5909 30.2933 11.7809 30.68 11.9209 30.98C12.0675 31.28 12.1842 31.53 12.2709 31.73C12.3575 31.93 12.4242 32.1 12.4709 32.24C12.5175 32.3733 12.5642 32.51 12.6109 32.65C12.6642 32.51 12.7142 32.3733 12.7609 32.24C12.8142 32.1 12.8809 31.93 12.9609 31.73C13.0475 31.53 13.1609 31.28 13.3009 30.98C13.4475 30.68 13.6409 30.2933 13.8809 29.82H14.8109C14.4309 30.5667 14.0642 31.3067 13.7109 32.04C13.3575 32.7667 12.9909 33.5033 12.6109 34.25ZM14.9975 31.9C14.9975 31.6 15.0542 31.3167 15.1675 31.05C15.2875 30.7833 15.4475 30.5533 15.6475 30.36C15.8475 30.16 16.0808 30.0033 16.3475 29.89C16.6208 29.77 16.9142 29.71 17.2275 29.71C17.5408 29.71 17.8308 29.77 18.0975 29.89C18.3708 30.0033 18.6042 30.16 18.7975 30.36C18.9975 30.5533 19.1508 30.7833 19.2575 31.05C19.3708 31.3167 19.4275 31.6 19.4275 31.9C19.4275 32.2 19.3708 32.4833 19.2575 32.75C19.1508 33.0167 18.9975 33.25 18.7975 33.45C18.6042 33.65 18.3708 33.81 18.0975 33.93C17.8308 34.0433 17.5375 34.1 17.2175 34.1C16.9108 34.1 16.6208 34.0467 16.3475 33.94C16.0808 33.8333 15.8475 33.6833 15.6475 33.49C15.4475 33.2967 15.2875 33.0667 15.1675 32.8C15.0542 32.5267 14.9975 32.2267 14.9975 31.9ZM15.8475 31.91C15.8475 32.0967 15.8808 32.2733 15.9475 32.44C16.0208 32.6 16.1175 32.7433 16.2375 32.87C16.3642 32.99 16.5075 33.0867 16.6675 33.16C16.8342 33.2267 17.0108 33.26 17.1975 33.26C17.3842 33.26 17.5608 33.2267 17.7275 33.16C17.8942 33.0867 18.0375 32.99 18.1575 32.87C18.2842 32.7433 18.3842 32.6 18.4575 32.44C18.5308 32.2733 18.5675 32.0967 18.5675 31.91C18.5675 31.7233 18.5308 31.5467 18.4575 31.38C18.3842 31.2133 18.2842 31.07 18.1575 30.95C18.0375 30.8233 17.8942 30.7267 17.7275 30.66C17.5608 30.5867 17.3842 30.55 17.1975 30.55C17.0108 30.55 16.8342 30.5867 16.6675 30.66C16.5075 30.7267 16.3642 30.8233 16.2375 30.95C16.1175 31.07 16.0208 31.2133 15.9475 31.38C15.8808 31.5467 15.8475 31.7233 15.8475 31.91ZM22.6363 30.81C22.4497 30.81 22.2697 30.8367 22.0963 30.89C21.923 30.9367 21.7663 31.01 21.6263 31.11C21.493 31.21 21.3863 31.3367 21.3063 31.49C21.2263 31.6367 21.1863 31.8067 21.1863 32V34H20.3363V29.82H21.0863C21.0997 30.0267 21.1097 30.2167 21.1163 30.39C21.1297 30.5567 21.143 30.7233 21.1563 30.89C21.243 30.71 21.3563 30.5467 21.4963 30.4C21.6363 30.2533 21.7863 30.13 21.9463 30.03C22.1063 29.93 22.263 29.8533 22.4163 29.8C22.5697 29.74 22.7063 29.71 22.8263 29.71L22.6363 30.81ZM23.3318 28.22C23.3318 28.06 23.3885 27.9267 23.5018 27.82C23.6218 27.7133 23.7485 27.66 23.8818 27.66C24.0151 27.66 24.1385 27.7133 24.2518 27.82C24.3651 27.9267 24.4218 28.06 24.4218 28.22C24.4218 28.38 24.3651 28.5133 24.2518 28.62C24.1385 28.72 24.0151 28.77 23.8818 28.77C23.7485 28.77 23.6218 28.72 23.5018 28.62C23.3885 28.5133 23.3318 28.38 23.3318 28.22ZM24.2918 34H23.4418V29.82H24.2918V34ZM25.8526 27.98H26.7026V29.83H27.8226V30.59H26.7026V34H25.8526V30.59H25.1026V29.83H25.8526V27.98ZM31.9818 33.51C31.7818 33.69 31.5385 33.8333 31.2518 33.94C30.9651 34.0467 30.6718 34.1 30.3718 34.1C30.0651 34.1 29.7751 34.0433 29.5018 33.93C29.2351 33.81 29.0018 33.6533 28.8018 33.46C28.6018 33.26 28.4418 33.0267 28.3218 32.76C28.2085 32.4933 28.1518 32.21 28.1518 31.91C28.1518 31.61 28.2085 31.3267 28.3218 31.06C28.4418 30.7933 28.6018 30.56 28.8018 30.36C29.0018 30.16 29.2318 30.0033 29.4918 29.89C29.7585 29.77 30.0418 29.71 30.3418 29.71C30.8151 29.71 31.2251 29.8533 31.5718 30.14C31.9251 30.42 32.1785 30.79 32.3318 31.25C32.1251 31.3233 31.8885 31.4133 31.6218 31.52C31.3551 31.6267 31.0785 31.74 30.7918 31.86C30.5051 31.9733 30.2185 32.0867 29.9318 32.2C29.6451 32.3133 29.3785 32.4167 29.1318 32.51C29.2451 32.7367 29.4085 32.92 29.6218 33.06C29.8418 33.1933 30.0851 33.26 30.3518 33.26C30.5318 33.26 30.7118 33.2267 30.8918 33.16C31.0785 33.0933 31.2285 33.0033 31.3418 32.89L31.9818 33.51ZM31.2618 31.05C31.1818 30.8833 31.0551 30.76 30.8818 30.68C30.7085 30.5933 30.5318 30.55 30.3518 30.55C30.1585 30.55 29.9785 30.5867 29.8118 30.66C29.6518 30.7333 29.5118 30.8333 29.3918 30.96C29.2718 31.08 29.1751 31.22 29.1018 31.38C29.0351 31.54 29.0018 31.7033 29.0018 31.87C29.0018 31.9033 29.0018 31.9267 29.0018 31.94C29.0085 31.9533 29.0118 31.9633 29.0118 31.97C29.1851 31.9033 29.3718 31.83 29.5718 31.75C29.7785 31.6633 29.9818 31.58 30.1818 31.5C30.3818 31.4133 30.5751 31.3333 30.7618 31.26C30.9485 31.18 31.1151 31.11 31.2618 31.05ZM35.4007 30.19L34.9507 30.79C34.944 30.7833 34.9207 30.7667 34.8807 30.74C34.8407 30.7133 34.7874 30.6867 34.7207 30.66C34.6607 30.6333 34.5874 30.61 34.5007 30.59C34.4207 30.5633 34.3374 30.55 34.2507 30.55C34.1374 30.55 34.024 30.5767 33.9107 30.63C33.804 30.6833 33.7507 30.7833 33.7507 30.93C33.7507 31.0567 33.794 31.16 33.8807 31.24C33.974 31.32 34.0874 31.3933 34.2207 31.46C34.354 31.52 34.4974 31.5833 34.6507 31.65C34.8107 31.7167 34.9574 31.8 35.0907 31.9C35.224 31.9933 35.334 32.1133 35.4207 32.26C35.514 32.4 35.5607 32.58 35.5607 32.8C35.5607 33.1733 35.4307 33.4833 35.1707 33.73C34.9174 33.97 34.5674 34.09 34.1207 34.09C33.8607 34.09 33.604 34.0467 33.3507 33.96C33.104 33.8667 32.904 33.7333 32.7507 33.56C32.7974 33.5133 32.8474 33.4533 32.9007 33.38C32.9607 33.3067 33.0174 33.2367 33.0707 33.17C33.1307 33.1033 33.1774 33.05 33.2107 33.01C33.2507 32.9633 33.274 32.94 33.2807 32.94C33.2807 32.9467 33.304 32.9667 33.3507 33C33.404 33.0333 33.4707 33.07 33.5507 33.11C33.6307 33.1433 33.7207 33.1767 33.8207 33.21C33.9207 33.2367 34.0207 33.25 34.1207 33.25C34.2807 33.25 34.4174 33.21 34.5307 33.13C34.644 33.05 34.7007 32.9433 34.7007 32.81C34.7007 32.69 34.654 32.5967 34.5607 32.53C34.474 32.4567 34.364 32.39 34.2307 32.33C34.0974 32.27 33.9507 32.21 33.7907 32.15C33.6307 32.0833 33.484 32 33.3507 31.9C33.2174 31.8 33.104 31.6767 33.0107 31.53C32.924 31.3767 32.8807 31.18 32.8807 30.94C32.8807 30.7133 32.9207 30.5233 33.0007 30.37C33.0874 30.2167 33.194 30.0933 33.3207 30C33.454 29.9 33.6007 29.83 33.7607 29.79C33.9207 29.7433 34.074 29.72 34.2207 29.72C34.414 29.72 34.6207 29.76 34.8407 29.84C35.0607 29.92 35.2474 30.0367 35.4007 30.19Z" fill="white"/>
<path d="M25.7469 3.96094C23.5984 2.125 20.4344 2.47656 18.4422 4.50781L17.7 5.28906L16.9188 4.50781C14.9656 2.47656 11.7625 2.125 9.61407 3.96094C7.15314 6.07031 7.03595 9.82031 9.22345 12.0859L16.8016 19.8984C17.2703 20.4062 18.0906 20.4062 18.5594 19.8984L26.1375 12.0859C28.325 9.82031 28.2078 6.07031 25.7469 3.96094Z" fill="white"/>
</svg>
