<svg width="173" height="70" viewBox="0 0 173 70" fill="none" xmlns="http://www.w3.org/2000/svg">
<path d="M90 42.7754C90 36.4092 86.51 33.0396 80.6499 33.0396C75.1228 33.0396 71.0088 36.6944 71.0088 42.6511C71.0088 49.0587 75.6629 52.1407 81.6463 52.1407C84.2631 52.1407 87.1315 51.6067 89.9973 50.4558L89.1662 45.9378C87.0896 46.9643 84.638 47.5397 82.4775 47.5397C78.9037 47.5397 76.8349 46.21 76.3813 43.719H89.9973C90 43.719 90 42.8558 90 42.7754ZM80.6526 37.0651C82.9835 37.0651 84.4099 38.3455 84.7874 40.7199H76.4652C76.9398 38.3715 78.3793 37.0651 80.6526 37.0651Z" fill="#2FC18C"/>
<path d="M60.0019 33.0395C57.7234 33.0395 55.5052 34.066 54.0186 35.5953V27H53.9766L48.6172 29.0529V51.7285H54.0186V49.5045C55.5628 51.1453 57.8021 52.1406 60.0439 52.1406C65.3613 52.1406 68.8119 47.9906 68.8119 42.5292C68.8093 36.9406 65.2354 33.0395 60.0019 33.0395ZM58.5467 47.4981C55.6389 47.4981 53.9346 45.5256 53.9346 42.5292C53.9346 39.5301 55.6389 37.4771 58.5467 37.4771C61.2893 37.4771 63.0749 39.5301 63.0749 42.5292C63.0749 45.5256 61.2893 47.4981 58.5467 47.4981Z" fill="#2FC18C"/>
<path d="M36.8156 44.8283L40.5545 33.4491H46.6219L37.3557 56.7002H31.3304L33.9051 50.868L27.3816 33.4491H33.4489L36.8156 44.8283Z" fill="#2FC18C"/>
<path d="M19.3212 36.2434C20.4015 34.517 22.1478 33.4102 24.6387 33.4102L26.592 38.5452L26.5502 38.5866C26.052 38.3403 25.2208 38.1771 24.2244 38.1771C21.0255 38.1771 19.3212 40.3129 19.3212 43.4338V51.7312H13.9199V33.4517H19.3212V36.2434Z" fill="#2FC18C"/>
<path d="M5.40132 27V33.4491H10.8026V37.9671H5.40132V44.8672C5.40132 46.8399 6.68871 47.5371 8.10198 47.5371C9.05639 47.5371 10.0134 47.2494 10.7607 46.7983H10.8026V51.2749C9.76433 51.7674 7.81094 52.138 6.43962 52.138C2.49352 52.1407 0 49.5927 0 45.6915V29.0555L5.35937 27.0025H5.40132V27Z" fill="#2FC18C"/>
<path d="M109.12 52.2C105.947 52.2 103.187 51.6267 100.84 50.48C98.4933 49.3067 96.6933 47.6533 95.44 45.52C94.1867 43.3867 93.56 40.9067 93.56 38.08C93.56 34.16 94.2933 30.68 95.76 27.64C97.2533 24.6 99.2667 22.2533 101.8 20.6C104.333 18.92 107.147 18.08 110.24 18.08C113.12 18.08 115.307 18.8267 116.8 20.32C118.293 21.7867 119.04 23.7333 119.04 26.16C119.04 27.7867 118.747 29.0933 118.16 30.08C117.6 31.0667 116.787 31.56 115.72 31.56C114.973 31.56 114.387 31.3867 113.96 31.04C113.533 30.6933 113.32 30.1867 113.32 29.52C113.32 29.28 113.373 28.84 113.48 28.2C113.64 27.4 113.72 26.76 113.72 26.28C113.72 23.8533 112.427 22.64 109.84 22.64C108.08 22.64 106.4 23.2133 104.8 24.36C103.2 25.5067 101.907 27.2 100.92 29.44C99.9333 31.6533 99.44 34.2933 99.44 37.36C99.44 40.56 100.333 43.04 102.12 44.8C103.907 46.5333 106.547 47.4 110.04 47.4C111.773 47.4 113.52 47.1867 115.28 46.76C117.067 46.3067 119.04 45.6267 121.2 44.72C121.6 44.56 121.933 44.48 122.2 44.48C122.627 44.48 122.947 44.64 123.16 44.96C123.373 45.28 123.48 45.6933 123.48 46.2C123.48 47.8267 122.6 49.0267 120.84 49.8C118.947 50.6267 116.973 51.24 114.92 51.64C112.893 52.0133 110.96 52.2 109.12 52.2ZM142.542 43.08C142.889 43.08 143.155 43.24 143.342 43.56C143.555 43.88 143.662 44.32 143.662 44.88C143.662 45.9467 143.409 46.7733 142.902 47.36C141.675 48.7733 140.409 49.9333 139.102 50.84C137.822 51.7467 136.355 52.2 134.702 52.2C133.342 52.2 132.315 51.8133 131.622 51.04C130.929 50.24 130.582 49.0933 130.582 47.6C130.582 46.8533 130.769 45.52 131.142 43.6C131.489 41.92 131.662 40.76 131.662 40.12C131.662 39.6933 131.515 39.48 131.222 39.48C130.875 39.48 130.382 39.9333 129.742 40.84C129.102 41.72 128.462 42.8933 127.822 44.36C127.182 45.8267 126.662 47.3733 126.262 49C125.755 51.1333 124.502 52.2 122.502 52.2C121.702 52.2 121.169 51.92 120.902 51.36C120.662 50.7733 120.542 49.7333 120.542 48.24C120.542 47.3867 120.555 46.7067 120.582 46.2L120.622 43C120.622 38.8933 121.035 34.6133 121.862 30.16C122.715 25.7067 123.955 21.9733 125.582 18.96C127.235 15.92 129.209 14.4 131.502 14.4C132.729 14.4 133.715 14.9333 134.462 16C135.235 17.04 135.622 18.4 135.622 20.08C135.622 22.7733 134.835 25.5733 133.262 28.48C131.689 31.36 129.129 34.7333 125.582 38.6C125.502 39.9867 125.462 41.4133 125.462 42.88C126.342 40.6133 127.315 38.7733 128.382 37.36C129.475 35.92 130.542 34.8933 131.582 34.28C132.649 33.6667 133.622 33.36 134.502 33.36C136.235 33.36 137.102 34.2267 137.102 35.96C137.102 37 136.809 38.88 136.222 41.6C135.715 43.92 135.462 45.4533 135.462 46.2C135.462 47.2667 135.849 47.8 136.622 47.8C137.155 47.8 137.782 47.48 138.502 46.84C139.249 46.1733 140.235 45.1067 141.462 43.64C141.782 43.2667 142.142 43.08 142.542 43.08ZM130.662 18.36C130.182 18.36 129.649 19.0533 129.062 20.44C128.475 21.8 127.902 23.6533 127.342 26C126.809 28.32 126.369 30.8533 126.022 33.6C127.675 31.6533 129.035 29.5333 130.102 27.24C131.195 24.9467 131.742 22.8667 131.742 21C131.742 20.1467 131.649 19.4933 131.462 19.04C131.275 18.5867 131.009 18.36 130.662 18.36ZM158.26 43.08C158.607 43.08 158.873 43.24 159.06 43.56C159.273 43.88 159.38 44.32 159.38 44.88C159.38 45.9467 159.127 46.7733 158.62 47.36C157.633 48.56 156.233 49.6667 154.42 50.68C152.633 51.6933 150.713 52.2 148.66 52.2C145.86 52.2 143.687 51.44 142.14 49.92C140.593 48.4 139.82 46.32 139.82 43.68C139.82 41.84 140.207 40.1333 140.98 38.56C141.753 36.96 142.82 35.6933 144.18 34.76C145.567 33.8267 147.127 33.36 148.86 33.36C150.407 33.36 151.647 33.8267 152.58 34.76C153.513 35.6667 153.98 36.9067 153.98 38.48C153.98 40.32 153.313 41.9067 151.98 43.24C150.673 44.5467 148.447 45.5867 145.3 46.36C145.967 47.5867 147.233 48.2 149.1 48.2C150.3 48.2 151.66 47.7867 153.18 46.96C154.727 46.1067 156.06 45 157.18 43.64C157.5 43.2667 157.86 43.08 158.26 43.08ZM148.18 37.28C147.193 37.28 146.353 37.8533 145.66 39C144.993 40.1467 144.66 41.5333 144.66 43.16V43.24C146.233 42.8667 147.473 42.3067 148.38 41.56C149.287 40.8133 149.74 39.9467 149.74 38.96C149.74 38.4533 149.593 38.0533 149.3 37.76C149.033 37.44 148.66 37.28 148.18 37.28ZM171.693 40.8C172.439 40.8 172.813 41.36 172.813 42.48C172.813 44.5867 171.159 45.64 167.853 45.64C167.213 45.64 166.293 45.52 165.093 45.28C165.439 46.9333 165.719 48.7733 165.933 50.8C166.173 52.8 166.293 54.4533 166.293 55.76C166.293 58.64 165.826 60.84 164.893 62.36C163.959 63.88 162.733 64.64 161.213 64.64C159.293 64.64 157.919 63.28 157.093 60.56C156.293 57.84 155.893 53.7333 155.893 48.24C155.893 43.12 156.439 37.9333 157.533 32.68C158.653 27.4 160.173 23.04 162.093 19.6C164.039 16.1333 166.173 14.4 168.493 14.4C169.746 14.4 170.719 14.96 171.413 16.08C172.133 17.2 172.493 18.7067 172.493 20.6C172.493 26.8667 168.746 33.6933 161.253 41.08C160.986 43.6933 160.853 45.9867 160.853 47.96C160.853 50.7067 160.946 53.52 161.133 56.4C161.319 59.3067 161.626 60.76 162.053 60.76C162.853 60.76 163.253 59.3733 163.253 56.6C163.253 54.52 163.106 52.5067 162.813 50.56C162.546 48.6133 162.173 46.56 161.693 44.4C161.666 44.0533 161.773 43.6133 162.013 43.08C162.279 42.5467 162.599 42.08 162.973 41.68C163.346 41.28 163.679 41.08 163.973 41.08C164.506 41.08 165.146 41.1067 165.893 41.16C166.133 41.1867 166.413 41.2 166.733 41.2C167.799 41.2 168.986 41.1067 170.293 40.92C170.506 40.8933 170.733 40.8667 170.973 40.84C171.213 40.8133 171.453 40.8 171.693 40.8ZM167.653 18.36C167.173 18.36 166.573 19.1733 165.853 20.8C165.159 22.4267 164.466 24.5867 163.773 27.28C163.079 29.9467 162.479 32.7733 161.973 35.76C164.106 33.3333 165.746 30.8133 166.893 28.2C168.039 25.56 168.626 23.0933 168.653 20.8C168.653 19.1733 168.319 18.36 167.653 18.36Z" fill="#26A879"/>
</svg>
