<svg width="24" height="38" viewBox="0 0 24 38" fill="none" xmlns="http://www.w3.org/2000/svg">
<path d="M11.3359 2.125C11.2188 1.30469 9.57812 1.30469 9.46094 2.16406V7.67188C9.42188 7.78906 8.875 7.78906 8.83594 7.67188C8.79688 6.69531 8.5625 2.24219 8.52344 2.125C8.40625 1.30469 6.80469 1.30469 6.6875 2.125C6.64844 2.24219 6.41406 6.69531 6.375 7.67188C6.33594 7.78906 5.78906 7.78906 5.75 7.67188V2.16406C5.63281 1.30469 3.99219 1.30469 3.875 2.125C3.83594 2.28125 3.25 5.79688 3.25 7.125C3.25 9.19531 4.30469 10.6406 5.90625 11.2266L5.4375 20.5234C5.39844 21.0703 5.82812 21.5 6.375 21.5H8.875C9.38281 21.5 9.8125 21.0703 9.8125 20.5234L9.30469 11.2266C10.9062 10.6406 12 9.19531 12 7.125C12 5.79688 11.375 2.28125 11.3359 2.125ZM16.0234 13.2578L15.4375 20.4844C15.3594 21.0312 15.8281 21.5 16.375 21.5H18.5625C19.0703 21.5 19.5 21.1094 19.5 20.5625V2.4375C19.5 1.92969 19.0703 1.5 18.5625 1.5C15.3203 1.5 9.89062 8.49219 16.0234 13.2578Z" fill="white"/>
<path d="M0.89 34V26.75H5.23V27.76H1.98V29.95H4.82V30.97H1.98V34H0.89ZM5.31 31.9C5.31 31.6 5.36667 31.3167 5.48 31.05C5.6 30.7833 5.76 30.5533 5.96 30.36C6.16 30.16 6.39333 30.0033 6.66 29.89C6.93333 29.77 7.22667 29.71 7.54 29.71C7.85333 29.71 8.14333 29.77 8.41 29.89C8.68333 30.0033 8.91667 30.16 9.11 30.36C9.31 30.5533 9.46333 30.7833 9.57 31.05C9.68333 31.3167 9.74 31.6 9.74 31.9C9.74 32.2 9.68333 32.4833 9.57 32.75C9.46333 33.0167 9.31 33.25 9.11 33.45C8.91667 33.65 8.68333 33.81 8.41 33.93C8.14333 34.0433 7.85 34.1 7.53 34.1C7.22333 34.1 6.93333 34.0467 6.66 33.94C6.39333 33.8333 6.16 33.6833 5.96 33.49C5.76 33.2967 5.6 33.0667 5.48 32.8C5.36667 32.5267 5.31 32.2267 5.31 31.9ZM6.16 31.91C6.16 32.0967 6.19333 32.2733 6.26 32.44C6.33333 32.6 6.43 32.7433 6.55 32.87C6.67667 32.99 6.82 33.0867 6.98 33.16C7.14667 33.2267 7.32333 33.26 7.51 33.26C7.69667 33.26 7.87333 33.2267 8.04 33.16C8.20667 33.0867 8.35 32.99 8.47 32.87C8.59667 32.7433 8.69667 32.6 8.77 32.44C8.84333 32.2733 8.88 32.0967 8.88 31.91C8.88 31.7233 8.84333 31.5467 8.77 31.38C8.69667 31.2133 8.59667 31.07 8.47 30.95C8.35 30.8233 8.20667 30.7267 8.04 30.66C7.87333 30.5867 7.69667 30.55 7.51 30.55C7.32333 30.55 7.14667 30.5867 6.98 30.66C6.82 30.7267 6.67667 30.8233 6.55 30.95C6.43 31.07 6.33333 31.2133 6.26 31.38C6.19333 31.5467 6.16 31.7233 6.16 31.91ZM10.3588 31.9C10.3588 31.6 10.4155 31.3167 10.5288 31.05C10.6488 30.7833 10.8088 30.5533 11.0088 30.36C11.2088 30.16 11.4422 30.0033 11.7088 29.89C11.9822 29.77 12.2755 29.71 12.5888 29.71C12.9022 29.71 13.1922 29.77 13.4588 29.89C13.7322 30.0033 13.9655 30.16 14.1588 30.36C14.3588 30.5533 14.5122 30.7833 14.6188 31.05C14.7322 31.3167 14.7888 31.6 14.7888 31.9C14.7888 32.2 14.7322 32.4833 14.6188 32.75C14.5122 33.0167 14.3588 33.25 14.1588 33.45C13.9655 33.65 13.7322 33.81 13.4588 33.93C13.1922 34.0433 12.8988 34.1 12.5788 34.1C12.2722 34.1 11.9822 34.0467 11.7088 33.94C11.4422 33.8333 11.2088 33.6833 11.0088 33.49C10.8088 33.2967 10.6488 33.0667 10.5288 32.8C10.4155 32.5267 10.3588 32.2267 10.3588 31.9ZM11.2088 31.91C11.2088 32.0967 11.2422 32.2733 11.3088 32.44C11.3822 32.6 11.4788 32.7433 11.5988 32.87C11.7255 32.99 11.8688 33.0867 12.0288 33.16C12.1955 33.2267 12.3722 33.26 12.5588 33.26C12.7455 33.26 12.9222 33.2267 13.0888 33.16C13.2555 33.0867 13.3988 32.99 13.5188 32.87C13.6455 32.7433 13.7455 32.6 13.8188 32.44C13.8922 32.2733 13.9288 32.0967 13.9288 31.91C13.9288 31.7233 13.8922 31.5467 13.8188 31.38C13.7455 31.2133 13.6455 31.07 13.5188 30.95C13.3988 30.8233 13.2555 30.7267 13.0888 30.66C12.9222 30.5867 12.7455 30.55 12.5588 30.55C12.3722 30.55 12.1955 30.5867 12.0288 30.66C11.8688 30.7267 11.7255 30.8233 11.5988 30.95C11.4788 31.07 11.3822 31.2133 11.3088 31.38C11.2422 31.5467 11.2088 31.7233 11.2088 31.91ZM15.4177 31.91C15.4177 31.5833 15.471 31.2867 15.5777 31.02C15.691 30.7467 15.8443 30.5133 16.0377 30.32C16.231 30.1267 16.4577 29.9767 16.7177 29.87C16.9843 29.7633 17.271 29.71 17.5777 29.71C17.7843 29.71 17.9677 29.7367 18.1277 29.79C18.2943 29.8367 18.4343 29.8967 18.5477 29.97C18.6677 30.0367 18.7677 30.1133 18.8477 30.2C18.9277 30.2867 18.9877 30.3633 19.0277 30.43V26.23H19.8877V34H19.0277V33.69C19.0277 33.65 19.031 33.6067 19.0377 33.56C19.0443 33.5067 19.0477 33.4633 19.0477 33.43C18.981 33.51 18.901 33.59 18.8077 33.67C18.721 33.7433 18.6177 33.8133 18.4977 33.88C18.3777 33.9467 18.2377 34 18.0777 34.04C17.9243 34.08 17.7477 34.1 17.5477 34.1C17.2143 34.1 16.9143 34.0433 16.6477 33.93C16.3877 33.81 16.1643 33.6533 15.9777 33.46C15.7977 33.26 15.6577 33.0267 15.5577 32.76C15.4643 32.4933 15.4177 32.21 15.4177 31.91ZM16.2777 31.9C16.2777 32.0933 16.311 32.2733 16.3777 32.44C16.451 32.6067 16.5477 32.75 16.6677 32.87C16.7877 32.99 16.931 33.0867 17.0977 33.16C17.2643 33.2267 17.4477 33.26 17.6477 33.26C17.8477 33.26 18.031 33.2267 18.1977 33.16C18.371 33.0867 18.5177 32.99 18.6377 32.87C18.7643 32.7433 18.861 32.6 18.9277 32.44C18.9943 32.2733 19.0277 32.0933 19.0277 31.9C19.0277 31.7067 18.9943 31.53 18.9277 31.37C18.861 31.2033 18.7643 31.06 18.6377 30.94C18.5177 30.82 18.371 30.7267 18.1977 30.66C18.031 30.5867 17.8477 30.55 17.6477 30.55C17.4477 30.55 17.2643 30.5867 17.0977 30.66C16.931 30.7267 16.7877 30.82 16.6677 30.94C16.5477 31.06 16.451 31.2033 16.3777 31.37C16.311 31.53 16.2777 31.7067 16.2777 31.9ZM23.4183 30.19L22.9683 30.79C22.9616 30.7833 22.9383 30.7667 22.8983 30.74C22.8583 30.7133 22.8049 30.6867 22.7383 30.66C22.6783 30.6333 22.6049 30.61 22.5183 30.59C22.4383 30.5633 22.3549 30.55 22.2683 30.55C22.1549 30.55 22.0416 30.5767 21.9283 30.63C21.8216 30.6833 21.7683 30.7833 21.7683 30.93C21.7683 31.0567 21.8116 31.16 21.8983 31.24C21.9916 31.32 22.1049 31.3933 22.2383 31.46C22.3716 31.52 22.5149 31.5833 22.6683 31.65C22.8283 31.7167 22.9749 31.8 23.1083 31.9C23.2416 31.9933 23.3516 32.1133 23.4383 32.26C23.5316 32.4 23.5783 32.58 23.5783 32.8C23.5783 33.1733 23.4483 33.4833 23.1883 33.73C22.9349 33.97 22.5849 34.09 22.1383 34.09C21.8783 34.09 21.6216 34.0467 21.3683 33.96C21.1216 33.8667 20.9216 33.7333 20.7683 33.56C20.8149 33.5133 20.8649 33.4533 20.9183 33.38C20.9783 33.3067 21.0349 33.2367 21.0883 33.17C21.1483 33.1033 21.1949 33.05 21.2283 33.01C21.2683 32.9633 21.2916 32.94 21.2983 32.94C21.2983 32.9467 21.3216 32.9667 21.3683 33C21.4216 33.0333 21.4883 33.07 21.5683 33.11C21.6483 33.1433 21.7383 33.1767 21.8383 33.21C21.9383 33.2367 22.0383 33.25 22.1383 33.25C22.2983 33.25 22.4349 33.21 22.5483 33.13C22.6616 33.05 22.7183 32.9433 22.7183 32.81C22.7183 32.69 22.6716 32.5967 22.5783 32.53C22.4916 32.4567 22.3816 32.39 22.2483 32.33C22.1149 32.27 21.9683 32.21 21.8083 32.15C21.6483 32.0833 21.5016 32 21.3683 31.9C21.2349 31.8 21.1216 31.6767 21.0283 31.53C20.9416 31.3767 20.8983 31.18 20.8983 30.94C20.8983 30.7133 20.9383 30.5233 21.0183 30.37C21.1049 30.2167 21.2116 30.0933 21.3383 30C21.4716 29.9 21.6183 29.83 21.7783 29.79C21.9383 29.7433 22.0916 29.72 22.2383 29.72C22.4316 29.72 22.6383 29.76 22.8583 29.84C23.0783 29.92 23.2649 30.0367 23.4183 30.19Z" fill="white"/>
</svg>
