<svg width="21" height="26" viewBox="0 0 21 26" fill="none" xmlns="http://www.w3.org/2000/svg">
<path d="M10.1074 0.90625C9.96094 -0.119141 7.91016 -0.119141 7.76367 0.955078V7.83984C7.71484 7.98633 7.03125 7.98633 6.98242 7.83984C6.93359 6.61914 6.64062 1.05273 6.5918 0.90625C6.44531 -0.119141 4.44336 -0.119141 4.29688 0.90625C4.24805 1.05273 3.95508 6.61914 3.90625 7.83984C3.85742 7.98633 3.17383 7.98633 3.125 7.83984V0.955078C2.97852 -0.119141 0.927734 -0.119141 0.78125 0.90625C0.732422 1.10156 0 5.49609 0 7.15625C0 9.74414 1.31836 11.5508 3.32031 12.2832L2.73438 23.9043C2.68555 24.5879 3.22266 25.125 3.90625 25.125H7.03125C7.66602 25.125 8.20312 24.5879 8.20312 23.9043L7.56836 12.2832C9.57031 11.5508 10.9375 9.74414 10.9375 7.15625C10.9375 5.49609 10.1562 1.10156 10.1074 0.90625ZM15.9668 14.8223L15.2344 23.8555C15.1367 24.5391 15.7227 25.125 16.4062 25.125H19.1406C19.7754 25.125 20.3125 24.6367 20.3125 23.9531V1.29688C20.3125 0.662109 19.7754 0.125 19.1406 0.125C15.0879 0.125 8.30078 8.86523 15.9668 14.8223Z" fill="white"/>
</svg>
