<svg width="10" height="15" viewBox="0 0 10 15" fill="none" xmlns="http://www.w3.org/2000/svg">
<path d="M4.5 0.000921607C4.61703 0.000882593 4.73036 0.041893 4.82026 0.116811C4.91016 0.191729 4.97094 0.295808 4.992 0.410922L5 0.500922V3.50092C5.00012 4.07725 4.80111 4.63592 4.43665 5.08237C4.0722 5.52883 3.56468 5.83566 3 5.95092V13.5009C3.00023 13.6259 2.95367 13.7464 2.86949 13.8387C2.78531 13.931 2.66961 13.9885 2.54518 13.9998C2.42074 14.0111 2.29659 13.9754 2.19717 13.8997C2.09775 13.824 2.03026 13.7139 2.008 13.5909L2 13.5009V5.95092C1.46417 5.84133 0.979025 5.55912 0.618883 5.1475C0.258742 4.73589 0.043457 4.21756 0.00600089 3.67192L8.48188e-07 3.50092V0.500922C-0.000229165 0.375976 0.0463299 0.255471 0.130509 0.163139C0.214689 0.0708056 0.330387 0.0133357 0.454822 0.00204623C0.579257 -0.00924324 0.70341 0.0264658 0.802832 0.102141C0.902255 0.177817 0.969741 0.287974 0.992001 0.410922L1 0.500922V3.50092C0.999838 3.81125 1.09593 4.11399 1.27503 4.36741C1.45413 4.62084 1.70742 4.81248 2 4.91592V0.500922C1.99977 0.375976 2.04633 0.255471 2.13051 0.163139C2.21469 0.0708056 2.33039 0.0133357 2.45482 0.00204623C2.57926 -0.00924324 2.70341 0.0264658 2.80283 0.102141C2.90225 0.177817 2.96974 0.287974 2.992 0.410922L3 0.500922V4.91492C3.538 4.72492 3.935 4.23692 3.993 3.64992L4 3.50092V0.500922C4 0.368313 4.05268 0.241136 4.14645 0.147368C4.24022 0.0536001 4.36739 0.000921607 4.5 0.000921607V0.000921607ZM9.5 0.000921607C9.61703 0.000882593 9.73036 0.041893 9.82026 0.116811C9.91016 0.191729 9.97094 0.295808 9.992 0.410922L10 0.500922V13.5009C10.0002 13.6259 9.95367 13.7464 9.86949 13.8387C9.78531 13.931 9.66961 13.9885 9.54518 13.9998C9.42074 14.0111 9.29659 13.9754 9.19717 13.8997C9.09775 13.824 9.03026 13.7139 9.008 13.5909L9 13.5009V8.00092H7.5C7.38298 8.00096 7.26964 7.95995 7.17974 7.88503C7.08984 7.81011 7.02907 7.70604 7.008 7.59092L7 7.50092V2.50092C7 1.83788 7.26339 1.202 7.73223 0.733155C8.20107 0.264314 8.83696 0.000921607 9.5 0.000921607V0.000921607Z" fill="#797D80"/>
</svg>
