<?xml version="1.0" encoding="UTF-8"?>
<svg xmlns="http://www.w3.org/2000/svg" xmlns:xlink="http://www.w3.org/1999/xlink" width="40px" height="40px" viewBox="0 0 75 74.999997" version="1.2">
<defs>
<clipPath id="clip1">
  <path d="M 1.15625 1.746094 L 73.90625 1.746094 L 73.90625 72.996094 L 1.15625 72.996094 Z M 1.15625 1.746094 "/>
</clipPath>
</defs>
<g id="surface1">
<g clip-path="url(#clip1)" clip-rule="nonzero">
<path style=" stroke:none;fill-rule:nonzero;fill:rgb(100%,100%,100%);fill-opacity:1;" d="M 3.363281 71.546875 C 4.257812 72.4375 5.488281 72.996094 6.71875 72.996094 C 7.949219 72.996094 9.179688 72.550781 10.183594 71.546875 L 37.027344 43.382812 L 65.320312 71.546875 C 66.214844 72.4375 67.558594 72.996094 68.789062 72.996094 C 70.019531 72.996094 71.25 72.550781 72.144531 71.546875 C 73.039062 70.65625 73.597656 69.433594 73.597656 68.097656 C 73.597656 66.761719 73.039062 65.648438 72.144531 64.644531 L 42.171875 37.816406 L 48.992188 30.578125 C 49.886719 30.914062 50.78125 31.023438 51.675781 31.023438 C 53.691406 31.023438 55.589844 30.246094 57.15625 28.796875 L 73.039062 12.988281 C 73.484375 12.542969 73.484375 11.875 73.039062 11.429688 C 72.589844 10.984375 71.917969 10.984375 71.472656 11.429688 L 56.484375 26.347656 C 56.152344 26.347656 55.367188 26.015625 54.359375 25.347656 L 69.90625 9.871094 C 70.355469 9.425781 70.355469 8.757812 69.90625 8.3125 C 69.460938 7.867188 68.789062 7.867188 68.339844 8.3125 L 52.570312 24.011719 C 52.347656 23.789062 52.011719 23.566406 51.789062 23.230469 L 51.007812 22.453125 L 66.773438 6.867188 C 67.222656 6.421875 67.222656 5.753906 66.773438 5.308594 C 66.328125 4.863281 65.65625 4.863281 65.210938 5.308594 L 49.664062 20.78125 C 48.992188 19.78125 48.65625 19 48.65625 18.667969 L 63.644531 3.75 C 64.089844 3.304688 64.089844 2.636719 63.644531 2.191406 C 63.195312 1.746094 62.523438 1.746094 62.078125 2.191406 L 46.195312 17.886719 C 44.183594 19.890625 43.511719 22.675781 44.183594 25.234375 L 39.820312 29.464844 C 39.597656 29.242188 21.257812 12.210938 8.617188 4.640625 C 5.597656 2.859375 3.808594 3.972656 2.914062 4.75 C 2.355469 5.417969 2.019531 6.199219 2.019531 7.089844 C 2.019531 7.980469 2.355469 8.757812 3.027344 9.425781 L 31.320312 37.59375 L 3.363281 64.644531 C 1.460938 66.648438 1.460938 69.65625 3.363281 71.546875 Z M 47.875 27.238281 C 46.085938 25.457031 45.75 22.675781 47.089844 20.558594 C 47.089844 20.671875 47.203125 20.78125 47.203125 20.894531 C 47.875 22.117188 48.992188 23.566406 50.222656 24.902344 C 51.566406 26.238281 53.128906 27.460938 54.585938 28.128906 C 52.460938 29.355469 49.664062 29.019531 47.875 27.238281 Z M 46.195312 28.796875 C 46.421875 29.019531 46.757812 29.242188 46.980469 29.464844 L 40.492188 36.257812 L 40.15625 35.921875 L 40.15625 32.136719 L 45.078125 27.351562 C 45.414062 27.90625 45.859375 28.351562 46.195312 28.796875 Z M 4.59375 6.308594 C 4.816406 6.085938 5.488281 5.417969 7.5 6.53125 C 19.019531 13.433594 35.460938 28.351562 38.03125 30.800781 L 38.03125 36.589844 C 38.03125 36.925781 38.144531 37.257812 38.367188 37.371094 L 39.820312 38.707031 L 70.464844 66.316406 C 70.914062 66.761719 71.25 67.429688 71.25 68.207031 C 71.25 68.875 71.023438 69.542969 70.464844 69.988281 C 69.460938 70.992188 67.78125 70.992188 66.773438 69.988281 L 33.671875 36.925781 L 4.59375 7.867188 C 4.144531 7.421875 4.144531 6.753906 4.59375 6.308594 Z M 4.929688 66.316406 L 32.886719 39.261719 L 35.347656 41.710938 L 8.617188 69.988281 C 7.613281 70.992188 5.933594 70.992188 4.929688 69.988281 C 3.921875 68.988281 3.921875 67.316406 4.929688 66.316406 Z M 4.929688 66.316406 "/>
</g>
</g>
</svg>
