<svg width="20" height="22" viewBox="0 0 20 22" fill="none" xmlns="http://www.w3.org/2000/svg">
<path d="M19.2154 17.3678C18.7137 16.1819 17.9856 15.1047 17.0718 14.1962C16.1607 13.285 15.0814 12.5586 13.8936 12.057C13.883 12.0517 13.8723 12.049 13.8617 12.0437C15.5186 10.8493 16.5957 8.90387 16.5957 6.70892C16.5957 3.07278 13.6436 0.126709 10 0.126709C6.35641 0.126709 3.4043 3.07278 3.4043 6.70892C3.4043 8.90387 4.48142 10.8493 6.13832 12.0463C6.12769 12.0517 6.11705 12.0543 6.10641 12.0596C4.91493 12.5612 3.84579 13.2805 2.92824 14.1988C2.01524 15.108 1.2873 16.1851 0.784636 17.3705C0.290815 18.531 0.0244864 19.7752 6.65049e-05 21.0358C-0.000643344 21.0642 0.00433542 21.0923 0.0147096 21.1187C0.0250837 21.1451 0.0406433 21.1691 0.0604714 21.1894C0.0802996 21.2097 0.103995 21.2258 0.130162 21.2368C0.156329 21.2478 0.184437 21.2535 0.212831 21.2535H1.80857C1.92559 21.2535 2.01867 21.1606 2.02133 21.0464C2.07452 18.9975 2.89898 17.0785 4.35642 15.6241C5.86439 14.1192 7.86704 13.2911 10 13.2911C12.133 13.2911 14.1356 14.1192 15.6436 15.6241C17.101 17.0785 17.9255 18.9975 17.9787 21.0464C17.9813 21.1632 18.0744 21.2535 18.1914 21.2535H19.7872C19.8156 21.2535 19.8437 21.2478 19.8698 21.2368C19.896 21.2258 19.9197 21.2097 19.9395 21.1894C19.9594 21.1691 19.9749 21.1451 19.9853 21.1187C19.9957 21.0923 20.0006 21.0642 19.9999 21.0358C19.9733 19.7672 19.71 18.533 19.2154 17.3678ZM10 11.274C8.77926 11.274 7.63033 10.7989 6.76598 9.93632C5.90162 9.07373 5.42556 7.92716 5.42556 6.70892C5.42556 5.49068 5.90162 4.3441 6.76598 3.48151C7.63033 2.61892 8.77926 2.14384 10 2.14384C11.2207 2.14384 12.3697 2.61892 13.234 3.48151C14.0984 4.3441 14.5744 5.49068 14.5744 6.70892C14.5744 7.92716 14.0984 9.07373 13.234 9.93632C12.3697 10.7989 11.2207 11.274 10 11.274Z" fill="#2FC18C"/>
</svg>
