<?xml version="1.0" encoding="UTF-8"?>
<svg xmlns="http://www.w3.org/2000/svg" xmlns:xlink="http://www.w3.org/1999/xlink" width="30px" height="30px" viewBox="0 0 75 74.999997" version="1.2">
<defs>
<clipPath id="clip1">
  <path d="M 2.96875 1.246094 L 71.96875 1.246094 L 71.96875 73.996094 L 2.96875 73.996094 Z M 2.96875 1.246094 "/>
</clipPath>
</defs>
<g id="surface1">
<g clip-path="url(#clip1)" clip-rule="nonzero">
<path style=" stroke:none;fill-rule:nonzero;fill:rgb(100%,100%,100%);fill-opacity:1;" d="M 71.9375 64.804688 L 71.9375 67.90625 C 71.9375 71.269531 69.210938 74.003906 65.863281 74.003906 L 9.070312 74.003906 C 5.722656 74.003906 2.996094 71.269531 2.996094 67.90625 L 2.996094 64.804688 C 2.996094 53.589844 12.082031 44.464844 23.25 44.464844 L 23.996094 44.464844 L 23.996094 49.730469 L 23.25 49.730469 C 14.972656 49.730469 8.242188 56.492188 8.242188 64.804688 L 8.242188 67.90625 C 8.242188 68.367188 8.613281 68.738281 9.070312 68.738281 L 65.863281 68.738281 C 66.320312 68.738281 66.691406 68.367188 66.691406 67.90625 L 66.691406 64.804688 C 66.691406 56.492188 59.960938 49.730469 51.683594 49.730469 L 50.933594 49.730469 L 50.933594 44.464844 L 51.683594 44.464844 C 62.851562 44.464844 71.9375 53.589844 71.9375 64.804688 Z M 25.320312 25.132812 L 25.320312 18.710938 C 25.320312 11.988281 30.769531 6.515625 37.464844 6.515625 C 44.164062 6.515625 49.613281 11.988281 49.613281 18.710938 L 49.613281 25.132812 C 49.613281 29.75 47.6875 34.210938 44.328125 37.367188 L 40.945312 40.542969 C 38.996094 42.378906 35.9375 42.378906 33.988281 40.542969 L 30.605469 37.367188 C 27.246094 34.210938 25.320312 29.753906 25.320312 25.132812 Z M 27.019531 41.210938 L 30.402344 44.386719 C 32.320312 46.1875 34.828125 47.179688 37.464844 47.179688 C 40.105469 47.179688 42.613281 46.1875 44.53125 44.386719 L 47.914062 41.210938 L 48.152344 40.984375 C 52.414062 36.851562 54.855469 31.09375 54.855469 25.132812 L 54.855469 18.710938 C 54.855469 9.082031 47.054688 1.25 37.464844 1.25 C 27.878906 1.25 20.078125 9.082031 20.078125 18.710938 L 20.078125 25.132812 C 20.078125 31.203125 22.609375 37.0625 27.019531 41.210938 "/>
</g>
</g>
</svg>
