<svg width="30" height="30" viewBox="0 0 30 30" fill="none" xmlns="http://www.w3.org/2000/svg">
<rect width="30" height="30" rx="10" fill="#2FC18C"/>
<path d="M8 16H19.86L16.23 20.36C16.146 20.4611 16.0826 20.5778 16.0437 20.7034C16.0047 20.829 15.9909 20.961 16.003 21.0919C16.0274 21.3564 16.1558 21.6003 16.36 21.77C16.5642 21.9397 16.8275 22.0214 17.0919 21.997C17.3563 21.9726 17.6003 21.8442 17.77 21.64L22.77 15.64C22.8036 15.5923 22.8337 15.5421 22.86 15.49C22.86 15.44 22.91 15.41 22.93 15.36C22.9753 15.2453 22.9991 15.1233 23 15C22.9991 14.8767 22.9753 14.7547 22.93 14.64C22.93 14.59 22.88 14.56 22.86 14.51C22.8337 14.4579 22.8036 14.4077 22.77 14.36L17.77 8.36C17.676 8.24712 17.5582 8.15634 17.4252 8.09412C17.2921 8.0319 17.1469 7.99976 17 8C16.7663 7.99955 16.5399 8.08092 16.36 8.23C16.2587 8.31395 16.175 8.41705 16.1137 8.5334C16.0523 8.64975 16.0145 8.77705 16.0025 8.90803C15.9904 9.03901 16.0043 9.17108 16.0433 9.29668C16.0824 9.42229 16.1458 9.53895 16.23 9.64L19.86 14H8C7.73478 14 7.48043 14.1054 7.29289 14.2929C7.10536 14.4804 7 14.7348 7 15C7 15.2652 7.10536 15.5196 7.29289 15.7071C7.48043 15.8946 7.73478 16 8 16Z" fill="white"/>
</svg>
