<svg width="20" height="21" viewBox="0 0 20 21" fill="none" xmlns="http://www.w3.org/2000/svg">
<path d="M19.7266 17.8047L15.8203 13.8984C15.625 13.7422 15.3906 13.625 15.1562 13.625H14.5312C15.5859 12.2578 16.25 10.5391 16.25 8.625C16.25 4.17188 12.5781 0.5 8.125 0.5C3.63281 0.5 0 4.17188 0 8.625C0 13.1172 3.63281 16.75 8.125 16.75C10 16.75 11.7188 16.125 13.125 15.0312V15.6953C13.125 15.9297 13.2031 16.1641 13.3984 16.3594L17.2656 20.2266C17.6562 20.6172 18.2422 20.6172 18.5938 20.2266L19.6875 19.1328C20.0781 18.7812 20.0781 18.1953 19.7266 17.8047ZM8.125 13.625C5.35156 13.625 3.125 11.3984 3.125 8.625C3.125 5.89062 5.35156 3.625 8.125 3.625C10.8594 3.625 13.125 5.89062 13.125 8.625C13.125 11.3984 10.8594 13.625 8.125 13.625Z" fill="white"/>
</svg>
