<?xml version="1.0" encoding="UTF-8"?>
<svg xmlns="http://www.w3.org/2000/svg" xmlns:xlink="http://www.w3.org/1999/xlink" width="30px" height="30px" viewBox="0 0 75 74.999997" version="1.2">
<defs>
<clipPath id="clip1">
  <path d="M 45 45 L 74.25 45 L 74.25 74.25 L 45 74.25 Z M 45 45 "/>
</clipPath>
</defs>
<g id="surface1">
<path style=" stroke:none;fill-rule:nonzero;fill:white;fill-opacity:1;" d="M 30.761719 59.480469 C 30.179688 59.480469 29.597656 59.460938 29.019531 59.425781 C 28.4375 59.390625 27.859375 59.335938 27.28125 59.265625 C 26.703125 59.195312 26.128906 59.105469 25.558594 59 C 24.988281 58.894531 24.417969 58.769531 23.855469 58.628906 C 23.289062 58.488281 22.730469 58.332031 22.175781 58.15625 C 21.621094 57.980469 21.074219 57.789062 20.53125 57.578125 C 19.988281 57.367188 19.453125 57.144531 18.921875 56.902344 C 18.394531 56.660156 17.871094 56.402344 17.359375 56.128906 C 16.847656 55.851562 16.34375 55.5625 15.847656 55.257812 C 15.351562 54.953125 14.867188 54.632812 14.390625 54.300781 C 13.914062 53.964844 13.449219 53.617188 12.996094 53.253906 C 12.542969 52.890625 12.097656 52.511719 11.667969 52.121094 C 11.238281 51.730469 10.820312 51.328125 10.414062 50.910156 C 10.007812 50.496094 9.613281 50.066406 9.234375 49.625 C 8.851562 49.1875 8.488281 48.734375 8.132812 48.273438 C 7.78125 47.808594 7.445312 47.335938 7.121094 46.851562 C 6.796875 46.367188 6.488281 45.875 6.195312 45.375 C 5.902344 44.871094 5.625 44.359375 5.363281 43.839844 C 5.101562 43.320312 4.859375 42.792969 4.628906 42.257812 C 4.398438 41.726562 4.1875 41.183594 3.992188 40.636719 C 3.796875 40.089844 3.617188 39.535156 3.453125 38.976562 C 3.292969 38.417969 3.148438 37.855469 3.019531 37.289062 C 2.890625 36.71875 2.78125 36.148438 2.691406 35.574219 C 2.597656 35 2.523438 34.425781 2.464844 33.84375 C 2.410156 33.265625 2.371094 32.6875 2.347656 32.105469 C 2.328125 31.523438 2.324219 30.941406 2.335938 30.359375 C 2.351562 29.78125 2.382812 29.199219 2.433594 28.621094 C 2.484375 28.039062 2.550781 27.460938 2.636719 26.886719 C 2.722656 26.3125 2.824219 25.738281 2.945312 25.171875 C 3.066406 24.601562 3.203125 24.035156 3.359375 23.476562 C 3.515625 22.914062 3.6875 22.359375 3.875 21.8125 C 4.066406 21.261719 4.269531 20.71875 4.492188 20.179688 C 4.714844 19.640625 4.953125 19.113281 5.210938 18.589844 C 5.464844 18.066406 5.738281 17.554688 6.023438 17.046875 C 6.308594 16.539062 6.613281 16.042969 6.929688 15.554688 C 7.246094 15.070312 7.578125 14.589844 7.925781 14.125 C 8.273438 13.65625 8.632812 13.203125 9.007812 12.757812 C 9.382812 12.3125 9.769531 11.878906 10.171875 11.457031 C 10.570312 11.035156 10.984375 10.628906 11.410156 10.230469 C 11.835938 9.835938 12.277344 9.453125 12.726562 9.085938 C 13.175781 8.714844 13.636719 8.363281 14.105469 8.019531 C 14.578125 7.679688 15.058594 7.355469 15.550781 7.042969 C 16.042969 6.734375 16.542969 6.4375 17.054688 6.15625 C 17.5625 5.875 18.082031 5.613281 18.605469 5.363281 C 19.132812 5.113281 19.664062 4.882812 20.207031 4.667969 C 20.746094 4.453125 21.292969 4.253906 21.84375 4.070312 C 22.398438 3.886719 22.953125 3.722656 23.515625 3.574219 C 24.078125 3.425781 24.644531 3.296875 25.214844 3.183594 C 25.785156 3.070312 26.359375 2.972656 26.9375 2.894531 C 27.511719 2.816406 28.089844 2.757812 28.671875 2.714844 C 29.25 2.671875 29.832031 2.648438 30.414062 2.640625 C 30.996094 2.632812 31.578125 2.644531 32.15625 2.675781 C 32.738281 2.703125 33.316406 2.75 33.894531 2.8125 C 34.472656 2.878906 35.050781 2.960938 35.621094 3.058594 C 36.195312 3.160156 36.765625 3.277344 37.332031 3.410156 C 37.898438 3.546875 38.457031 3.699219 39.015625 3.867188 C 39.570312 4.035156 40.121094 4.222656 40.667969 4.425781 C 41.210938 4.628906 41.75 4.847656 42.28125 5.085938 C 42.8125 5.320312 43.335938 5.574219 43.851562 5.839844 C 44.371094 6.109375 44.875 6.390625 45.375 6.691406 C 45.875 6.992188 46.363281 7.304688 46.84375 7.636719 C 47.320312 7.964844 47.789062 8.308594 48.25 8.667969 C 48.707031 9.023438 49.152344 9.394531 49.589844 9.78125 C 50.023438 10.167969 50.449219 10.566406 50.859375 10.976562 C 51.847656 11.964844 52.757812 13.019531 53.59375 14.140625 C 54.425781 15.265625 55.171875 16.441406 55.832031 17.675781 C 56.492188 18.90625 57.054688 20.179688 57.527344 21.496094 C 58 22.8125 58.371094 24.15625 58.644531 25.527344 C 58.917969 26.898438 59.085938 28.28125 59.15625 29.675781 C 59.226562 31.074219 59.191406 32.464844 59.054688 33.855469 C 58.917969 35.246094 58.679688 36.621094 58.339844 37.976562 C 58 39.332031 57.5625 40.65625 57.027344 41.949219 C 56.492188 43.238281 55.863281 44.484375 55.144531 45.683594 C 54.425781 46.882812 53.625 48.019531 52.738281 49.101562 C 51.851562 50.179688 50.890625 51.191406 49.851562 52.128906 C 48.816406 53.066406 47.71875 53.921875 46.554688 54.699219 C 45.394531 55.476562 44.179688 56.160156 42.914062 56.757812 C 41.652344 57.355469 40.351562 57.855469 39.011719 58.261719 C 37.675781 58.667969 36.316406 58.96875 34.933594 59.175781 C 33.550781 59.378906 32.160156 59.480469 30.761719 59.480469 Z M 30.761719 8.902344 C 29.914062 8.898438 29.070312 8.945312 28.226562 9.039062 C 27.382812 9.136719 26.550781 9.277344 25.722656 9.46875 C 24.898438 9.660156 24.085938 9.898438 23.285156 10.179688 C 22.484375 10.464844 21.707031 10.792969 20.945312 11.167969 C 20.183594 11.542969 19.445312 11.957031 18.730469 12.414062 C 18.019531 12.875 17.332031 13.371094 16.675781 13.90625 C 16.019531 14.445312 15.398438 15.015625 14.804688 15.625 C 14.214844 16.234375 13.660156 16.875 13.144531 17.546875 C 12.625 18.21875 12.148438 18.917969 11.710938 19.644531 C 11.273438 20.371094 10.882812 21.121094 10.53125 21.890625 C 10.179688 22.664062 9.871094 23.453125 9.613281 24.257812 C 9.351562 25.066406 9.136719 25.886719 8.972656 26.71875 C 8.804688 27.546875 8.6875 28.386719 8.617188 29.230469 C 8.542969 30.078125 8.523438 30.921875 8.550781 31.769531 C 8.578125 32.617188 8.652344 33.460938 8.773438 34.300781 C 8.898438 35.140625 9.070312 35.96875 9.289062 36.789062 C 9.507812 37.605469 9.769531 38.410156 10.082031 39.199219 C 10.390625 39.988281 10.746094 40.757812 11.144531 41.507812 C 11.542969 42.253906 11.984375 42.976562 12.46875 43.675781 C 12.949219 44.375 13.46875 45.039062 14.027344 45.679688 C 14.585938 46.316406 15.179688 46.921875 15.808594 47.492188 C 16.433594 48.0625 17.09375 48.59375 17.78125 49.089844 C 18.472656 49.582031 19.1875 50.035156 19.925781 50.449219 C 20.667969 50.859375 21.429688 51.230469 22.214844 51.554688 C 22.996094 51.878906 23.796875 52.160156 24.609375 52.390625 C 25.425781 52.625 26.253906 52.8125 27.089844 52.949219 C 27.925781 53.089844 28.765625 53.179688 29.613281 53.222656 C 30.460938 53.261719 31.308594 53.257812 32.152344 53.203125 C 33 53.144531 33.839844 53.042969 34.675781 52.890625 C 35.507812 52.738281 36.332031 52.542969 37.144531 52.296875 C 37.953125 52.050781 38.75 51.757812 39.527344 51.421875 C 40.304688 51.082031 41.0625 50.703125 41.796875 50.277344 C 42.53125 49.855469 43.238281 49.390625 43.917969 48.886719 C 44.601562 48.378906 45.25 47.839844 45.871094 47.257812 C 46.488281 46.679688 47.074219 46.066406 47.621094 45.417969 C 48.167969 44.773438 48.679688 44.097656 49.152344 43.390625 C 49.621094 42.6875 50.050781 41.957031 50.4375 41.203125 C 50.824219 40.449219 51.167969 39.671875 51.46875 38.878906 C 51.765625 38.085938 52.019531 37.277344 52.222656 36.457031 C 52.429688 35.632812 52.585938 34.800781 52.699219 33.960938 C 52.808594 33.121094 52.871094 32.273438 52.882812 31.425781 C 52.898438 30.578125 52.863281 29.734375 52.777344 28.890625 C 52.695312 28.046875 52.5625 27.210938 52.382812 26.382812 C 52.203125 25.550781 51.976562 24.734375 51.703125 23.933594 C 51.433594 23.128906 51.113281 22.347656 50.75 21.578125 C 50.386719 20.8125 49.980469 20.070312 49.535156 19.351562 C 49.085938 18.632812 48.597656 17.9375 48.070312 17.273438 C 47.542969 16.613281 46.976562 15.980469 46.378906 15.382812 C 45.351562 14.355469 44.238281 13.4375 43.03125 12.632812 C 41.824219 11.828125 40.554688 11.144531 39.214844 10.589844 C 37.875 10.035156 36.492188 9.613281 35.070312 9.328125 C 33.648438 9.046875 32.210938 8.902344 30.761719 8.902344 Z M 30.761719 8.902344 "/>
<g clip-path="url(#clip1)" clip-rule="nonzero">
<path style=" stroke:none;fill-rule:nonzero;fill:white;fill-opacity:1;" d="M 71.050781 74.484375 C 70.1875 74.480469 69.453125 74.175781 68.847656 73.5625 L 46.441406 51.171875 C 46.148438 50.878906 45.921875 50.539062 45.761719 50.15625 C 45.605469 49.773438 45.523438 49.375 45.523438 48.960938 C 45.523438 48.546875 45.605469 48.148438 45.761719 47.765625 C 45.921875 47.382812 46.148438 47.046875 46.441406 46.753906 C 46.734375 46.460938 47.070312 46.234375 47.453125 46.074219 C 47.835938 45.917969 48.234375 45.835938 48.648438 45.835938 C 49.0625 45.835938 49.460938 45.917969 49.84375 46.074219 C 50.226562 46.234375 50.566406 46.460938 50.859375 46.753906 L 73.25 69.160156 C 73.695312 69.605469 73.976562 70.140625 74.101562 70.757812 C 74.222656 71.375 74.164062 71.972656 73.921875 72.554688 C 73.683594 73.136719 73.300781 73.605469 72.777344 73.953125 C 72.253906 74.304688 71.679688 74.484375 71.050781 74.484375 Z M 71.050781 74.484375 "/>
</g>
</g>
</svg>
