<svg width="22" height="26" viewBox="0 0 22 26" fill="none" xmlns="http://www.w3.org/2000/svg">
<path d="M17.1875 15.75C16.0645 15.75 15.0391 16.1406 14.2578 16.7754L9.22852 13.6504C9.32617 13.3574 9.32617 13.0156 9.32617 12.625C9.32617 12.2832 9.32617 11.9414 9.22852 11.6484L14.2578 8.52344C15.0391 9.1582 16.0645 9.5 17.1875 9.5C19.7754 9.5 21.875 7.44922 21.875 4.8125C21.875 2.22461 19.7754 0.125 17.1875 0.125C14.5508 0.125 12.5 2.22461 12.5 4.8125C12.5 5.20312 12.5 5.54492 12.5977 5.83789L7.56836 8.96289C6.78711 8.32812 5.76172 7.9375 4.6875 7.9375C2.05078 7.9375 0 10.0371 0 12.625C0 15.2617 2.05078 17.3125 4.6875 17.3125C5.76172 17.3125 6.78711 16.9707 7.56836 16.3359L12.5977 19.4609C12.5 19.7539 12.5 20.0957 12.5 20.4863V20.4375C12.5 23.0742 14.5508 25.125 17.1875 25.125C19.7754 25.125 21.875 23.0742 21.875 20.4375C21.875 17.8496 19.7754 15.75 17.1875 15.75Z" fill="#FF6C34"/>
</svg>
