<svg width="17" height="20" viewBox="0 0 17 20" fill="none" xmlns="http://www.w3.org/2000/svg">
<path d="M13.0625 12.25C12.209 12.25 11.4297 12.5469 10.8359 13.0293L7.01367 10.6543C7.08789 10.4316 7.08789 10.1719 7.08789 9.875C7.08789 9.61523 7.08789 9.35547 7.01367 9.13281L10.8359 6.75781C11.4297 7.24023 12.209 7.5 13.0625 7.5C15.0293 7.5 16.625 5.94141 16.625 3.9375C16.625 1.9707 15.0293 0.375 13.0625 0.375C11.0586 0.375 9.5 1.9707 9.5 3.9375C9.5 4.23438 9.5 4.49414 9.57422 4.7168L5.75195 7.0918C5.1582 6.60938 4.37891 6.3125 3.5625 6.3125C1.55859 6.3125 0 7.9082 0 9.875C0 11.8789 1.55859 13.4375 3.5625 13.4375C4.37891 13.4375 5.1582 13.1777 5.75195 12.6953L9.57422 15.0703C9.5 15.293 9.5 15.5527 9.5 15.8496V15.8125C9.5 17.8164 11.0586 19.375 13.0625 19.375C15.0293 19.375 16.625 17.8164 16.625 15.8125C16.625 13.8457 15.0293 12.25 13.0625 12.25Z" fill="white"/>
</svg>
