<svg width="27" height="27" viewBox="0 0 15 15" fill="none" xmlns="http://www.w3.org/2000/svg">
<path d="M9.00002 2.50216C8.99998 1.91022 9.20982 1.33743 9.59224 0.885601C9.97466 0.43377 10.5049 0.132162 11.0887 0.0343786C11.6725 -0.0634049 12.2721 0.0489702 12.7809 0.351533C13.2896 0.654095 13.6747 1.12725 13.8675 1.6869C14.0604 2.24655 14.0485 2.85645 13.8341 3.4082C13.6197 3.95995 13.2167 4.41782 12.6965 4.70044C12.1764 4.98305 11.5729 5.0721 10.9934 4.95176C10.4138 4.83141 9.89564 4.50948 9.53102 4.04316L4.91502 6.35116C5.02893 6.77599 5.02893 7.22333 4.91502 7.64816L9.53302 9.95816C9.91574 9.47098 10.4657 9.14326 11.0764 9.03854C11.687 8.93382 12.3147 9.05956 12.8379 9.39139C13.3611 9.72321 13.7424 10.2375 13.908 10.8345C14.0736 11.4315 14.0116 12.0687 13.734 12.6226C13.4564 13.1765 12.9831 13.6076 12.4057 13.8323C11.8284 14.057 11.1882 14.0594 10.6092 13.8389C10.0302 13.6184 9.55374 13.1908 9.27213 12.6389C8.99052 12.0871 8.92384 11.4504 9.08502 10.8522L4.46702 8.54216C4.14602 8.95136 3.7054 9.25027 3.20652 9.39725C2.70765 9.54423 2.17535 9.53196 1.68377 9.36216C1.19219 9.19236 0.765807 8.87348 0.464002 8.44993C0.162198 8.02637 0 7.51924 0 6.99916C0 6.47908 0.162198 5.97195 0.464002 5.5484C0.765807 5.12485 1.19219 4.80596 1.68377 4.63616C2.17535 4.46636 2.70765 4.45409 3.20652 4.60107C3.7054 4.74805 4.14602 5.04696 4.46702 5.45616L9.08401 3.14916C9.02793 2.93808 8.99969 2.72057 9.00002 2.50216V2.50216ZM11.502 1.00016C11.1038 1.00016 10.7219 1.15836 10.4403 1.43994C10.1587 1.72153 10.0005 2.10344 10.0005 2.50166C10.0005 2.89988 10.1587 3.2818 10.4403 3.56338C10.7219 3.84497 11.1038 4.00316 11.502 4.00316C11.9002 4.00316 12.2822 3.84497 12.5637 3.56338C12.8453 3.2818 13.0035 2.89988 13.0035 2.50166C13.0035 2.10344 12.8453 1.72153 12.5637 1.43994C12.2822 1.15836 11.9002 1.00016 11.502 1.00016V1.00016ZM11.5 10.0002C11.1022 10.0002 10.7207 10.1582 10.4394 10.4395C10.1581 10.7208 10 11.1023 10 11.5002C10 11.898 10.1581 12.2795 10.4394 12.5608C10.7207 12.8421 11.1022 13.0002 11.5 13.0002C11.8978 13.0002 12.2794 12.8421 12.5607 12.5608C12.842 12.2795 13 11.898 13 11.5002C13 11.1023 12.842 10.7208 12.5607 10.4395C12.2794 10.1582 11.8978 10.0002 11.5 10.0002ZM1.00002 7.00016C1.00002 7.19714 1.03881 7.3922 1.1142 7.57419C1.18958 7.75618 1.30007 7.92153 1.43936 8.06082C1.57864 8.20011 1.744 8.3106 1.92599 8.38598C2.10798 8.46136 2.30303 8.50016 2.50002 8.50016C2.697 8.50016 2.89205 8.46136 3.07404 8.38598C3.25603 8.3106 3.42139 8.20011 3.56068 8.06082C3.69996 7.92153 3.81045 7.75618 3.88584 7.57419C3.96122 7.3922 4.00002 7.19714 4.00002 7.00016C4.00002 6.60234 3.84198 6.22081 3.56068 5.9395C3.27937 5.6582 2.89784 5.50016 2.50002 5.50016C2.10219 5.50016 1.72066 5.6582 1.43936 5.9395C1.15805 6.22081 1.00002 6.60234 1.00002 7.00016V7.00016Z" fill="#2FC18C"/>
</svg>
