<svg width="31" height="27" viewBox="0 0 31 27" fill="none" xmlns="http://www.w3.org/2000/svg">
<path d="M27.8359 2.55859C24.4375 -0.3125 19.2227 0.0976562 16 3.4375C12.7188 0.0976562 7.50391 -0.3125 4.10547 2.55859C-0.289062 6.25 0.355469 12.2852 3.51953 15.5078L13.7734 25.9961C14.3594 26.582 15.1211 26.9336 16 26.9336C16.8203 26.9336 17.582 26.582 18.168 25.9961L28.4805 15.5078C31.5859 12.2852 32.2305 6.25 27.8359 2.55859ZM26.4297 13.5156L16.1758 24.0039C16.0586 24.1211 15.9414 24.1211 15.7656 24.0039L5.51172 13.5156C3.34375 11.3477 2.93359 7.24609 5.92188 4.72656C8.20703 2.79297 11.7227 3.08594 13.9492 5.3125L16 7.42188L18.0508 5.3125C20.2188 3.08594 23.7344 2.79297 26.0195 4.66797C29.0078 7.24609 28.5977 11.3477 26.4297 13.5156Z" fill="#FF6C34"/>
</svg>
